<svg width="24" height="25" viewBox="0 0 24 25" fill="none" xmlns="http://www.w3.org/2000/svg">
<path d="M12 3C17.523 3 22 7.477 22 13C22 18.523 17.523 23 12 23C6.477 23 2 18.523 2 13C2 7.477 6.477 3 12 3ZM12 5C9.87827 5 7.84344 5.84285 6.34315 7.34315C4.84285 8.84344 4 10.8783 4 13C4 15.1217 4.84285 17.1566 6.34315 18.6569C7.84344 20.1571 9.87827 21 12 21C14.1217 21 16.1566 20.1571 17.6569 18.6569C19.1571 17.1566 20 15.1217 20 13C20 10.8783 19.1571 8.84344 17.6569 7.34315C16.1566 5.84285 14.1217 5 12 5ZM12 7C12.2449 7.00003 12.4813 7.08996 12.6644 7.25272C12.8474 7.41547 12.9643 7.63975 12.993 7.883L13 8V12.586L15.707 15.293C15.8863 15.473 15.9905 15.7144 15.9982 15.9684C16.006 16.2223 15.9168 16.4697 15.7488 16.6603C15.5807 16.8508 15.3464 16.9703 15.0935 16.9944C14.8406 17.0185 14.588 16.9454 14.387 16.79L14.293 16.707L11.293 13.707C11.1376 13.5514 11.0378 13.349 11.009 13.131L11 13V8C11 7.73478 11.1054 7.48043 11.2929 7.29289C11.4804 7.10536 11.7348 7 12 7Z" fill="#737373"/>
</svg>
