<svg width="24" height="25" viewBox="0 0 24 25" fill="none" xmlns="http://www.w3.org/2000/svg">
<path d="M2 19.6484C1.71667 19.6484 1.47933 19.5524 1.288 19.3604C1.09667 19.1684 1.00067 18.9311 1 18.6484V5.64844C1 5.36511 1.096 5.12777 1.288 4.93644C1.48 4.74511 1.71733 4.64911 2 4.64844C2.28267 4.64777 2.52033 4.74377 2.713 4.93644C2.90567 5.12911 3.00133 5.36644 3 5.64844V14.6484H11V8.64844C11 8.09844 11.196 7.62777 11.588 7.23644C11.98 6.84511 12.4507 6.64911 13 6.64844H19C20.1 6.64844 21.0417 7.04011 21.825 7.82344C22.6083 8.60677 23 9.54844 23 10.6484V18.6484C23 18.9318 22.904 19.1694 22.712 19.3614C22.52 19.5534 22.2827 19.6491 22 19.6484C21.7173 19.6478 21.48 19.5518 21.288 19.3604C21.096 19.1691 21 18.9318 21 18.6484V16.6484H3V18.6484C3 18.9318 2.904 19.1694 2.712 19.3614C2.52 19.5534 2.28267 19.6491 2 19.6484ZM7 13.6484C6.16667 13.6484 5.45833 13.3568 4.875 12.7734C4.29167 12.1901 4 11.4818 4 10.6484C4 9.81511 4.29167 9.10677 4.875 8.52344C5.45833 7.94011 6.16667 7.64844 7 7.64844C7.83333 7.64844 8.54167 7.94011 9.125 8.52344C9.70833 9.10677 10 9.81511 10 10.6484C10 11.4818 9.70833 12.1901 9.125 12.7734C8.54167 13.3568 7.83333 13.6484 7 13.6484ZM13 14.6484H21V10.6484C21 10.0984 20.8043 9.62777 20.413 9.23644C20.0217 8.84511 19.5507 8.64911 19 8.64844H13V14.6484ZM7 11.6484C7.28333 11.6484 7.521 11.5524 7.713 11.3604C7.905 11.1684 8.00067 10.9311 8 10.6484C7.99933 10.3658 7.90333 10.1284 7.712 9.93644C7.52067 9.74444 7.28333 9.64844 7 9.64844C6.71667 9.64844 6.47933 9.74444 6.288 9.93644C6.09667 10.1284 6.00067 10.3658 6 10.6484C5.99933 10.9311 6.09533 11.1688 6.288 11.3614C6.48067 11.5541 6.718 11.6498 7 11.6484Z" fill="#0A7D70"/>
</svg>
