<svg width="24" height="25" viewBox="0 0 24 25" fill="none" xmlns="http://www.w3.org/2000/svg">
<path d="M15.1721 5.33493C15.1721 6.35693 13.7481 7.18793 11.9951 7.18793C10.2431 7.18793 8.81906 6.35693 8.81906 5.33493C8.81906 4.31293 10.2491 3.48193 11.9951 3.48193C13.7431 3.48193 15.1721 4.31293 15.1721 5.33493ZM15.1721 19.6289C15.1721 20.6509 13.7481 21.4819 11.9951 21.4819C10.2431 21.4819 8.81906 20.6509 8.81906 19.6289C8.81906 18.6069 10.2491 17.7759 11.9951 17.7759C13.7431 17.7759 15.1721 18.6069 15.1721 19.6289ZM7.41606 9.91393C8.31606 8.36393 8.32106 6.68393 7.43706 6.17693C6.54706 5.66293 5.10706 6.50993 4.20706 8.06093C3.30706 9.61293 3.30706 11.2909 4.18706 11.7989C5.07706 12.3069 6.51606 11.4649 7.41606 9.91393ZM19.7951 13.1599C20.6851 13.6629 20.6791 15.3089 19.7851 16.8339C18.8851 18.3579 17.4391 19.1839 16.5551 18.6809C15.6601 18.1779 15.6651 16.5309 16.5601 15.0069C17.4601 13.4829 18.9051 12.6569 19.7951 13.1599ZM7.44306 18.6919C8.33206 18.1889 8.32706 16.5419 7.42706 15.0179C6.53206 13.4929 5.08706 12.6679 4.19706 13.1699C3.30306 13.6779 3.30706 15.3199 4.20706 16.8439C5.10306 18.3689 6.54706 19.1999 7.43706 18.6969L7.44306 18.6919ZM19.7931 8.06693C20.6931 9.61693 20.6931 11.2909 19.8101 11.7989C18.9261 12.3129 17.4801 11.4709 16.5801 9.91393C15.6901 8.36393 15.6801 6.68993 16.5641 6.18193C17.4541 5.66793 18.8941 6.50993 19.7941 8.06693" fill="#0A7D70"/>
</svg>
