<svg width="24" height="25" viewBox="0 0 24 25" fill="none" xmlns="http://www.w3.org/2000/svg">
<g clip-path="url(#clip0_117_6172)">
<path d="M6.85742 24.143V7.85725M17.1431 24.143V7.85725M7.71456 7.85725C7.71456 6.72061 8.16609 5.63052 8.96982 4.82679C9.77355 4.02306 10.8636 3.57153 12.0003 3.57153C13.1369 3.57153 14.227 4.02306 15.0307 4.82679C15.8345 5.63052 16.286 6.72061 16.286 7.85725M19.7146 7.85725H4.28599C3.37668 7.85725 2.50461 8.21847 1.86163 8.86145C1.21865 9.50443 0.857422 10.3765 0.857422 11.2858V20.7144C0.857422 21.6237 1.21865 22.4958 1.86163 23.1388C2.50461 23.7817 3.37668 24.143 4.28599 24.143H19.7146C20.6239 24.143 21.4959 23.7817 22.1389 23.1388C22.7819 22.4958 23.1431 21.6237 23.1431 20.7144V11.2858C23.1431 10.3765 22.7819 9.50443 22.1389 8.86145C21.4959 8.21847 20.6239 7.85725 19.7146 7.85725Z" stroke="#737373" stroke-width="1.71429" stroke-linecap="round" stroke-linejoin="round"/>
</g>
<defs>
<clipPath id="clip0_117_6172">
<rect width="24" height="24" fill="white" transform="translate(0 0.833496)"/>
</clipPath>
</defs>
</svg>
