<svg width="24" height="25" viewBox="0 0 24 25" fill="none" xmlns="http://www.w3.org/2000/svg">
<g clip-path="url(#clip0_117_6312)">
<path d="M11.25 0.648438C11.4531 0.648438 11.6289 0.722656 11.7773 0.871094C11.9258 1.01953 12 1.19531 12 1.39844V9.64844C12 10.0625 11.9219 10.4492 11.7656 10.8086C11.6094 11.168 11.3945 11.4844 11.1211 11.7578C10.8477 12.0312 10.5273 12.2461 10.1602 12.4023C9.79297 12.5586 9.40625 12.6406 9 12.6484V23.8984C9 24.1016 8.92578 24.2773 8.77734 24.4258C8.62891 24.5742 8.45312 24.6484 8.25 24.6484C8.04688 24.6484 7.87109 24.5742 7.72266 24.4258C7.57422 24.2773 7.5 24.1016 7.5 23.8984V12.6484C7.08594 12.6484 6.69922 12.5703 6.33984 12.4141C5.98047 12.2578 5.66406 12.043 5.39062 11.7695C5.11719 11.4961 4.90234 11.1797 4.74609 10.8203C4.58984 10.4609 4.50781 10.0703 4.5 9.64844V1.39844C4.5 1.19531 4.57422 1.01953 4.72266 0.871094C4.87109 0.722656 5.04688 0.648438 5.25 0.648438C5.45312 0.648438 5.62891 0.722656 5.77734 0.871094C5.92578 1.01953 6 1.19531 6 1.39844V9.64844C6 9.85938 6.03906 10.0547 6.11719 10.2344C6.19531 10.4141 6.30078 10.5703 6.43359 10.7031C6.56641 10.8359 6.72656 10.9453 6.91406 11.0312C7.10156 11.1172 7.29688 11.1562 7.5 11.1484V1.39844C7.5 1.19531 7.57422 1.01953 7.72266 0.871094C7.87109 0.722656 8.04688 0.648438 8.25 0.648438C8.45312 0.648438 8.62891 0.722656 8.77734 0.871094C8.92578 1.01953 9 1.19531 9 1.39844V11.1484C9.21094 11.1484 9.40625 11.1094 9.58594 11.0312C9.76562 10.9531 9.92188 10.8477 10.0547 10.7148C10.1875 10.582 10.2969 10.4219 10.3828 10.2344C10.4688 10.0469 10.5078 9.85156 10.5 9.64844V1.39844C10.5 1.19531 10.5742 1.01953 10.7227 0.871094C10.8711 0.722656 11.0469 0.648438 11.25 0.648438ZM19.5 0.648438V23.8984C19.5 24.1016 19.4258 24.2773 19.2773 24.4258C19.1289 24.5742 18.9531 24.6484 18.75 24.6484C18.5469 24.6484 18.3711 24.5742 18.2227 24.4258C18.0742 24.2773 18 24.1016 18 23.8984V17.1484C17.7109 17.1484 17.3984 17.1523 17.0625 17.1602C16.7266 17.168 16.3945 17.1641 16.0664 17.1484C15.7383 17.1328 15.418 17.0859 15.1055 17.0078C14.793 16.9297 14.5195 16.8086 14.2852 16.6445C14.0508 16.4805 13.8594 16.2578 13.7109 15.9766C13.5625 15.6953 13.4922 15.3359 13.5 14.8984V5.89844C13.5 5.17188 13.6367 4.49219 13.9102 3.85938C14.1836 3.22656 14.5586 2.67188 15.0352 2.19531C15.5117 1.71875 16.0664 1.34375 16.6992 1.07031C17.332 0.796875 18.0156 0.65625 18.75 0.648438H19.5ZM18 2.21875C17.5625 2.30469 17.1641 2.46094 16.8047 2.6875C16.4453 2.91406 16.1289 3.19531 15.8555 3.53125C15.582 3.86719 15.3711 4.23047 15.2227 4.62109C15.0742 5.01172 15 5.4375 15 5.89844V14.8984C15 15.1016 15.0742 15.2773 15.2227 15.4258C15.3711 15.5742 15.5469 15.6484 15.75 15.6484H18V2.21875Z" fill="#0A7D70"/>
</g>
<defs>
<clipPath id="clip0_117_6312">
<rect width="24" height="24" fill="white" transform="translate(0 0.648438)"/>
</clipPath>
</defs>
</svg>
