<svg width="24" height="25" viewBox="0 0 24 25" fill="none" xmlns="http://www.w3.org/2000/svg">
<path fill-rule="evenodd" clip-rule="evenodd" d="M12 2.64844C17.523 2.64844 22 7.12544 22 12.6484C22 18.1714 17.523 22.6484 12 22.6484C6.477 22.6484 2 18.1714 2 12.6484C2 7.12544 6.477 2.64844 12 2.64844ZM4.205 14.4584C4.55496 15.9608 5.33129 17.3302 6.44071 18.402C7.55013 19.4738 8.94545 20.2025 10.459 20.5004C10.266 17.8754 9.403 16.3004 8.313 15.4294C7.269 14.5944 5.853 14.2714 4.205 14.4574V14.4584ZM15.687 15.4284C14.597 16.3014 13.734 17.8754 13.541 20.5004C15.0547 20.2024 16.4501 19.4736 17.5595 18.4016C18.669 17.3296 19.4452 15.96 19.795 14.4574C18.147 14.2714 16.731 14.5944 15.687 15.4294V15.4284ZM12 4.64844C10.136 4.64811 8.33043 5.29867 6.89502 6.48779C5.4596 7.67691 4.48447 9.32994 4.138 11.1614L4.095 11.4094L6.305 10.9674C6.887 10.8514 7.44 10.5444 8.058 10.1274L8.535 9.79544C9.332 9.22944 10.513 8.64844 12 8.64844C13.388 8.64844 14.509 9.15444 15.3 9.68244L15.942 10.1274C16.482 10.4924 16.974 10.7724 17.478 10.9154L17.695 10.9674L19.905 11.4094C19.6096 9.52519 18.6508 7.80847 17.2013 6.5688C15.7519 5.32912 13.9073 4.64807 12 4.64844Z" fill="#0A7D70"/>
</svg>
