<svg width="24" height="25" viewBox="0 0 24 25" fill="none" xmlns="http://www.w3.org/2000/svg">
<g clip-path="url(#clip0_117_6182)">
<path d="M6.8076 1C7.03038 1 7.24404 1.0885 7.40157 1.24603C7.5591 1.40356 7.6476 1.61722 7.6476 1.84V3.4108H16.668V1.8508C16.668 1.62802 16.7565 1.41436 16.914 1.25683C17.0716 1.0993 17.2852 1.0108 17.508 1.0108C17.7308 1.0108 17.9444 1.0993 18.102 1.25683C18.2595 1.41436 18.348 1.62802 18.348 1.8508V3.4108H21.6C22.2363 3.4108 22.8466 3.66349 23.2966 4.11332C23.7467 4.56315 23.9997 5.17329 24 5.8096V22.6012C23.9997 23.2375 23.7467 23.8477 23.2966 24.2975C22.8466 24.7473 22.2363 25 21.6 25H2.4C1.76369 25 1.15342 24.7473 0.703368 24.2975C0.253315 23.8477 0.000318156 23.2375 0 22.6012L0 5.8096C0.000318156 5.17329 0.253315 4.56315 0.703368 4.11332C1.15342 3.66349 1.76369 3.4108 2.4 3.4108H5.9676V1.8388C5.96792 1.61623 6.05656 1.40288 6.21405 1.24561C6.37155 1.08833 6.58503 1 6.8076 1ZM1.68 10.2904V22.6012C1.68 22.6958 1.69862 22.7894 1.73481 22.8767C1.77099 22.9641 1.82403 23.0435 1.89088 23.1103C1.95774 23.1772 2.03711 23.2302 2.12447 23.2664C2.21182 23.3026 2.30545 23.3212 2.4 23.3212H21.6C21.6946 23.3212 21.7882 23.3026 21.8755 23.2664C21.9629 23.2302 22.0423 23.1772 22.1091 23.1103C22.176 23.0435 22.229 22.9641 22.2652 22.8767C22.3014 22.7894 22.32 22.6958 22.32 22.6012V10.3072L1.68 10.2904ZM8.0004 18.5428V20.542H6V18.5428H8.0004ZM12.9996 18.5428V20.542H11.0004V18.5428H12.9996ZM18 18.5428V20.542H15.9996V18.5428H18ZM8.0004 13.7704V15.7696H6V13.7704H8.0004ZM12.9996 13.7704V15.7696H11.0004V13.7704H12.9996ZM18 13.7704V15.7696H15.9996V13.7704H18ZM5.9676 5.0896H2.4C2.30545 5.0896 2.21182 5.10822 2.12447 5.14441C2.03711 5.18059 1.95774 5.23362 1.89088 5.30048C1.82403 5.36734 1.77099 5.44671 1.73481 5.53407C1.69862 5.62142 1.68 5.71505 1.68 5.8096V8.6116L22.32 8.6284V5.8096C22.32 5.71505 22.3014 5.62142 22.2652 5.53407C22.229 5.44671 22.176 5.36734 22.1091 5.30048C22.0423 5.23362 21.9629 5.18059 21.8755 5.14441C21.7882 5.10822 21.6946 5.0896 21.6 5.0896H18.348V6.2044C18.348 6.42718 18.2595 6.64084 18.102 6.79837C17.9444 6.9559 17.7308 7.0444 17.508 7.0444C17.2852 7.0444 17.0716 6.9559 16.914 6.79837C16.7565 6.64084 16.668 6.42718 16.668 6.2044V5.0896H7.6476V6.1936C7.6476 6.41638 7.5591 6.63004 7.40157 6.78757C7.24404 6.9451 7.03038 7.0336 6.8076 7.0336C6.58482 7.0336 6.37116 6.9451 6.21363 6.78757C6.0561 6.63004 5.9676 6.41638 5.9676 6.1936V5.0896Z" fill="#737373"/>
</g>
<defs>
<clipPath id="clip0_117_6182">
<rect width="24" height="24" fill="white" transform="translate(0 0.833496)"/>
</clipPath>
</defs>
</svg>
