<svg width="24" height="24" viewBox="0 0 24 24" fill="none" xmlns="http://www.w3.org/2000/svg">
<path fill-rule="evenodd" clip-rule="evenodd" d="M13.7239 14.4509C13.9659 14.3319 14.0679 14.0344 13.9519 13.7859C13.5229 12.8669 12.7729 12.2409 11.8604 11.8349C10.8804 11.3989 10.3854 10.9679 10.1364 10.6509C9.90438 10.3554 9.83588 10.0974 9.82338 9.86292C9.79538 9.32792 10.0244 8.81992 10.2994 8.23792L10.2999 8.23692L10.4009 8.02192C10.8094 7.13792 10.4374 6.08442 9.57438 5.66892C8.71288 5.25392 7.68338 5.62942 7.27538 6.51242C7.25238 6.56109 7.22905 6.60942 7.20538 6.65742C6.95238 7.17192 6.29138 8.51742 6.37188 10.0524C6.41879 10.9691 6.72328 11.854 7.25038 12.6054L4.34238 13.5254C4.21801 13.5665 4.11471 13.6547 4.05468 13.7711C3.99465 13.8875 3.9827 14.0228 4.02138 14.1479C4.03898 14.2098 4.06875 14.2676 4.10896 14.3178C4.14916 14.3681 4.19899 14.4098 4.25552 14.4405C4.31206 14.4712 4.37416 14.4904 4.43818 14.4968C4.50221 14.5032 4.56687 14.4968 4.62838 14.4779L8.22838 13.3394C8.3079 13.3135 8.37955 13.2678 8.43665 13.2067C8.49374 13.1456 8.53442 13.071 8.55488 12.9899C8.57615 12.9082 8.57658 12.8224 8.55614 12.7405C8.5357 12.6586 8.49504 12.5831 8.43788 12.5209C8.35442 12.4298 8.27436 12.3355 8.19788 12.2384C7.62188 11.5059 7.37988 10.7334 7.34138 9.99842C7.27588 8.74292 7.82838 7.60342 8.07838 7.09342L8.08088 7.08842C8.10738 7.03492 8.13288 6.98292 8.15288 6.93942C8.19409 6.84824 8.25308 6.76621 8.32641 6.69814C8.39974 6.63007 8.48592 6.57733 8.5799 6.543C8.67388 6.50868 8.77377 6.49347 8.87371 6.49826C8.97364 6.50306 9.07162 6.52776 9.16188 6.57092C9.34414 6.6605 9.48406 6.81791 9.55163 7.00942C9.61921 7.20093 9.60907 7.4113 9.52338 7.59542L9.40738 7.84142C9.15388 8.37792 8.81088 9.10242 8.85388 9.91642C8.87638 10.3489 9.01388 10.8094 9.38038 11.2764C9.75438 11.7524 10.3944 12.2689 11.4739 12.7494C12.2289 13.0854 12.7724 13.5654 13.0764 14.2169C13.1028 14.2754 13.1407 14.328 13.1878 14.3716C13.2349 14.4152 13.2903 14.4489 13.3507 14.4707C13.4111 14.4926 13.4752 14.5021 13.5393 14.4986C13.6034 14.4952 13.6662 14.479 13.7239 14.4509ZM16.9999 12.4999C17.5303 12.4999 18.039 12.2892 18.4141 11.9141C18.7892 11.5391 18.9999 11.0304 18.9999 10.4999C18.9999 9.96949 18.7892 9.46078 18.4141 9.08571C18.039 8.71063 17.5303 8.49992 16.9999 8.49992C16.4695 8.49992 15.9607 8.71063 15.5857 9.08571C15.2106 9.46078 14.9999 9.96949 14.9999 10.4999C14.9999 11.0304 15.2106 11.5391 15.5857 11.9141C15.9607 12.2892 16.4695 12.4999 16.9999 12.4999ZM16.9999 13.4999C17.7955 13.4999 18.5586 13.1838 19.1212 12.6212C19.6838 12.0586 19.9999 11.2956 19.9999 10.4999C19.9999 9.70427 19.6838 8.94121 19.1212 8.3786C18.5586 7.81599 17.7955 7.49992 16.9999 7.49992C16.2042 7.49992 15.4412 7.81599 14.8786 8.3786C14.316 8.94121 13.9999 9.70427 13.9999 10.4999C13.9999 11.2956 14.316 12.0586 14.8786 12.6212C15.4412 13.1838 16.2042 13.4999 16.9999 13.4999ZM2.11088 18.6894C2.19693 18.5852 2.3201 18.5184 2.45442 18.5032C2.58874 18.488 2.72371 18.5255 2.83088 18.6079L3.64238 19.2349C3.86219 19.4038 4.13426 19.4903 4.41125 19.4793C4.68823 19.4684 4.95261 19.3607 5.15838 19.1749L5.20338 19.1344C5.60083 18.7761 6.11699 18.5777 6.65213 18.5777C7.18728 18.5777 7.70344 18.7761 8.10088 19.1344C8.30636 19.3197 8.57321 19.4222 8.84988 19.4222C9.12655 19.4222 9.39341 19.3197 9.59888 19.1344C9.99633 18.7761 10.5125 18.5777 11.0476 18.5777C11.5828 18.5777 12.0989 18.7761 12.4964 19.1344C12.9144 19.5144 13.5784 19.5129 14.0039 19.1259C14.8049 18.3964 16.0639 18.3809 16.8729 19.1169L16.9079 19.1489C17.3099 19.5149 17.9369 19.5039 18.3254 19.1254C19.0814 18.3879 20.2919 18.3429 21.1039 19.0209L21.8209 19.6204C22.0359 19.8004 22.0609 20.1154 21.8764 20.3254C21.7863 20.4263 21.6607 20.4883 21.5258 20.4984C21.3909 20.5085 21.2574 20.4658 21.1534 20.3794L20.4364 19.7804C20.2395 19.6172 19.9893 19.5323 19.7337 19.5419C19.4781 19.5515 19.235 19.6549 19.0509 19.8324C18.2709 20.5924 17.0144 20.6134 16.2084 19.8799L16.1734 19.8484C15.7659 19.4774 15.1184 19.4789 14.7034 19.8569C13.8919 20.5954 12.6164 20.6114 11.7964 19.8654C11.5909 19.6801 11.3241 19.5776 11.0474 19.5776C10.7707 19.5776 10.5039 19.6801 10.2984 19.8654C9.90094 20.2238 9.38478 20.4221 8.84963 20.4221C8.31449 20.4221 7.79833 20.2238 7.40088 19.8654C7.19541 19.6801 6.92855 19.5776 6.65188 19.5776C6.37521 19.5776 6.10836 19.6801 5.90288 19.8654L5.85788 19.9059C5.47062 20.2553 4.97316 20.4579 4.45199 20.4784C3.93083 20.499 3.41896 20.3362 3.00538 20.0184L2.19438 19.3919C2.14179 19.352 2.09777 19.3019 2.06496 19.2446C2.03215 19.1873 2.01123 19.124 2.00344 19.0584C1.99564 18.9928 2.00114 18.9264 2.0196 18.863C2.03806 18.7996 2.06911 18.7406 2.11088 18.6894ZM2.11088 15.6894C2.19693 15.5852 2.3201 15.5184 2.45442 15.5032C2.58874 15.488 2.72371 15.5255 2.83088 15.6079L3.64238 16.2349C3.86219 16.4038 4.13426 16.4903 4.41125 16.4793C4.68823 16.4684 4.95261 16.3607 5.15838 16.1749L5.20338 16.1344C5.60083 15.7761 6.11699 15.5777 6.65213 15.5777C7.18728 15.5777 7.70344 15.7761 8.10088 16.1344C8.30636 16.3197 8.57321 16.4222 8.84988 16.4222C9.12655 16.4222 9.39341 16.3197 9.59888 16.1344C9.99633 15.7761 10.5125 15.5777 11.0476 15.5777C11.5828 15.5777 12.0989 15.7761 12.4964 16.1344C12.9144 16.5144 13.5784 16.5129 14.0039 16.1259C14.8049 15.3964 16.0639 15.3809 16.8729 16.1169L16.9079 16.1489C17.3099 16.5149 17.9369 16.5039 18.3254 16.1254C19.0814 15.3879 20.2919 15.3429 21.1039 16.0209L21.8209 16.6204C22.0359 16.8004 22.0609 17.1154 21.8764 17.3254C21.7863 17.4263 21.6607 17.4883 21.5258 17.4984C21.3909 17.5085 21.2574 17.4658 21.1534 17.3794L20.4364 16.7804C20.2395 16.6172 19.9893 16.5323 19.7337 16.5419C19.4781 16.5515 19.235 16.6549 19.0509 16.8324C18.2709 17.5924 17.0144 17.6134 16.2084 16.8799L16.1734 16.8484C15.7659 16.4774 15.1184 16.4789 14.7034 16.8569C13.8919 17.5954 12.6164 17.6114 11.7964 16.8654C11.5909 16.6801 11.3241 16.5776 11.0474 16.5776C10.7707 16.5776 10.5039 16.6801 10.2984 16.8654C9.90094 17.2238 9.38478 17.4221 8.84963 17.4221C8.31449 17.4221 7.79833 17.2238 7.40088 16.8654C7.19541 16.6801 6.92855 16.5776 6.65188 16.5776C6.37521 16.5776 6.10836 16.6801 5.90288 16.8654L5.85788 16.9059C5.47062 17.2553 4.97316 17.4579 4.45199 17.4784C3.93083 17.499 3.41896 17.3362 3.00538 17.0184L2.19438 16.3919C2.14179 16.352 2.09777 16.3019 2.06496 16.2446C2.03215 16.1873 2.01123 16.124 2.00344 16.0584C1.99564 15.9928 2.00114 15.9264 2.0196 15.863C2.03806 15.7996 2.06911 15.7406 2.11088 15.6894Z" fill="#737373"/>
</svg>
