<svg width="25" height="26" viewBox="0 0 25 26" fill="none" xmlns="http://www.w3.org/2000/svg">
<g clip-path="url(#clip0_2009_943)">
<rect y="0.280029" width="25" height="25" rx="3" fill="white"/>
<path d="M22.0236 0.280029H2.97639C2.18723 0.280765 1.4306 0.594584 0.872577 1.15261C0.314555 1.71063 0.000735473 2.46726 0 3.25642V22.3036C0 23.9467 1.33472 25.28 2.97639 25.28H22.0236C22.8128 25.2793 23.5694 24.9655 24.1274 24.4075C24.6854 23.8494 24.9993 23.0928 25 22.3036V3.25642C24.9993 2.46726 24.6854 1.71063 24.1274 1.15261C23.5694 0.594584 22.8128 0.280765 22.0236 0.280029ZM19.6458 11.187C18.7698 11.272 17.8883 11.0925 17.1153 10.6717C16.4632 10.3202 15.9094 9.81121 15.5042 9.19114V16.0578C15.5042 17.0615 15.2065 18.0427 14.6489 18.8773C14.0912 19.7119 13.2986 20.3624 12.3713 20.7465C11.4439 21.1306 10.4235 21.2311 9.43908 21.0353C8.45463 20.8395 7.55035 20.3561 6.8406 19.6464C6.13085 18.9366 5.6475 18.0323 5.45168 17.0479C5.25586 16.0634 5.35636 15.043 5.74048 14.1157C6.12459 13.1884 6.77507 12.3957 7.60965 11.8381C8.44423 11.2804 9.42543 10.9828 10.4292 10.9828C10.5347 10.9828 10.6375 10.9925 10.7417 10.9981V13.4995C10.6375 13.487 10.5361 13.4675 10.4292 13.4675C9.74218 13.4675 9.08333 13.7404 8.59756 14.2262C8.11179 14.712 7.83889 15.3708 7.83889 16.0578C7.83889 16.7448 8.11179 17.4036 8.59756 17.8894C9.08333 18.3752 9.74218 18.6481 10.4292 18.6481C11.8597 18.6481 13.1236 17.5217 13.1236 16.0911L13.1486 4.42725H15.5417C15.6512 5.46673 16.1225 6.43469 16.8731 7.16202C17.6238 7.88934 18.6062 8.32979 19.6486 8.40642V11.187" fill="black"/>
</g>
<defs>
<clipPath id="clip0_2009_943">
<rect y="0.280029" width="25" height="25" rx="3" fill="white"/>
</clipPath>
</defs>
</svg>
