<svg width="25" height="26" viewBox="0 0 25 26" fill="none" xmlns="http://www.w3.org/2000/svg">
<g clip-path="url(#clip0_2009_940)">
<rect y="0.280029" width="25" height="25" rx="3" fill="white"/>
<path d="M23.625 0.280029H1.375C1.01033 0.280029 0.660591 0.424895 0.402728 0.682758C0.144866 0.94062 0 1.29036 0 1.65503V23.905C0 24.2697 0.144866 24.6194 0.402728 24.8773C0.660591 25.1352 1.01033 25.28 1.375 25.28H13.35V15.5925H10.1V11.8425H13.35V9.03003C13.2827 8.36973 13.3606 7.70269 13.5784 7.0757C13.7962 6.44871 14.1485 5.87696 14.6106 5.40054C15.0727 4.92413 15.6335 4.55458 16.2535 4.31783C16.8736 4.08107 17.538 3.98284 18.2 4.03003C19.1729 4.02331 20.1454 4.0734 21.1125 4.18003V7.55503H19.125C17.55 7.55503 17.25 8.30503 17.25 9.39253V11.805H21L20.5125 15.555H17.25V25.28H23.625C23.8056 25.28 23.9844 25.2445 24.1512 25.1754C24.318 25.1063 24.4696 25.005 24.5973 24.8773C24.725 24.7496 24.8262 24.598 24.8953 24.4312C24.9644 24.2644 25 24.0856 25 23.905V1.65503C25 1.47446 24.9644 1.29566 24.8953 1.12884C24.8262 0.962017 24.725 0.810438 24.5973 0.682758C24.4696 0.555077 24.318 0.453795 24.1512 0.384695C23.9844 0.315595 23.8056 0.280029 23.625 0.280029Z" fill="#005BE0"/>
</g>
<defs>
<clipPath id="clip0_2009_940">
<rect y="0.280029" width="25" height="25" rx="3" fill="white"/>
</clipPath>
</defs>
</svg>
