<svg width="24" height="24" viewBox="0 0 24 24" fill="none" xmlns="http://www.w3.org/2000/svg">
<path d="M8.01758 15.9824H6.444C6.05062 15.9497 5.68392 15.7703 5.41663 15.4798C5.14934 15.1893 5.00098 14.809 5.00098 14.4143C5.00098 14.0195 5.14934 13.6392 5.41663 13.3487C5.68392 13.0583 6.05062 12.8789 6.444 12.8461H8.94003L10.5462 11.24L6.14013 8.52688C5.80093 8.31719 5.55399 7.98653 5.44924 7.60176C5.34448 7.21698 5.38972 6.80678 5.57581 6.45408C5.65796 6.25223 5.78059 6.06935 5.93614 5.91673C6.0917 5.7641 6.27687 5.64497 6.48025 5.56667C6.68362 5.48837 6.90088 5.45257 7.11862 5.46147C7.33637 5.47038 7.54998 5.52381 7.74627 5.61845L13.498 8.27727L16.2762 5.46652C16.5755 5.16719 16.9815 4.99902 17.4048 4.99902C17.8282 4.99902 18.2341 5.16719 18.5335 5.46652C18.8328 5.76586 19.001 6.17184 19.001 6.59516C19.001 7.01849 18.8328 7.42447 18.5335 7.7238L15.7227 10.502L18.3815 16.308C18.469 16.5013 18.5167 16.7103 18.5219 16.9224C18.5271 17.1346 18.4896 17.3456 18.4117 17.543C18.3337 17.7403 18.2169 17.92 18.0682 18.0714C17.9195 18.2228 17.7419 18.3428 17.5459 18.4242C17.1932 18.6103 16.783 18.6555 16.3982 18.5508C16.0135 18.446 15.6828 18.1991 15.4731 17.8599L12.76 13.4538L11.1539 15.06V17.556C11.1211 17.9494 10.9417 18.3161 10.6513 18.5834C10.3608 18.8507 9.98048 18.999 9.58574 18.999C9.191 18.999 8.81068 18.8507 8.52021 18.5834C8.22974 18.3161 8.05034 17.9494 8.01758 17.556V15.9824Z" stroke="black" stroke-linecap="round" stroke-linejoin="round"/>
</svg>
