<svg width="24" height="24" viewBox="0 0 24 24" fill="none" xmlns="http://www.w3.org/2000/svg">
<path d="M10 19V23.5M10 19C10 15 13.167 9.194 17.063 5.947L18.5 4.75V4.5H13.528M10 19C10 15 6.833 9.194 2.937 5.947L1.5 4.75V4.5H13.528M10 23.5H5M10 23.5H15M13.528 4.5C13.6245 3.63668 13.9689 2.81976 14.5195 2.14783C15.07 1.47591 15.8034 0.977713 16.6309 0.713383C17.4584 0.449053 18.3447 0.429889 19.1828 0.658204C20.021 0.88652 20.7752 1.35255 21.3543 2.00005C21.9334 2.64755 22.3127 3.44883 22.4465 4.30717C22.5802 5.16551 22.4627 6.04421 22.108 6.83721C21.7534 7.63021 21.1767 8.30361 20.4478 8.77611C19.7188 9.24861 18.8687 9.50003 18 9.5M5.5 8.5H14.5" stroke="#737373"/>
</svg>
