<svg width="24" height="24" viewBox="0 0 24 24" fill="none" xmlns="http://www.w3.org/2000/svg">
<path d="M2.40039 8.10005C2.40039 7.22483 2.74807 6.38547 3.36694 5.7666C3.98581 5.14773 4.82518 4.80005 5.70039 4.80005H18.3004C19.1756 4.80005 20.015 5.14773 20.6338 5.7666C21.2527 6.38547 21.6004 7.22483 21.6004 8.10005V15.9C21.6004 16.7753 21.2527 17.6146 20.6338 18.2335C20.015 18.8524 19.1756 19.2 18.3004 19.2H5.70039C4.82518 19.2 3.98581 18.8524 3.36694 18.2335C2.74807 17.6146 2.40039 16.7753 2.40039 15.9V8.10005ZM5.70039 6.00005C5.14344 6.00005 4.60929 6.2213 4.21547 6.61512C3.82164 7.00895 3.60039 7.54309 3.60039 8.10005V15.9C3.60039 17.0592 4.54119 18 5.70039 18H18.3004C18.8573 18 19.3915 17.7788 19.7853 17.385C20.1791 16.9911 20.4004 16.457 20.4004 15.9V8.10005C20.4004 7.54309 20.1791 7.00895 19.7853 6.61512C19.3915 6.2213 18.8573 6.00005 18.3004 6.00005H5.70039ZM13.2004 7.80005C13.2004 7.64092 13.2636 7.48831 13.3761 7.37578C13.4886 7.26326 13.6413 7.20005 13.8004 7.20005H16.2004C16.3595 7.20005 16.5121 7.26326 16.6247 7.37578C16.7372 7.48831 16.8004 7.64092 16.8004 7.80005V10.2C16.8004 10.3592 16.7372 10.5118 16.6247 10.6243C16.5121 10.7368 16.3595 10.8 16.2004 10.8C16.0413 10.8 15.8886 10.7368 15.7761 10.6243C15.6636 10.5118 15.6004 10.3592 15.6004 10.2V9.24845L13.6252 11.2248C13.5125 11.3375 13.3597 11.4008 13.2004 11.4008C13.0411 11.4008 12.8883 11.3375 12.7756 11.2248C12.6629 11.1122 12.5996 10.9594 12.5996 10.8C12.5996 10.6407 12.6629 10.4879 12.7756 10.3752L14.752 8.40005H13.8004C13.6413 8.40005 13.4886 8.33683 13.3761 8.22431C13.2636 8.11179 13.2004 7.95918 13.2004 7.80005ZM10.3756 12.7752C10.4883 12.6626 10.6411 12.5993 10.8004 12.5993C10.9597 12.5993 11.1125 12.6626 11.2252 12.7752C11.3379 12.8879 11.4011 13.0407 11.4011 13.2C11.4011 13.3594 11.3379 13.5122 11.2252 13.6248L9.24879 15.6H10.2004C10.3595 15.6 10.5121 15.6633 10.6247 15.7758C10.7372 15.8883 10.8004 16.0409 10.8004 16.2C10.8004 16.3592 10.7372 16.5118 10.6247 16.6243C10.5121 16.7368 10.3595 16.8 10.2004 16.8H7.80039C7.64126 16.8 7.48865 16.7368 7.37613 16.6243C7.26361 16.5118 7.20039 16.3592 7.20039 16.2V13.8C7.20039 13.6409 7.26361 13.4883 7.37613 13.3758C7.48865 13.2633 7.64126 13.2 7.80039 13.2C7.95952 13.2 8.11213 13.2633 8.22465 13.3758C8.33718 13.4883 8.40039 13.6409 8.40039 13.8V14.7516L10.3756 12.7752Z" fill="black"/>
</svg>
