<svg width="24" height="24" viewBox="0 0 24 24" fill="none" xmlns="http://www.w3.org/2000/svg">
<g clip-path="url(#clip0_99_4108)">
<path d="M17.5 24V18.5C17.5 17.7043 17.1839 16.9412 16.6213 16.3786C16.0587 15.816 15.2956 15.5 14.5 15.5C13.5 15.5 0.1 17 0.1 17M15 21.5H0M24 21.5H20M9.5 13.5L12.418 11.415C12.6757 11.2308 12.8627 10.9642 12.9482 10.6592C13.0337 10.3542 13.0124 10.0292 12.888 9.73795L11.903 7.44095C11.534 7.22595 10.13 6.49995 8 6.49995C5.87 6.49995 4.466 7.22595 4.097 7.43995L3.112 9.73795C2.9873 10.0293 2.96592 10.3546 3.05141 10.6597C3.13689 10.9649 3.3241 11.2317 3.582 11.416L6.5 13.5M19.5 17.4C19.5 17.4 20.5 19 21.75 19C22.2141 19 22.6592 18.8156 22.9874 18.4874C23.3156 18.1592 23.5 17.7141 23.5 17.25C23.5 16.284 22.716 15.504 21.75 15.504C20.5 15.504 19.5 17.1 19.5 17.1V17.4ZM7.85 4.49995C7.85 4.49995 6.25 3.49995 6.25 2.24995C6.25 1.78635 6.43416 1.34174 6.76198 1.01393C7.08979 0.686117 7.5344 0.501953 7.998 0.501953C8.4616 0.501953 8.90621 0.686117 9.23402 1.01393C9.56184 1.34174 9.746 1.78635 9.746 2.24995C9.746 3.49995 8.15 4.49995 8.15 4.49995H7.85Z" stroke="#737373"/>
</g>
<defs>
<clipPath id="clip0_99_4108">
<rect width="24" height="24" fill="white"/>
</clipPath>
</defs>
</svg>
