<svg width="24" height="24" viewBox="0 0 24 24" fill="none" xmlns="http://www.w3.org/2000/svg">
<path d="M5 15.116V6C5 5.34733 5.18767 4.82267 5.563 4.426C5.93833 4.02933 6.44633 3.72533 7.087 3.514C7.72767 3.30267 8.47267 3.16467 9.322 3.1C10.1713 3.03533 11.064 3.002 12 3C12.972 3 13.8813 3.033 14.728 3.099C15.5747 3.165 16.3157 3.30367 16.951 3.515C17.5863 3.72633 18.0867 4.03 18.452 4.426C18.8173 4.822 19 5.34667 19 6V15.116C19 15.9193 18.72 16.601 18.16 17.161C17.6007 17.7203 16.9193 18 16.116 18L17.616 19.5V20H16.769L14.769 18H9.231L7.231 20H6.385V19.5L7.885 18C7.081 18 6.39933 17.72 5.84 17.16C5.28 16.6013 5 15.92 5 15.116ZM12 4C10.0407 4 8.61433 4.13 7.721 4.39C6.82767 4.64933 6.28867 5.03233 6.104 5.539H17.919C17.7457 5.02433 17.2113 4.63933 16.316 4.384C15.4207 4.128 13.982 4 12 4ZM6 11H11.5V6.539H6V11ZM16.116 12H6H18H16.116ZM12.5 11H18V6.539H12.5V11ZM8.5 15.616C8.818 15.616 9.08333 15.5093 9.296 15.296C9.50867 15.0827 9.61533 14.8173 9.616 14.5C9.61667 14.1827 9.51 13.9173 9.296 13.704C9.082 13.4907 8.81667 13.384 8.5 13.384C8.18333 13.384 7.918 13.4907 7.704 13.704C7.49 13.9173 7.38333 14.1827 7.384 14.5C7.38467 14.8173 7.49133 15.0827 7.704 15.296C7.91667 15.5093 8.182 15.616 8.5 15.616ZM15.5 15.616C15.818 15.616 16.0833 15.5093 16.296 15.296C16.5087 15.0827 16.6153 14.8173 16.616 14.5C16.6167 14.1827 16.51 13.9173 16.296 13.704C16.082 13.4907 15.8167 13.384 15.5 13.384C15.1833 13.384 14.918 13.4907 14.704 13.704C14.49 13.9173 14.3833 14.1827 14.384 14.5C14.3847 14.8173 14.4913 15.0827 14.704 15.296C14.9167 15.5093 15.182 15.616 15.5 15.616ZM7.885 17H16.115C16.6383 17 17.0833 16.8167 17.45 16.45C17.8167 16.0833 18 15.6383 18 15.115V12H6V15.116C6 15.6387 6.18333 16.0833 6.55 16.45C6.91667 16.8167 7.36167 17 7.885 17ZM12 5.539H17.919H6.104H12Z" fill="black"/>
</svg>
