<svg width="25" height="26" viewBox="0 0 25 26" fill="none" xmlns="http://www.w3.org/2000/svg">
<rect y="0.280029" width="25" height="25" rx="3" fill="#FF0000"/>
<g clip-path="url(#clip0_2009_946)">
<path d="M20.1466 8.65972C20.0549 8.32056 19.8758 8.01137 19.6274 7.76292C19.379 7.51447 19.0698 7.33544 18.7306 7.24365C17.489 6.90503 12.4919 6.90503 12.4919 6.90503C12.4919 6.90503 7.49451 6.91528 6.25289 7.2539C5.91373 7.3457 5.60454 7.52474 5.3561 7.7732C5.10766 8.02166 4.92865 8.33087 4.83689 8.67003C4.46132 10.8762 4.31564 14.2378 4.8472 16.3557C4.93897 16.6948 5.11799 17.004 5.36643 17.2524C5.61486 17.5009 5.92405 17.6799 6.2632 17.7717C7.50482 18.1103 12.5021 18.1103 12.5021 18.1103C12.5021 18.1103 17.4993 18.1103 18.7408 17.7717C19.08 17.6799 19.3892 17.5009 19.6376 17.2525C19.8861 17.004 20.0651 16.6948 20.1569 16.3557C20.553 14.1464 20.6751 10.7868 20.1466 8.65972Z" fill="white"/>
<path d="M10.9023 14.9085L15.0478 12.5073L10.9023 10.1062V14.9085Z" fill="#FF0000"/>
</g>
<defs>
<clipPath id="clip0_2009_946">
<rect width="16" height="11.25" fill="white" transform="translate(4.5 6.90503)"/>
</clipPath>
</defs>
</svg>
