<svg width="24" height="16" viewBox="0 0 24 16" fill="none" xmlns="http://www.w3.org/2000/svg">
<path d="M12.7672 2.00202L10.685 3.97461C10.3386 3.6469 9.94062 3.37847 9.50698 3.18009C8.83016 2.88674 8.09327 2.75859 7.35716 2.80623C6.62104 2.85387 5.90681 3.07591 5.27345 3.45406C4.55714 3.88665 3.96307 4.49488 3.54745 5.22118C3.12558 5.95477 2.90358 6.78619 2.90358 7.63244C2.90358 8.47869 3.12558 9.31013 3.54745 10.0437C3.96085 10.7681 4.55568 11.3724 5.27345 11.7972C5.98946 12.2249 6.80928 12.4476 7.64331 12.441C8.48707 12.4634 9.32093 12.255 10.0549 11.8382C10.6172 11.5131 11.0884 11.0514 11.4248 10.4958C11.7022 10.0931 11.8891 9.63511 11.9727 9.15333H7.644V6.52322H14.8501C14.9392 6.94633 14.976 7.37877 14.9597 7.81086C14.9843 9.15093 14.6685 10.4754 14.0419 11.6602C13.4476 12.765 12.5551 13.6808 11.4659 14.3033C10.2891 14.9442 8.96821 15.2742 7.62826 15.2622C6.28831 15.2503 4.97357 14.8966 3.80841 14.2348C2.66226 13.573 1.7085 12.6237 1.04131 11.4807C0.35144 10.3108 -0.00834411 8.97582 0.000229921 7.61772C-0.0104287 6.268 0.349681 4.94124 1.04131 3.78214C1.7085 2.63911 2.66226 1.68985 3.80841 1.02806C4.97044 0.344867 6.29607 -0.0102109 7.644 0.000667801C9.54725 -0.0250513 11.3854 0.693003 12.7672 2.00202ZM21.8083 4.35816V6.52253H24V8.71428H21.8083V10.8787H19.6165V8.71428H17.4521V6.52253H19.6165V4.35816H21.8083Z" fill="white"/>
</svg>
