<svg width="18" height="13" viewBox="0 0 18 13" fill="none" xmlns="http://www.w3.org/2000/svg">
<path d="M17.3571 10.9286H5.78571C5.4 10.9286 5.14286 11.1857 5.14286 11.5714C5.14286 11.9571 5.4 12.2143 5.78571 12.2143H17.3571C17.7429 12.2143 18 11.9571 18 11.5714C18 11.1857 17.7429 10.9286 17.3571 10.9286ZM1.28571 0C0.578571 0 0 0.578571 0 1.28571C0 1.99286 0.578571 2.57143 1.28571 2.57143C1.99286 2.57143 2.57143 1.99286 2.57143 1.28571C2.57143 0.578571 1.99286 0 1.28571 0ZM5.78571 1.92857H17.3571C17.7429 1.92857 18 1.67143 18 1.28571C18 0.9 17.7429 0.642857 17.3571 0.642857H5.78571C5.4 0.642857 5.14286 0.9 5.14286 1.28571C5.14286 1.67143 5.4 1.92857 5.78571 1.92857ZM17.3571 5.78571H5.78571C5.4 5.78571 5.14286 6.04286 5.14286 6.42857C5.14286 6.81429 5.4 7.07143 5.78571 7.07143H17.3571C17.7429 7.07143 18 6.81429 18 6.42857C18 6.04286 17.7429 5.78571 17.3571 5.78571ZM1.28571 5.14286C0.578571 5.14286 0 5.72143 0 6.42857C0 7.13571 0.578571 7.71429 1.28571 7.71429C1.99286 7.71429 2.57143 7.13571 2.57143 6.42857C2.57143 5.72143 1.99286 5.14286 1.28571 5.14286ZM1.28571 10.2857C0.578571 10.2857 0 10.8643 0 11.5714C0 12.2786 0.578571 12.8571 1.28571 12.8571C1.99286 12.8571 2.57143 12.2786 2.57143 11.5714C2.57143 10.8643 1.99286 10.2857 1.28571 10.2857Z" fill="#00375A"/>
</svg>
