<svg width="16" height="18" viewBox="0 0 16 18" fill="none" xmlns="http://www.w3.org/2000/svg">
<path fill-rule="evenodd" clip-rule="evenodd" d="M8.02432 0.66679C4.18347 0.653741 1.04624 3.70954 0.920849 7.53454L0.916992 7.77196C0.980833 9.64681 1.61872 11.434 2.74223 12.9064L3.00609 13.2508C4.07849 14.6143 5.35292 15.8112 6.78389 16.7977L7.12842 17.0296L7.1787 17.0691C7.66916 17.4215 8.33137 17.4215 8.82183 17.0691L8.86368 17.0347C9.99912 16.2983 11.0462 15.4331 11.984 14.4562C13.8908 12.4377 15.0401 10.1761 15.0835 7.87923L15.0836 7.79395C15.0966 3.94335 12.0502 0.796473 8.23696 0.670657L8.02432 0.66679ZM8.02004 1.93129C11.1688 1.94206 13.7253 4.45792 13.8203 7.591L13.8229 7.86725C13.7865 9.79294 12.7782 11.7771 11.0725 13.5827C10.2028 14.4886 9.22761 15.2939 8.16996 15.9788L8.09947 16.0318C8.04251 16.0812 7.95802 16.0812 7.90106 16.0318L7.83255 15.9801C6.25697 14.9514 4.87413 13.6526 3.7473 12.1432C2.83964 10.9536 2.30179 9.53123 2.19353 8.04748L2.17762 7.74996C2.18832 4.59358 4.69643 2.02922 7.81987 1.934L8.02004 1.93129ZM8.00027 5.16782C6.50994 5.16782 5.30179 6.3797 5.30179 7.87463C5.30179 9.36956 6.50994 10.5814 8.00027 10.5814C9.49059 10.5814 10.6987 9.36956 10.6987 7.87463C10.6987 6.3797 9.49059 5.16782 8.00027 5.16782ZM8.00027 6.43234C8.79437 6.43234 9.43811 7.07808 9.43811 7.87463C9.43811 8.67118 8.79437 9.31691 8.00027 9.31691C7.20616 9.31691 6.56242 8.67118 6.56242 7.87463C6.56242 7.07808 7.20616 6.43234 8.00027 6.43234Z" fill="#00375A"/>
</svg>
