<svg width="18" height="18" viewBox="0 0 18 18" fill="none" xmlns="http://www.w3.org/2000/svg">
<path fill-rule="evenodd" clip-rule="evenodd" d="M4.39656 0.669513L4.37285 0.667942C3.27548 0.616886 1.72691 1.93637 1.1547 2.89072C0.526873 3.74829 0.514802 4.88713 1.06307 6.20442L1.1495 6.40334C2.5942 9.96128 8.01535 15.3756 11.5594 16.8579C12.9154 17.4923 14.1239 17.5039 15.0761 16.8182C15.9133 16.3397 17.2863 14.7472 17.2466 13.6162C17.2089 13.1509 16.9926 12.771 16.6566 12.4252L16.5746 12.3437L16.3463 12.1327C15.5198 11.3936 14.0889 10.3414 13.6462 10.2483C13.1266 10.14 12.7742 10.237 12.2184 10.5435L12.0114 10.6612C11.6161 10.8891 11.4748 10.9281 11.2875 10.8598C9.3101 10.048 7.91571 8.6466 7.09858 6.63645C7.04546 6.48752 7.07173 6.35745 7.2436 6.04209L7.33416 5.88128C7.70879 5.22697 7.83438 4.85708 7.71638 4.28751L7.69555 4.2137C7.50199 3.65019 6.31568 2.06029 5.65699 1.36813L5.55087 1.26077C5.20758 0.923636 4.83011 0.706836 4.39656 0.669513ZM4.3041 1.88672L4.34929 1.8954C4.42838 1.91772 4.52164 1.97249 4.62666 2.06273L4.70315 2.13267L4.84752 2.28466C5.40757 2.90302 6.49256 4.36125 6.52845 4.53562C6.56236 4.69931 6.52486 4.83612 6.34715 5.15853L6.25417 5.3229C5.86284 6.00814 5.7417 6.44998 5.96658 7.07481C6.91587 9.4114 8.54972 11.0534 10.8511 11.9976C11.4447 12.2147 11.8654 12.1279 12.4616 11.8048L12.6658 11.6895C13.0703 11.4556 13.2184 11.4048 13.3986 11.4424C13.5748 11.4794 15.1512 12.6625 15.729 13.2185L15.7965 13.2856C15.9455 13.4391 16.027 13.5822 16.0358 13.6883C16.0438 13.9364 15.7953 14.4026 15.3567 14.9113C15.0444 15.2735 14.639 15.6438 14.4632 15.7666L14.4212 15.7938C13.8532 16.1991 13.1517 16.2166 12.2242 15.8213L12.0476 15.7424C8.84334 14.4016 3.80419 9.40674 2.3488 6.12347L2.26255 5.92055C1.81158 4.92306 1.77416 4.19382 2.09797 3.66324L2.16291 3.56607C2.53821 2.94464 3.66925 1.96584 4.23241 1.89049L4.3041 1.88672ZM11.0188 0.869629L11.1012 0.873226C14.376 1.23876 16.9622 3.83568 17.3302 7.12771C17.3676 7.46233 17.1282 7.76409 16.7953 7.8017C16.4625 7.83931 16.1623 7.59854 16.1249 7.26391C15.8202 4.53807 13.6789 2.38785 10.9674 2.08519C10.6345 2.04804 10.3946 1.74661 10.4316 1.41193C10.4624 1.13304 10.6757 0.919063 10.9386 0.876988L11.0188 0.869629ZM11.0685 3.75065L11.1503 3.76102C12.8239 4.08899 14.1318 5.40385 14.458 7.08648C14.5221 7.41699 14.3075 7.73715 13.9788 7.80157C13.65 7.86599 13.3316 7.65028 13.2675 7.31977C13.0358 6.12459 12.1071 5.19086 10.9183 4.9579C10.5895 4.89348 10.375 4.57332 10.439 4.24281C10.4924 3.96739 10.7225 3.77169 10.9879 3.75138L11.0685 3.75065Z" fill="#00375A"/>
</svg>
