<svg width="20" height="14" viewBox="0 0 20 14" fill="none" xmlns="http://www.w3.org/2000/svg">
<path fill-rule="evenodd" clip-rule="evenodd" d="M0.258321 5.90217C2.9512 2.04211 6.45641 0 9.98567 0C14.1257 0 17.6779 2.695 19.7677 5.92273L19.7689 5.92453C19.9198 6.15899 20 6.43192 20 6.71074C20 6.98896 19.9201 7.26131 19.7699 7.49542C17.6813 10.7656 14.1515 13.4203 9.98567 13.4203C5.7758 13.4203 2.31353 10.7707 0.230311 7.51051C0.0759121 7.27068 -0.00416693 6.99054 0.00016706 6.7053C0.00451315 6.41926 0.0935466 6.14094 0.256017 5.90549L0.258313 5.90216L0.258321 5.90217ZM1.60495 6.73046C3.50156 9.65938 6.50542 11.8421 9.98567 11.8421C13.4286 11.8421 16.4986 9.64701 18.3979 6.71123C16.4904 3.80495 13.396 1.57812 9.98567 1.57812C7.12558 1.57812 4.07878 3.22241 1.60495 6.73046Z" fill="#808080"/>
<path fill-rule="evenodd" clip-rule="evenodd" d="M10.0024 4.20971C8.62142 4.20971 7.50195 5.32919 7.50195 6.71013C7.50195 8.09108 8.62142 9.21056 10.0024 9.21056C11.3833 9.21056 12.5028 8.09108 12.5028 6.71013C12.5028 5.32919 11.3833 4.20971 10.0024 4.20971ZM5.92383 6.71013C5.92383 4.45762 7.74985 2.63159 10.0024 2.63159C12.2549 2.63159 14.0809 4.45762 14.0809 6.71013C14.0809 8.96265 12.2549 10.7887 10.0024 10.7887C7.74985 10.7887 5.92383 8.96265 5.92383 6.71013Z" fill="#808080"/>
</svg>
