<svg width="24" height="24" viewBox="0 0 24 24" fill="none" xmlns="http://www.w3.org/2000/svg">
<path d="M7 18.0001L12 15.0001L17 18.0001C17 18.0001 16 21.0001 12 21.0001C8 21.0001 7 18.0001 7 18.0001Z" fill="#FF6D70"></path>
<path d="M3.86032 11.3862C1.76466 12.2832 0 14.0001 0 14.0001C0 14.0001 3 16.0001 7 16.0001C7.93556 16.0001 9.08993 15.4531 10.0537 14.8708C8.56251 14.6631 7.32484 14.2157 6.30271 13.6068C5.25175 12.9807 4.45794 12.2013 3.86032 11.3862Z" fill="#FF6D70"></path>
<path d="M13.9464 14.8708C14.9101 15.4531 16.0645 16.0001 17 16.0001C21 16.0001 24 14.0001 24 14.0001C24 14.0001 22.2045 12.3396 20.0823 11.464C19.4915 12.2509 18.715 13.0007 17.6976 13.6068C16.6754 14.2157 15.4376 14.6631 13.9464 14.8708Z" fill="#FF6D70"></path>
<path d="M9.5 8.0001C9.5 10.2274 11.0957 12.7255 11.7374 13.64C11.8679 13.826 12.1321 13.826 12.2626 13.64C12.9043 12.7255 14.5 10.2274 14.5 8.0001C14.5 5.77281 12.9043 3.27473 12.2626 2.36016C12.1321 2.17422 11.8679 2.17422 11.7374 2.36016C11.0957 3.27473 9.5 5.77281 9.5 8.0001Z" fill="#FF6D70"></path>
<path d="M8.57774 7.02792C6.94698 5.37004 3.03052 5.98491 3.03052 5.98491C3.03052 5.98491 3.03037 13.2258 10.7324 13.943C10.3864 13.4284 9.90142 12.6473 9.47339 11.7386C8.96871 10.6671 8.5 9.32888 8.5 8.00021C8.5 7.67534 8.52802 7.34989 8.57774 7.02792Z" fill="#FF6D70"></path>
<path d="M13.2676 13.9431C20.9699 13.226 20.9699 5.98491 20.9699 5.98491C20.9699 5.98491 17.053 5.36998 15.4223 7.02816C15.472 7.35006 15.5 7.67542 15.5 8.00021C15.5 9.32888 15.0313 10.6671 14.5266 11.7386C14.0986 12.6473 13.6136 13.4284 13.2676 13.9431Z" fill="#FF6D70"></path>
<path d="M9.5264 8.51065C9.95269 9.31884 10.3521 10.2139 10.7072 11.0096C11.2759 12.2837 11.7308 13.3031 12.0001 13.3031C12.2694 13.3031 12.7242 12.2839 13.2928 11.01C13.6478 10.2143 14.0473 9.31931 14.4736 8.5111C14.2633 10.5975 12.8556 12.7949 12.2626 13.64C12.1321 13.826 11.8679 13.826 11.7374 13.64C11.1443 12.7948 9.73647 10.5972 9.5264 8.51065Z" fill="#FF6D70"></path>
</svg>