<svg width="24" height="24" viewBox="0 0 24 24" fill="none" xmlns="http://www.w3.org/2000/svg">
<path fill-rule="evenodd" clip-rule="evenodd" d="M5.34671 13.5646L3.5 17.9967L6 18.879L8.299 16.0004C9.05802 15.0501 10.2082 14.4967 11.4245 14.4967H12.5755C13.7918 14.4967 14.942 15.0501 15.701 16.0004L18 18.879L20.5 17.9967L18.3961 12.0357C17.8185 10.399 17.8554 8.60818 18.5 6.99667L20.3164 7.90488C21.0232 8.25829 21.8769 8.11976 22.4357 7.56096C23.0545 6.94212 23.1506 5.97251 22.6651 5.24432L20.1325 1.44537C19.7974 0.942734 19.0965 0.849695 18.6419 1.2475L17.7198 2.05438C16.254 3.33696 15.052 4.89274 14.1809 6.63483L14 6.99667V9C14 9.55228 13.5523 10 13 10H10.721C10.2905 10 9.90824 9.72441 9.77222 9.31591L9 6.99667H7.68662C5.92082 6.99667 4.71337 8.7801 5.36918 10.4196C5.77352 11.4305 5.76546 12.5596 5.34671 13.5646ZM12 20.4967C8.01045 20.4967 4.0209 18.905 2.57134 18.2617C2.25182 18.1199 1.87327 18.2501 1.71693 18.5628C1.58894 18.8188 1.64716 19.1255 1.87255 19.3019C3.06705 20.2367 7.01602 22.9967 12 22.9967C16.9981 22.9967 21.6493 20.221 23.0632 19.294C23.3199 19.1257 23.3994 18.7954 23.2621 18.5209C23.1145 18.2257 22.7656 18.093 22.4572 18.2107C20.8716 18.8159 16.0997 20.4967 12 20.4967ZM6 6.99667H3C1.89543 6.99667 1 7.8921 1 8.99667V11.9967H1.10182C2.19717 11.9967 3.13198 11.2048 3.31206 10.1243C3.43307 9.39822 3.81788 8.74237 4.39269 8.28252L6 6.99667Z" fill="#FF6D70"></path>
</svg>