<svg width="24" height="24" viewBox="0 0 24 24" fill="none" xmlns="http://www.w3.org/2000/svg">
<path fill-rule="evenodd" clip-rule="evenodd" d="M9.5 1H14.5V2.35177C16.1452 2.8265 17.5967 3.75797 18.7083 5H22V7C22 7.84187 21.4798 8.56226 20.7434 8.85729C20.9111 9.54401 21 10.2616 21 11C21 11.6874 20.9229 12.3568 20.777 13H22V15C22 16.1046 21.1046 17 20 17H19C18.9067 17 18.8149 16.9936 18.725 16.9813C18.0376 17.7536 17.2192 18.4067 16.3046 18.9058C16.3494 18.9666 16.3881 19.0336 16.4191 19.1061L17.6594 22H19C19.5523 22 20 22.4477 20 23C20 23.5523 19.5523 24 19 24H17H7H5C4.44772 24 4 23.5523 4 23C4 22.4477 4.44772 22 5 22H6.3406L7.58085 19.1061C7.61193 19.0336 7.65056 18.9666 7.69543 18.9058C6.78082 18.4067 5.96236 17.7536 5.27495 16.9813C5.18507 16.9936 5.09328 17 5 17H4C2.89543 17 2 16.1046 2 15V13H3.22302C3.07706 12.3568 3 11.6874 3 11C3 10.2616 3.08892 9.54401 3.25663 8.85729C2.52016 8.56226 2 7.84187 2 7V5H5.29168C6.40332 3.75797 7.85482 2.8265 9.5 2.35177V1ZM9.48964 19.6452C9.4773 19.729 9.45405 19.8125 9.41915 19.8939L8.51654 22H15.4835L14.5809 19.8939C14.5459 19.8125 14.5227 19.729 14.5104 19.6452C14.4673 19.6577 14.4241 19.6699 14.3808 19.6817C14.102 20.4506 13.3652 21 12.5 21H11.5C10.6348 21 9.89796 20.4506 9.6192 19.6817C9.57588 19.6699 9.5327 19.6577 9.48964 19.6452ZM9.97726 4.29669C8.83416 4.64115 7.81432 5.27001 7 6.10102V7C7 8.00385 6.26042 8.83497 5.29641 8.97819C5.10362 9.6183 5 10.297 5 11C5 11.695 5.10128 12.3663 5.28988 13H7V15C7 15.2642 6.94877 15.5164 6.85571 15.7473C7.58082 16.5326 8.4835 17.1516 9.5 17.5404V17H14.5V17.5404C15.5165 17.1516 16.4192 16.5326 17.1443 15.7473C17.0512 15.5164 17 15.2642 17 15V13H18.7101C18.8987 12.3663 19 11.695 19 11C19 10.297 18.8964 9.6183 18.7036 8.97819C17.7396 8.83497 17 8.00385 17 7V6.10102C16.1857 5.27001 15.1658 4.64115 14.0227 4.29669C13.6559 4.72707 13.1098 5 12.5 5H11.5C10.8902 5 10.3441 4.72707 9.97726 4.29669ZM15 11C15 12.6569 13.6569 14 12 14C10.3431 14 9 12.6569 9 11C9 9.34315 10.3431 8 12 8C13.6569 8 15 9.34315 15 11Z" fill="#FF6D70"></path>
</svg>