<svg width="24" height="24" viewBox="0 0 24 24" fill="none" xmlns="http://www.w3.org/2000/svg">
<path d="M18 8V8C16.3431 8 15 6.65685 15 5V5C15 3.34315 16.3431 2 18 2V2C19.6569 2 21 3.34315 21 5V5C21 6.65685 19.6569 8 18 8V8ZM18 8V21M18 21H16M18 21H20" stroke="#FF6D70" stroke-width="2" stroke-linecap="round" stroke-linejoin="round"></path>
<path d="M8.99995 1C7.3431 1 5.99995 2.34315 5.99995 4V4.5C5.99995 6.15685 7.3431 7.5 8.99995 7.5H7.08271L6.17355 7.34847C5.22681 7.19068 4.41271 6.58941 3.98347 5.73093L2.8944 3.55279C2.64741 3.05881 2.04674 2.85858 1.55276 3.10557C1.05878 3.35256 0.858558 3.95324 1.10555 4.44721L2.19462 6.62536C2.91002 8.05616 4.26684 9.05827 5.84475 9.32126L5.92691 9.33495L5.5034 14.417C5.5011 14.4446 5.49995 14.4723 5.49995 14.5V15.5C5.49995 15.5302 5.50132 15.5604 5.50406 15.5905L6.00406 21.0905C6.05406 21.6406 6.54047 22.0459 7.09049 21.9959C7.6405 21.9459 8.04585 21.4595 7.99584 20.9095L7.59498 16.5H10.4049L10.0041 20.9095C9.95406 21.4595 10.3594 21.9459 10.9094 21.9959C11.4594 22.0459 11.9458 21.6406 11.9958 21.0905L12.4958 15.5905C12.4986 15.5604 12.5 15.5302 12.5 15.5V14.5C12.5 14.4723 12.4988 14.4446 12.4965 14.417L12.3332 12.4578L13.6563 14.5369C13.9528 15.0028 14.5709 15.1402 15.0368 14.8437C15.5028 14.5472 15.6401 13.9291 15.3436 13.4631L11.8436 7.96312C11.6601 7.67468 11.3419 7.5 11 7.5H8.99995C10.6568 7.5 12 6.15685 12 4.5V4C12 2.34315 10.6568 1 8.99995 1Z" fill="#FF6D70"></path>
</svg>