<svg width="24" height="24" viewBox="0 0 24 24" fill="none" xmlns="http://www.w3.org/2000/svg">
<path fill-rule="evenodd" clip-rule="evenodd" d="M16.2413 8.80948L15.3955 6.34499C15.2642 5.96217 14.9041 5.70508 14.4994 5.70508H6.72181C6.26632 5.70508 5.87529 6.0292 5.79079 6.47679L5.38538 8.62437C5.33031 8.91608 5.55403 9.18599 5.85089 9.18599H15.9725C16.1676 9.18599 16.3047 8.99398 16.2413 8.80948ZM12.7443 6.56592C13.1585 6.56592 13.4943 6.9017 13.4943 7.31592C13.4943 7.73013 13.1585 8.06592 12.7443 8.06592H11.4943C11.08 8.06592 10.7443 7.73013 10.7443 7.31592C10.7443 6.9017 11.08 6.56592 11.4943 6.56592H12.7443ZM8.99426 6.56592C9.40848 6.56592 9.74426 6.9017 9.74426 7.31592C9.74426 7.73013 9.40848 8.06592 8.99426 8.06592H7.74426C7.33005 8.06592 6.99426 7.73013 6.99426 7.31592C6.99426 6.9017 7.33005 6.56592 7.74426 6.56592H8.99426Z" fill="#FF6D6A"></path>
<path fill-rule="evenodd" clip-rule="evenodd" d="M19.5849 11.5912L18.949 10.5956C18.7749 10.3231 18.4739 10.1582 18.1505 10.1582H4.42269C4.01756 10.1582 3.65726 10.4158 3.52619 10.7991L2.50329 13.7907C2.39818 14.0981 2.62665 14.4177 2.95154 14.4177H12.8827C13.1414 14.4177 13.3888 14.3119 13.5676 14.1249L15.2919 12.3212C15.4707 12.1342 15.7181 12.0284 15.9768 12.0284H19.3454C19.5699 12.0284 19.7058 11.7804 19.5849 11.5912ZM10.7443 11.3032C11.1585 11.3032 11.4943 11.639 11.4943 12.0532C11.4943 12.4674 11.1585 12.8032 10.7443 12.8032H9.49432C9.08011 12.8032 8.74432 12.4674 8.74432 12.0532C8.74432 11.639 9.08011 11.3032 9.49432 11.3032H10.7443ZM6.99432 11.3032C7.40854 11.3032 7.74432 11.639 7.74432 12.0532C7.74432 12.4674 7.40854 12.8032 6.99432 12.8032H5.74432C5.33011 12.8032 4.99432 12.4674 4.99432 12.0532C4.99432 11.639 5.33011 11.3032 5.74432 11.3032H6.99432Z" fill="#FF6D6A"></path>
<path fill-rule="evenodd" clip-rule="evenodd" d="M2.5813 20.1633L1.09291 17.0326C0.794016 16.4039 1.25246 15.6783 1.94859 15.6783H13.4447C13.696 15.6783 13.937 15.5785 14.1147 15.4008L15.9489 13.5666C16.1266 13.3889 16.3676 13.2891 16.6189 13.2891H22.5407C23.154 13.2891 23.5944 13.8603 23.3926 14.4394C22.6667 16.5221 20.7625 20.704 17.1739 20.704H3.43338C3.06772 20.704 2.7383 20.4936 2.5813 20.1633ZM5.71284 18.9619L4.77976 18.9619C4.36555 18.9619 4.02976 18.6261 4.02976 18.2119C4.02976 17.7977 4.36555 17.4619 4.77976 17.4619L5.71284 17.4619C6.12705 17.4619 6.46284 17.7977 6.46284 18.2119C6.46284 18.6261 6.12705 18.9619 5.71284 18.9619ZM9.44514 18.9619H7.57899C7.16477 18.9619 6.82899 18.6261 6.82899 18.2119C6.82899 17.7977 7.16477 17.4619 7.57899 17.4619H9.44514C9.85935 17.4619 10.1951 17.7977 10.1951 18.2119C10.1951 18.6261 9.85935 18.9619 9.44514 18.9619ZM12.2444 18.9619H11.3113C10.8971 18.9619 10.5613 18.6261 10.5613 18.2119C10.5613 17.7977 10.8971 17.4619 11.3113 17.4619H12.2444C12.6586 17.4619 12.9944 17.7977 12.9944 18.2119C12.9944 18.6261 12.6586 18.9619 12.2444 18.9619Z" fill="#FF6D6A"></path>
<path d="M12.095 4.47373C12.095 4.2121 11.8829 4 11.6213 4H10.6738C10.4122 4 10.2001 4.2121 10.2001 4.47373V5.89493H12.095V4.47373Z" fill="#FF6D6A"></path>
<path d="M9.25256 4.47373C9.25256 4.2121 9.04047 4 8.77883 4H7.83137C7.56973 4 7.35763 4.2121 7.35763 4.47373V5.89493H9.25256V4.47373Z" fill="#FF6D6A"></path>
</svg>