<svg xmlns="http://www.w3.org/2000/svg" width="16" height="18" viewBox="0 0 16 18" fill="none">
<path fill-rule="evenodd" clip-rule="evenodd" d="M8.02402 0.666729C4.18316 0.65368 1.04593 3.70948 0.920544 7.53448L0.916687 7.7719C0.980528 9.64675 1.61841 11.4339 2.74192 12.9064L3.00579 13.2507C4.07819 14.6143 5.35261 15.8111 6.78358 16.7976L7.12812 17.0295L7.17839 17.069C7.66885 17.4214 8.33107 17.4214 8.82153 17.069L8.86337 17.0346C9.99881 16.2983 11.0459 15.433 11.9837 14.4561C13.8905 12.4377 15.0398 10.1761 15.0832 7.87917L15.0833 7.79389C15.0963 3.94329 12.0499 0.796412 8.23665 0.670596L8.02402 0.666729ZM8.01974 1.93123C11.1685 1.942 13.725 4.45786 13.8199 7.59094L13.8226 7.86719C13.7862 9.79288 12.7779 11.7771 11.0722 13.5826C10.2025 14.4886 9.22731 15.2938 8.16965 15.9787L8.09916 16.0317C8.0422 16.0811 7.95772 16.0811 7.90076 16.0317L7.83224 15.98C6.25666 14.9513 4.87383 13.6525 3.74699 12.1431C2.83934 10.9535 2.30148 9.53117 2.19322 8.04742L2.17732 7.7499C2.18801 4.59352 4.69612 2.02916 7.81956 1.93394L8.01974 1.93123ZM7.99996 5.16776C6.50963 5.16776 5.30148 6.37964 5.30148 7.87457C5.30148 9.3695 6.50963 10.5814 7.99996 10.5814C9.49029 10.5814 10.6984 9.3695 10.6984 7.87457C10.6984 6.37964 9.49029 5.16776 7.99996 5.16776ZM7.99996 6.43228C8.79406 6.43228 9.43781 7.07802 9.43781 7.87457C9.43781 8.67112 8.79406 9.31685 7.99996 9.31685C7.20586 9.31685 6.56211 8.67112 6.56211 7.87457C6.56211 7.07802 7.20586 6.43228 7.99996 6.43228Z" fill="#686868"/>
</svg>