<svg xmlns="http://www.w3.org/2000/svg" width="217" height="226" viewBox="0 0 217 226" fill="none">
<path d="M183.585 110.833C180.965 109.938 178.424 108.816 175.827 107.864C171.831 106.389 167.848 104.899 163.807 103.552C160.977 102.619 158.081 101.899 155.193 101.122C149.433 99.569 143.591 98.3683 137.678 97.4918C136.108 97.2593 134.524 97.1803 132.916 97.1585C134.206 97.8705 135.634 98.0592 137.034 98.2639C143.169 99.1363 149.099 100.911 155.123 102.305C161.359 103.75 167.365 105.935 173.37 108.119C178.677 110.055 183.877 112.208 189.158 114.506C188.788 115.242 188.087 115.133 187.603 115.131C180.578 115.05 173.519 114.904 166.657 113.246C158.679 111.319 150.723 109.321 142.831 107.082C139.274 106.07 135.85 104.479 132.448 102.983C129.133 101.536 125.947 99.8146 122.655 98.31C121.721 97.8875 120.624 97.672 119.581 97.6182C117.774 97.5296 115.958 97.6632 114.158 97.6571C113.534 97.6523 112.9 97.51 112.27 97.4228C111.631 98.0837 110.939 97.7385 110.245 97.5456C110.088 97.6553 109.936 97.8337 109.758 97.862C109.663 97.8836 109.522 97.6736 109.402 97.5587C109.497 97.5372 109.605 97.5007 109.703 97.5204C109.899 97.546 110.097 97.5992 110.294 97.6386C110.926 96.8951 111.618 97.2403 112.304 97.503C112.648 97.309 112.97 97.006 113.325 96.9495C115.007 96.6884 116.697 96.3711 118.393 96.2888C125.096 95.98 131.8 95.6848 138.501 95.5284C144.29 95.3906 149.972 96.3137 155.566 97.7006C159.183 98.5975 162.802 99.5219 166.386 100.532C172.265 102.187 177.806 104.616 182.912 107.995C185.223 109.524 187.546 111.024 189.844 112.554C190.18 112.776 190.404 113.145 190.691 113.44C191.576 113.604 192.463 113.781 193.953 114.061C192.828 112.99 192.226 112.236 191.466 111.73C187.359 109.059 183.288 106.317 179.049 103.892C174.882 101.504 170.363 99.8909 165.833 98.3206C159.651 96.1785 153.308 94.9492 146.847 94.1448C140.051 93.2985 133.231 93.5337 126.431 93.6705C116.715 93.8641 107.115 95.308 97.6557 97.4741C95.4948 97.968 93.6218 97.7463 91.8699 96.6288C90.0001 95.424 88.1891 94.0898 86.5193 92.6195C84.8209 91.1378 83.1016 89.7408 81.1917 88.553C80.2877 87.9896 79.3837 87.4262 78.5165 86.8045C78.2076 86.5804 78.0102 86.195 77.7005 85.791C79.0311 85.1292 80.3019 85.0953 81.5489 84.9387C88.1107 84.0875 94.7012 83.7601 101.306 84.1236C107.036 84.4475 112.806 84.422 118.477 85.5536C121.615 86.1847 124.771 86.6899 127.896 87.3222C134.889 88.7201 141.906 90.0608 148.859 91.642C155.008 93.0393 161.222 93.8775 167.459 94.6448C174.994 95.5557 182.558 94.9416 190.075 94.0959C190.707 94.0308 191.329 93.8557 191.925 93.6828C192.087 93.6419 192.177 93.3854 192.378 93.1337C191.7 92.2752 190.677 91.9568 189.709 91.6339C186.59 90.5582 183.481 89.4263 180.307 88.535C173.848 86.7199 167.332 85.0755 160.862 83.3029C148.618 79.9779 136.246 77.3001 123.605 75.9039C117.109 75.1853 110.663 75.0719 104.183 76.0825C98.4969 76.9733 92.8354 78.0005 87.3624 79.8154C86.554 80.0886 85.7251 80.2805 84.8952 80.4586C81.4697 81.2351 78.0398 81.9566 74.8263 83.2972C73.4699 82.1061 72.1636 81.0216 70.9469 79.8469C69.6719 78.6353 68.0077 77.746 67.4467 75.9504C67.689 75.6954 67.812 75.5055 67.9967 75.3935C73.0436 72.4228 78.1076 69.4922 83.1385 66.4951C85.3827 65.15 87.6547 64.1488 90.3674 64.4823C91.4156 64.6049 92.4987 64.4754 93.5595 64.5831C99.0595 65.1471 104.563 65.7524 110.066 66.3576C112.287 66.6064 114.502 66.9389 116.722 67.1739C121.693 67.6978 126.673 68.1656 131.657 68.6884C138.61 69.4114 145.478 69.1029 152.254 67.3069C155.344 66.4884 158.474 65.8191 161.508 64.8252C165.243 63.6082 168.902 62.1207 172.596 60.7272C172.985 60.5848 173.365 60.3186 173.631 60.0064C173.883 59.709 173.973 59.2726 174.157 58.8147C173.692 58.5479 173.35 58.2572 172.969 58.1636C169.762 57.3719 166.566 56.5378 163.328 55.8731C158.529 54.9061 153.669 54.2071 148.892 53.1691C142.114 51.6983 135.282 50.5918 128.363 50.1153C118.884 49.4729 109.684 50.912 100.74 54.1299C97.5393 55.2896 94.3433 56.5042 91.1257 57.6238C88.0972 58.6864 85.184 59.975 82.4407 61.6512C81.1752 62.4323 79.8651 63.1755 78.5174 63.7971C75.9814 64.9581 73.6157 66.3407 71.4177 68.0835C69.4665 69.6262 67.3636 70.8352 64.6955 70.5396C64.1789 70.4846 63.6444 70.7218 63.1174 70.7092C61.118 70.6362 59.0827 70.8015 57.1698 69.9185C53.1003 68.0479 49.1044 66.0605 45.3846 63.5523C42.9978 61.9465 40.5259 60.486 38.1023 58.9385C37.7086 58.6936 37.0682 58.6487 37.0822 57.9693C37.2647 57.8299 37.4141 57.6239 37.5907 57.5819C45.9658 55.3654 54.3649 54.808 62.8197 57.1532C65.4822 57.8923 68.1793 58.5454 70.8938 59.0726C74.6071 59.7955 78.3452 59.6304 81.9423 58.4109C88.1274 56.3306 94.0274 53.6367 99.334 49.7727C101.4 48.2761 103.542 46.8701 105.624 45.3998C106.016 45.1188 106.299 44.6805 106.846 44.0824C106.153 43.9033 105.78 43.7398 105.391 43.7298C103.474 43.6501 101.564 43.6529 99.6452 43.5457C92.4124 43.1224 85.1851 42.7678 77.9487 42.9816C77.5339 42.9876 77.1101 42.8835 76.6908 42.8345C76.473 42.8799 76.2415 42.9264 76.4455 42.8821C76.2496 42.8565 76.4879 42.8925 76.7399 42.9274C77.0572 41.8911 78.0482 41.9906 78.7934 41.7917C83.4391 40.5286 87.949 38.958 92.2403 36.7408C93.555 36.0527 94.9473 35.469 96.3451 34.954C100.657 33.3304 104.623 31.0288 108.638 28.8201C109.195 28.5119 109.717 28.1234 110.196 27.7108C110.468 27.4811 110.602 27.0964 110.968 26.4853C109.178 26.4368 107.712 26.4451 106.264 26.3412C100.525 25.9073 94.7886 25.5009 89.0674 24.941C80.4571 24.0896 71.8497 23.9579 63.2299 24.8653C61.3217 25.0618 59.4067 25.1757 57.4839 25.1934C50.2913 25.2652 43.6308 27.2872 37.309 30.5829C36.0873 31.222 34.8017 31.7555 33.564 32.3682C31.3823 33.4589 29.1708 34.5245 27.0393 35.7219C24.5235 37.1305 22.0043 38.4979 19.1475 39.1174C17.6927 39.4432 16.2767 39.9042 14.8446 40.3389C10.4405 41.6793 6.10588 42.1697 1.84268 39.7887C0.827516 39.2205 -0.321062 38.8846 -1.39493 38.4458C-5.33208 36.8412 -9.28296 35.2378 -13.2338 33.6343C-14.5081 33.1148 -15.7674 32.608 -17.384 31.964C-16.6109 31.5967 -16.1612 31.3387 -15.6921 31.1484C-11.5052 29.521 -7.2 28.327 -2.83903 27.3085C1.6446 26.2662 6.18551 25.7591 10.7938 25.911C18.5656 26.1521 26.3362 26.3795 34.1093 25.956C41.8 25.5393 49.3717 24.5093 56.8555 22.7388C61.5685 21.6225 66.0067 19.8501 70.1039 17.2888C74.6234 14.4716 79.047 11.4961 83.5025 8.57335C83.7263 8.4306 83.837 8.08937 83.999 7.86856C83.6663 7.00962 83.0244 7.11709 82.3873 7.11344C77.388 7.09019 72.3772 7.09556 67.3724 7.00355C54.1326 6.76338 40.9651 7.58325 27.8642 9.39444C17.8844 10.7723 8.23555 13.3275 -0.839968 17.8297C-7.44127 21.0928 -13.8827 24.6198 -20.0799 28.5975C-20.6192 28.9459 -21.1596 29.2805 -21.684 29.6414C-22.3393 30.0961 -23.0362 30.208 -23.8011 29.9933C-26.1533 29.3259 -28.518 28.6735 -30.8724 27.9787C-31.2274 27.8691 -31.7418 27.8416 -31.7114 27.0224C-30.9956 26.6321 -30.2062 26.125 -29.3666 25.7246C-26.7686 24.4754 -24.1523 23.2801 -21.5532 22.0447C-16.3836 19.5624 -12.1006 15.8785 -8.12172 11.8593C-6.63808 10.3545 -5.41278 8.56614 -4.24139 6.79602C-3.36547 5.47901 -2.54082 4.0416 -2.60716 2.37197C-2.62431 1.81962 -2.98752 1.26768 -3.1686 0.742514C-5.85139 1.45868 -11.0307 3.65111 -13.0191 4.90616C-13.1775 5.00208 -13.2547 5.24367 -13.3651 5.41875L-13.4131 5.33959C-12.1348 5.56805 -11.2425 4.62348 -10.1338 4.29813C-8.83473 3.92964 -7.71081 2.93859 -6.23107 3.26143C-5.93938 2.421 -5.22873 2.30793 -4.48385 2.27513C-5.03908 3.10928 -5.03907 3.10927 -6.26417 3.19489C-6.28675 4.11038 -7.09737 4.35615 -7.68943 4.73646C-10.254 6.3982 -12.9099 7.95664 -15.4276 9.68379C-17.4208 11.05 -19.2873 12.6135 -21.1857 14.1243C-21.4715 14.3551 -21.5574 14.8328 -21.7495 15.1945L-21.7985 15.1015C-19.7607 13.7732 -17.7526 12.4197 -15.6828 11.1442C-13.2446 9.63114 -10.7574 8.21102 -8.30437 6.7106C-7.15703 6.00835 -6.05544 5.25443 -4.43645 4.22318C-4.89798 5.18815 -5.06631 5.67249 -5.32273 6.09476C-9.58272 12.9608 -15.3951 18.0978 -22.6866 21.5553C-25.6596 22.9595 -28.7148 24.2043 -31.7529 25.4892C-32.0866 25.6409 -32.4877 25.6457 -33.25 25.8045C-32.8988 25.0147 -32.7454 24.5177 -32.4879 24.1092C-30.4416 21.0083 -28.3073 17.9695 -25.7749 15.2306C-25.3683 14.7823 -25.1127 14.1801 -24.7964 13.6422L-24.7473 13.7351C-25.1822 14.0058 -25.6925 14.1995 -26.0381 14.5459C-27.1806 15.6492 -28.2922 16.7916 -29.3592 17.9718C-31.7092 20.5713 -34.0591 23.1708 -35.1207 26.6347C-35.1749 26.8191 -35.3849 26.9607 -35.5986 27.2273C-36.0305 27.1931 -36.5564 27.1943 -37.0616 27.1107C-40.1943 26.5483 -43.2991 25.8175 -46.4459 25.4224C-50.4324 24.9154 -54.4489 24.5494 -58.4625 24.3907C-60.7265 24.2977 -63.0946 24.1162 -65.2636 25.1921L-65.3265 25.1003C-64.7009 25.1325 -64.0687 25.2473 -63.4509 25.1833C-59.8269 24.806 -56.2386 25.0131 -52.6591 25.6223C-50.2457 26.0216 -47.8136 26.3087 -45.4024 26.6805C-43.6224 26.9512 -41.8367 27.2907 -40.0544 27.589C-38.3844 27.8687 -36.6809 28.0488 -35.0327 28.3995C-33.4831 28.7305 -31.9164 29.1017 -30.4578 29.6754C-29.1137 30.2031 -27.7365 30.7973 -26.3867 32.4181C-28.2248 31.9444 -29.5521 31.623 -30.8817 31.2741C-35.2976 30.0822 -39.6937 28.7918 -44.2879 28.4726C-45.2342 28.411 -46.1917 28.2119 -47.1125 27.9544C-52.6929 26.4002 -58.3958 25.8942 -64.1622 26.1409C-64.6859 26.1696 -65.2476 26.2429 -65.7412 26.1307C-66.1088 26.0359 -66.4151 25.6732 -66.74 25.4227L-66.7058 25.503C-68.1216 25.2857 -69.3835 25.4297 -70.3252 26.9596C-69.6553 27.196 -69.1758 27.4754 -68.6741 27.5178C-66.7631 27.6948 -64.8556 27.8307 -62.9503 27.939C-60.5031 28.0726 -58.0001 27.8693 -55.6212 28.3545C-50.6103 29.3735 -45.6607 30.6606 -40.733 32.0186C-38.2972 32.6929 -36.3539 34.2932 -35.2646 36.6274C-33.7384 39.9089 -32.359 43.2577 -30.8994 46.5723C-30.5425 47.3877 -30.448 48.2107 -30.7248 49.0637C-31.6716 51.8954 -32.505 54.7594 -33.6235 57.5219C-35.7776 62.8741 -37.563 68.3349 -38.7381 73.9814C-40.4121 82.0079 -39.5586 89.6216 -35.2265 96.7729C-32.6848 100.969 -30.4081 105.311 -28.012 109.587C-27.7038 110.144 -27.3555 110.683 -26.9819 111.193C-26.8882 111.323 -26.5916 111.396 -26.4139 111.368C-26.2363 111.34 -26.0148 111.169 -25.9594 110.999C-25.8442 110.713 -25.7874 110.39 -25.7718 110.07C-25.6959 100.263 -24.7711 90.5113 -24.0559 80.7354C-23.6357 74.9979 -23.2706 69.2648 -23.6273 63.5073C-24.2376 53.6036 -26.4736 44.1365 -31.256 35.3606C-31.5002 34.9097 -31.6917 34.4269 -31.8936 33.9865C-31.7122 33.8333 -31.6386 33.7166 -31.5561 33.7099C-28.1826 33.6575 -25.2699 34.75 -23.2454 37.5203C-21.0495 40.526 -19.0613 43.7008 -16.8654 46.7064C-16.0713 47.791 -15.5947 48.8874 -15.4749 50.1928C-15.0983 54.6612 -15.0264 59.1268 -15.6902 63.5689C-16.3609 68.0947 -17.1566 72.6168 -17.7862 77.1393C-18.7845 84.2804 -18.4422 91.3956 -16.7521 98.4015C-14.1829 109.074 -9.39109 118.818 -3.90538 128.243C-3.79236 128.441 -3.38796 128.477 -2.98726 128.639C-2.83268 128.156 -2.67029 127.769 -2.60528 127.376C-2.17182 124.53 -1.76587 121.687 -1.33241 118.842C-0.326193 112.309 0.512777 105.763 0.932449 99.1668C1.30723 93.2115 1.69684 87.2688 1.43341 81.2961C1.04701 72.274 -0.63137 63.5368 -4.30906 55.2388C-5.52701 52.5137 -6.87802 49.8547 -8.65238 47.4378C-9.60182 46.1444 -10.6003 44.7581 -12.1381 44.2323C-13.8041 43.6616 -14.7297 42.4908 -15.6275 41.1517C-16.3368 40.088 -17.1643 39.1031 -17.9 38.0554C-18.1182 37.7547 -18.2194 37.3615 -18.4714 36.8144C-17.8942 36.9336 -17.5872 36.9641 -17.3021 37.0655C-11.1603 39.2248 -5.31329 42.017 0.43229 45.0944C3.87734 46.9466 6.03047 49.5957 6.88874 53.3468C7.72321 56.9752 8.57255 60.6162 9.25686 64.2706C9.98654 68.1428 10.362 72.0853 11.227 75.9189C11.8967 78.8823 11.5963 81.6615 10.5135 84.3519C7.64403 91.465 6.50856 98.9633 6.09716 106.513C5.70615 113.633 5.91322 120.787 6.61538 127.901C7.03808 132.255 7.76 136.543 9.15133 140.721C11.1837 146.827 13.9742 152.553 17.4311 157.962C20.413 162.634 23.2101 167.418 25.6367 172.413C25.8683 172.878 26.1676 173.325 26.5426 173.682C26.6627 173.797 27.0905 173.61 27.4734 173.551C27.4015 172.325 27.294 171.171 27.2689 170.01C27.1713 160.964 26.9901 151.912 27.0311 142.869C27.0621 133.702 26.5556 124.565 26.1454 115.42C25.8831 109.462 25.3595 103.524 24.382 97.6229C23.5098 92.3364 22.0838 87.2194 19.9011 82.33C19.2226 80.7932 18.3917 79.2548 17.3311 77.9566C16.4843 76.904 15.9159 75.8704 15.7685 74.5673C15.7202 74.1421 15.6305 73.7202 15.5558 73.311C14.2466 65.5405 12.9638 57.754 10.0107 50.3662C9.87161 50.0176 9.87936 49.6017 9.72798 48.5896C12.2557 50.2255 14.6706 50.9846 16.73 52.4786C19.406 54.407 21.9694 56.483 24.9178 58.0156C26.8831 59.0327 28.0415 60.6829 28.7851 62.8512C30.6449 68.196 31.9899 73.6794 33.7407 79.0469C34.7391 82.1359 34.7019 85.0875 34.0926 88.1548C33.9247 88.9852 33.743 89.8167 33.5338 90.6504C32.3992 95.0893 31.3905 99.5456 30.6658 104.09C29.8969 108.942 29.489 113.806 29.4865 118.721C29.5095 131.621 32.006 144.126 35.7439 156.406C37.8206 163.228 40.1551 169.988 42.3808 176.77C42.5448 177.255 42.8165 177.704 43.0344 178.171C44.0829 177.615 44.1242 177.612 44.0152 177.122C43.4116 174.292 43.0843 171.453 43.2646 168.559C43.9172 157.501 44.5709 146.456 45.1674 135.388C45.7172 125.28 45.8797 115.175 44.9352 105.077C44.3718 98.99 43.0714 93.0323 40.4901 87.497C39.1157 84.5492 38.3441 81.5248 37.7709 78.3874C37.0372 74.294 36.167 70.2256 34.5389 66.3709C34.4192 66.0899 33.9939 65.6261 34.5652 65.3306C37.7181 67.1649 40.8401 68.9602 43.9391 70.8128C44.9428 71.4096 45.9118 72.0923 46.8166 72.8356C48.7314 74.4244 50.1689 76.2734 50.5758 78.8982C51.6567 85.7321 52.8877 92.5399 54.0511 99.367C54.1348 99.8863 54.2218 100.447 54.1383 100.952C53.6242 103.998 53.1376 107.041 52.4689 110.058C51.9621 112.342 51.145 114.554 50.526 116.819C48.5089 124.029 47.0507 131.304 47.0393 138.836C47.0258 147.876 48.4302 156.65 51.4749 165.165C53.4239 170.586 55.3454 176.009 57.3472 181.397C58.4261 184.286 59.6404 187.136 60.8409 189.987C61.2171 190.87 61.7127 191.688 62.222 192.505C62.3648 192.729 62.8833 192.977 62.9877 192.9C63.2747 192.683 63.5493 192.314 63.6314 191.961C63.7239 191.566 63.5908 191.12 63.5975 190.691C63.65 181.107 63.6887 171.524 63.7698 161.952C63.7686 161.426 64.0172 160.908 64.2264 160.074C65.0404 163.109 65.6201 165.816 66.4831 168.432C68.1671 173.486 69.945 178.505 71.8044 183.504C73.3779 187.709 75.5913 191.613 77.8829 195.456C78.4275 196.367 79.0903 197.199 79.7795 198.015C79.9327 198.196 80.3955 198.27 80.6374 198.181C80.8794 198.092 81.2101 197.733 81.1923 197.513C81.1542 196.021 81.0474 194.534 80.9268 193.049C80.2111 184.746 80.3823 176.454 80.997 168.167C81.4015 162.749 82.0432 157.354 82.3504 151.93C83.2452 135.841 83.0354 119.786 80.4522 103.827C79.8393 100.028 79.0921 96.2819 77.8142 92.648C77.6161 92.0826 77.4855 91.498 77.3242 90.8743C77.6966 90.8579 77.9523 90.7679 78.0976 90.853C80.7224 92.661 83.3735 94.4531 85.9235 96.364C86.8376 97.0512 87.6204 97.9982 88.2246 98.9597C89.3677 100.763 90.5499 102.536 92.1223 104.001C92.7959 104.624 93.0888 105.334 92.9574 106.272C92.6112 108.488 92.3475 110.696 92.0013 112.912C91.0973 118.827 89.4453 124.567 88.1175 130.379C87.2385 134.215 86.3628 138.093 86.0302 142.01C85.163 152.131 85.6514 162.238 87.5288 172.233C89.2068 181.136 91.7275 189.846 94.1117 198.582C94.2504 199.097 94.4177 199.623 94.7021 200.057C94.9077 200.372 95.3515 200.724 95.6838 200.724C96.0024 200.726 96.4833 200.341 96.5963 200.027C97.0585 198.73 97.5048 197.406 97.7964 196.054C98.7664 191.462 99.7375 186.884 100.567 182.263C101.071 179.439 101.476 176.582 101.686 173.714C102.056 168.728 102.384 163.731 102.504 158.724C102.757 148.709 102.665 138.708 101.193 128.763C100.117 121.486 98.8518 114.252 96.4845 107.259C96.1736 106.33 96.1725 106.316 96.4151 104.87C98.5636 105.928 100.22 107.579 101.94 109.156C103.899 110.949 105.924 112.695 107.883 114.488C109.303 115.784 110.697 117.097 112.04 118.455C112.476 118.891 112.856 119.469 113.027 120.05C114.643 125.29 115.687 130.646 114.955 136.118C114.142 142.137 113.147 148.128 111.59 154.013C109.882 160.423 108.876 166.956 108.429 173.554C107.93 181.056 109.069 188.438 111.381 195.602C113.746 202.899 116.272 210.141 118.744 217.402C118.872 217.779 119.147 218.103 119.422 218.593C120.532 217.257 120.928 215.827 121.24 214.389C122.3 209.707 123.276 205.018 123.788 200.242C124.662 192.087 125.509 183.934 125.271 175.716C125.005 166.131 124.533 156.562 122.454 147.151C121.557 143.099 120.891 138.986 120.036 134.93C119.537 132.534 118.887 130.165 118.239 127.808C118.119 127.348 117.688 126.981 117.391 126.562L117.483 126.513C117.543 127.242 117.533 127.976 117.66 128.686C118.076 131.089 118.548 133.487 118.993 135.901C119.802 140.403 120.569 144.909 121.404 149.396C122.143 153.378 122.661 157.378 122.837 161.42C123.174 169.491 123.677 177.562 123.184 185.645C122.796 192.114 122.338 198.588 121.699 205.035C121.399 208.161 120.61 211.229 119.67 214.309C119.587 213.804 119.436 213.304 119.408 212.794C119.326 210.253 119.326 207.692 119.189 205.156C118.901 200.071 118.543 194.979 118.2 189.898C118.186 189.733 117.967 189.585 117.843 189.429L117.937 189.394C117.387 191.819 117.793 194.264 117.907 196.691C118.095 200.718 118.395 204.75 118.611 208.775C118.638 209.271 118.525 209.764 118.415 210.964C117.914 209.731 117.659 209.156 117.46 208.577C115.965 204.144 114.537 199.692 112.962 195.293C110.235 187.624 109.664 179.738 110.509 171.724C111.219 164.952 112.364 158.256 114.281 151.691C114.878 149.663 115.077 147.515 115.448 145.436C115.717 143.974 115.971 142.5 116.255 141.051C117.058 136.958 117.389 132.847 116.637 128.7C116.366 127.241 116.177 125.761 115.961 124.297C115.894 123.818 115.828 123.339 115.775 122.859L115.662 122.66L115.682 122.908C116.391 123.293 116.075 123.831 115.882 124.345C116.319 124.614 116.742 124.884 117.179 125.154L117.072 125.19C117.432 124.856 117.717 124.791 117.808 125.393L117.744 125.288C119.477 126.684 120.09 128.779 121.072 130.638C122.216 132.801 123.242 135.03 124.293 137.242C125.712 140.228 127.13 143.2 128.509 146.203C129.869 149.138 130.534 152.212 130.755 155.448C131.402 165.127 132.693 174.712 135.432 184.069C137.422 190.843 139.933 197.395 143.581 203.453C145.502 206.647 147.528 209.777 149.514 212.924C149.72 213.254 150.034 213.533 150.461 214.024C150.63 213.374 150.806 212.985 150.815 212.583C150.896 205.226 150.399 197.916 148.968 190.681C147.138 181.444 144.539 172.449 140.364 163.998C137.812 158.82 135.611 153.531 133.649 148.125C133.184 146.834 132.662 145.52 131.998 144.328C130.121 140.991 128.152 137.704 126.221 134.387C125.256 132.734 124.304 131.068 123.339 129.415L123.256 129.242L123.247 129.465C124.414 129.688 124.991 130.666 125.637 131.458C130.43 137.298 135.315 143.075 139.912 149.056C145.436 156.221 150.66 163.619 156.131 170.816C157.341 172.42 158.015 174.068 158.337 175.994C159.038 180.187 159.821 184.373 160.562 188.563C161.443 193.447 163.289 197.935 166.114 202.039C169.913 207.572 174.013 212.887 178.398 217.958C180.414 220.286 182.548 222.521 184.681 224.757C185.075 225.182 185.474 225.827 186.292 225.498C186.936 224.574 185.863 223.969 185.84 223.181L185.902 223.259C185.668 222.932 185.617 222.646 186.104 222.509L185.974 222.437C185.883 222.001 185.777 221.553 185.687 221.117L185.777 221.041C185.421 221.43 185.232 221.14 185.03 220.866L185.093 220.972C184.271 219.363 183.422 217.771 182.639 216.146C181.624 214.041 180.728 211.871 179.646 209.8C177.812 206.308 175.832 202.897 173.999 199.419C171.119 193.949 168.306 188.46 165.439 182.99C165.112 182.366 165.003 181.53 164.126 181.311L164.193 181.277C164.053 183.31 165.3 184.856 166.101 186.535C167.42 189.308 168.832 192.045 170.258 194.767C172.961 199.932 175.758 205.049 178.395 210.247C179.78 212.986 180.938 215.827 182.178 218.647C182.28 218.888 182.129 219.247 182.099 219.554C182.231 219.64 182.349 219.741 182.481 219.827C181.977 220.103 182.181 219.713 182.178 219.506C181.189 219.434 180.803 218.593 180.268 217.972C175.184 211.961 170.545 205.638 166.482 198.894C165.986 198.076 165.571 197.224 165.154 196.358C163.806 193.56 162.972 190.624 162.393 187.584C161.642 183.616 160.81 179.683 159.95 175.739C159.595 174.092 158.978 172.634 157.76 171.265C156.313 169.638 155.434 167.509 154.31 165.606C154.164 165.341 154.032 165.075 153.886 164.81C153.501 164.675 153.302 164.442 153.447 164.015C152.995 163.9 152.796 163.667 153.007 163.193C152.082 163.226 151.771 162.463 151.35 161.888C149.44 159.329 147.582 156.739 145.646 154.197C143.384 151.238 141.045 148.341 138.758 145.412C133.908 139.217 128.901 133.131 123.663 127.257C123.419 126.986 123.251 126.626 122.853 125.98C124.485 126.305 125.188 127.286 125.934 128.125C128.278 130.731 130.57 133.397 132.862 136.048C133.626 136.928 134.404 137.82 135.037 138.793C137.294 142.209 140.511 144.329 144.21 145.897C148.511 147.721 152.732 149.746 157.034 151.584C167.4 155.989 176.724 162.043 185.425 169.13C192.94 175.247 199.858 182.023 206.8 188.754C207.311 189.253 208.035 189.637 207.955 190.529C208.527 190.58 208.959 190.794 209.039 191.438C209.114 191.501 209.173 191.552 209.247 191.615C209.213 191.535 209.18 191.468 209.146 191.388C208.599 191.308 208.003 191.287 208.035 190.495C206.767 190.391 205.97 189.445 205.068 188.729C202.052 186.371 199.085 183.927 196.043 181.585C192.751 179.056 189.37 176.631 186.053 174.132C180.347 169.847 174.666 165.518 168.937 161.277C163.634 157.346 158.134 153.709 151.845 150.593C152.064 151.074 152.111 151.305 152.234 151.461C152.359 151.631 152.548 151.74 152.724 151.864C152.988 152.051 153.251 152.223 153.527 152.381C160.717 156.365 167.265 161.315 173.963 166.06C176.915 168.146 179.643 170.554 182.521 172.743C189.206 177.849 195.929 182.909 202.629 188.013C203.44 188.626 204.176 189.341 205.25 190.292C203.577 190.317 202.511 189.809 201.497 189.254C198.689 187.738 195.855 186.251 193.119 184.605C189.478 182.395 185.923 180.039 182.32 177.771C174.469 172.802 167.069 167.256 160.042 161.182C154.965 156.791 149.863 152.429 144.76 148.067C144.447 147.788 144.082 147.555 143.708 147.378C143.563 147.306 143.266 147.4 143.152 147.52C143.023 147.641 142.91 147.955 142.975 148.074C143.371 148.692 143.794 149.295 144.242 149.867C147.57 154.027 150.426 158.516 152.899 163.229C153.046 163.508 153.192 163.773 153.326 164.053C153.472 164.318 153.618 164.583 153.75 164.849C154.189 164.966 154.348 165.216 154.175 165.645C154.661 166.007 155.225 166.307 155.621 166.746C156.397 167.61 157.084 168.565 157.835 169.459C158.095 169.771 158.447 170.005 158.949 169.549C158.68 169.128 158.394 168.68 158.124 168.245C155.765 164.602 153.379 160.962 151.032 157.29C150.652 156.698 150.025 156.14 150.4 155.292L150.199 155.212L150.32 155.34C151.011 155.838 151.727 156.292 152.366 156.835C154.892 158.956 157.368 161.15 159.92 163.255C164.771 167.249 169.585 171.302 174.923 174.648C181.779 178.95 188.719 183.107 195.624 187.336C198.902 189.34 202.359 190.998 205.992 192.267C207.488 192.796 209.052 193.126 210.615 193.456C211.109 193.568 211.676 193.397 211.774 192.559C211.32 192.084 210.82 191.543 210.293 191.018C205.332 186.188 200.384 181.343 195.411 176.528C184.245 165.682 171.94 156.492 157.564 150.267C153.561 148.529 149.592 146.706 145.599 144.926C142.295 144.474 140.022 142.569 138.281 139.872C137.995 139.425 137.566 139.086 137.215 138.685C134.208 135.233 131.213 131.766 128.18 128.33C126.914 126.896 125.533 125.569 124.228 124.166C123.896 123.819 123.615 123.427 123.168 122.868C123.773 122.819 124.086 122.752 124.379 122.783C127.119 123.114 129.882 123.388 132.618 123.831C134.945 124.196 137.111 124.947 139.082 126.379C141.997 128.524 145.085 130.419 148.063 132.475C150.438 134.109 152.904 135.667 155.657 136.496C160.252 137.853 164.863 139.237 169.558 140.115C175.73 141.275 181.997 141.916 188.204 142.824C194.424 143.731 200.652 144.568 206.767 146.065C208.42 146.47 210.007 147.089 211.639 147.58C212.959 147.985 214.278 148.376 215.619 148.696C215.802 148.737 216.148 148.39 216.323 148.154C216.41 148.037 216.331 147.738 216.246 147.552C216.175 147.363 216.049 147.166 215.886 147.041C212.871 144.517 209.904 141.906 206.303 140.177C204.863 139.491 203.458 138.72 202.065 137.933C195.853 134.395 189.404 131.347 182.617 129.088C179.785 128.141 176.954 127.194 174.146 126.204C169.698 124.613 165.132 123.614 160.446 123.191C155.467 122.737 150.467 122.534 145.47 122.192C142.281 121.967 139.093 121.741 136.126 120.321C135.463 120.001 134.706 119.882 133.982 119.664C129.783 118.413 125.485 117.654 121.089 117.555C119.66 117.518 118.401 117.178 117.246 116.261C114.834 114.339 112.296 112.579 109.922 110.612C106.315 107.624 102.797 104.532 99.2411 101.485C98.8534 101.142 98.3727 100.849 98.7098 100.226C98.9265 100.167 99.1134 100.083 99.3186 100.052C104.815 99.2047 110.373 99.4595 115.894 99.2604C119.248 99.1404 122.468 99.5849 125.434 101.338C126.249 101.825 127.174 102.138 128.04 102.566C134.671 105.806 141.515 108.435 148.699 110.136C149.73 110.384 150.763 110.66 151.773 110.994C157.958 113.011 164.259 114.576 170.643 115.788C177.097 117.022 183.545 117.163 190.037 116.47C190.984 116.365 191.937 116.177 192.86 115.95C193.226 115.851 193.533 115.535 194.045 115.203C193.009 114.886 192.177 114.69 191.415 114.35C191.099 114.21 190.936 113.739 190.717 113.424C188.196 113.061 185.992 111.662 183.585 110.833ZM82.4893 64.1252C82.5774 63.6751 82.8424 63.529 83.2683 63.6605C83.7184 63.2364 84.1034 62.6929 84.6357 62.4282C87.111 61.2028 89.5863 59.9775 92.1439 58.9116C95.1831 57.6404 98.2873 56.4886 101.397 55.4055C110.333 52.2574 119.538 50.8734 129.001 51.4894C134.944 51.879 140.823 52.8552 146.677 54.0272C150.645 54.8126 154.59 55.6689 158.579 56.3695C161.513 56.8788 164.463 57.2345 167.413 57.5903C169.105 57.799 170.748 58.0947 172.68 58.8654C172.057 59.0405 171.806 59.1855 171.569 59.1632C168.721 58.8684 165.871 58.3799 163.023 58.2513C153.992 57.8493 144.962 57.4611 135.924 57.309C128.91 57.1863 121.894 57.3959 114.887 57.5357C114.114 57.557 113.183 57.1757 112.529 57.9902L112.48 57.8973C113.33 57.9667 114.17 58.0785 115.016 58.0929C120.976 58.1904 126.937 58.1217 132.871 58.4013C139.777 58.7266 146.658 59.4138 153.571 59.8216C157.716 60.0665 161.856 60.0764 166.005 60.1964C166.726 60.2209 167.447 60.2315 168.46 60.2601C167.984 60.7002 167.81 60.9496 167.558 61.0809C167.078 61.3136 166.583 61.5199 166.083 61.6713C156.723 64.5492 147.35 67.4282 137.407 67.391C136.452 67.3855 135.486 67.4224 134.535 67.3058C125.859 66.3351 117.16 65.754 108.532 64.3365C101.811 63.2348 95.0178 62.5958 88.1857 62.846C87.2472 62.8807 86.3128 63.1365 85.3832 63.2812C84.6726 63.3942 83.9608 63.4936 83.2352 63.594C83.1632 64.0705 82.8982 64.2166 82.4562 64.0587C82.3831 64.5215 82.1329 64.6802 81.691 64.5223C81.6189 64.9988 81.3528 65.1311 80.9119 64.987C80.7384 65.2364 80.6128 65.565 80.3753 65.7089C78.0267 67.1316 75.6781 68.5543 73.2987 69.938C70.7472 71.4187 68.4515 73.3217 65.7241 74.5121C64.8685 74.8861 64.6958 75.8277 65.2222 76.6847C65.5921 77.3192 66.0066 77.9915 66.5671 78.4167C68.5417 79.8899 69.9343 81.8671 71.4967 83.7198L71.6499 83.9012L71.5885 83.657C70.2679 83.4181 69.3222 82.5121 68.2948 81.7926C63.8475 78.679 59.3887 75.5941 54.501 73.1946C52.6845 72.3038 50.8438 71.4565 49.0777 70.5063C44.4882 68.0272 40.1298 65.1556 35.9966 61.9889C32.9548 59.6472 29.8048 57.508 26.3928 55.7224C23.1972 54.0438 20.1108 52.1764 17.0958 50.1647C14.0957 48.1657 10.6953 46.8637 7.27745 45.6876C6.18053 45.306 5.10444 44.8397 4.0536 44.3436C-2.12907 41.5093 -8.30022 38.6465 -14.5082 35.842C-15.5716 35.3607 -16.7273 35.1085 -17.8472 34.7841C-19.9875 34.1688 -22.1266 33.5673 -24.5773 32.8803C-23.5378 31.7023 -22.5763 31.0982 -21.2597 31.1159C-20.9672 30.9675 -20.6896 30.8066 -20.3971 30.6582C-20.1481 30.4857 -19.8979 30.327 -19.6489 30.1545C-19.3988 29.9957 -19.1475 29.8508 -18.8974 29.692C-18.3407 29.2177 -17.8319 28.6642 -17.2249 28.2965C-9.00547 23.3101 -0.402717 19.1232 8.65287 15.91C16.6042 13.0773 24.8701 11.5617 33.229 10.5093C47.9319 8.65113 62.7048 8.33769 77.4867 8.64646C78.3185 8.66199 79.1515 8.69126 80.0395 8.71607C79.9563 9.56725 79.3456 9.54762 78.9215 9.60975C71.8464 10.4472 64.7602 11.1471 57.7122 12.1484C54.2496 12.6372 50.8286 13.4687 47.3184 13.7122C43.603 13.9861 39.9069 14.3277 36.1904 14.5879C25.9919 15.319 15.9177 16.8983 5.9101 18.9567C4.87495 19.1654 3.82941 19.4164 2.81695 19.7339C2.46609 19.8455 2.22118 20.2391 1.92497 20.5123L1.89077 20.432C2.30447 20.4123 2.73637 20.4464 3.12961 20.3453C12.4262 18.0539 21.8789 16.6635 31.4105 15.9035C35.22 15.5942 39.0428 15.45 42.8486 15.2656C47.5092 15.0395 52.1914 14.9085 56.7646 13.7758C57.4834 13.5929 58.2283 13.5601 58.9698 13.486C64.5731 12.9342 70.1491 12.2185 75.6597 11.0374C76.0266 10.9522 76.457 11.1388 76.8625 11.1889C76.9807 11.1101 77.0851 11.0324 77.2033 10.9536C77.1677 11.0257 77.1502 11.1517 77.1089 11.155C77.0275 11.1755 76.9131 11.1294 76.8294 11.1224C76.8366 12.0631 76.0442 12.3628 75.4339 12.6892C72.0796 14.512 68.7275 16.3623 65.2898 18.0118C59.0799 20.9801 52.3639 22.1483 45.6118 23.0426C35.1633 24.4446 24.6801 24.9081 14.1433 24.1993C8.36677 23.81 2.68363 24.2299 -2.91689 25.6675C-7.74467 26.9039 -12.568 28.1953 -17.4095 29.4328C-17.8979 29.5555 -18.4399 29.5303 -18.9476 29.5854C-19.1977 29.7441 -19.4479 29.9028 -19.6991 30.0478C-19.9481 30.2203 -20.1983 30.3791 -20.461 30.5527C-20.7387 30.7136 -21.0312 30.862 -21.3088 31.0229C-21.3518 31.857 -21.0574 32.4146 -20.1779 32.6754C-18.2369 33.2238 -16.3178 33.8432 -14.3734 34.4329C-10.2854 35.6791 -6.5002 37.6282 -2.60914 39.3472C-0.957252 40.0852 0.681987 40.8381 2.36843 41.4903C4.45447 42.2899 6.55311 43.0747 8.86725 42.7622C9.2512 42.7172 9.67237 42.9599 10.0697 43.0799C10.1043 42.994 10.1526 42.9071 10.1871 42.8212C10.1228 42.8818 10.0712 42.9275 10.0069 42.9881C9.88093 43.4829 9.75496 43.9776 9.6071 44.5433C12.1076 46.0153 14.503 47.3851 16.8489 48.8282C21.3073 51.5671 25.966 53.8744 30.8628 55.7056C32.0478 56.1493 33.1224 56.2558 34.2385 55.6807C36.4582 54.5453 38.8756 54.1414 41.318 53.8739C44.7345 53.4996 48.0901 52.715 51.2267 51.4498C54.8587 49.9782 58.6662 48.9631 62.2299 47.331C65.4471 45.8654 68.8234 44.996 72.3456 44.5578C76.8006 44.0161 81.2379 43.7666 85.7142 43.9984C91.3305 44.29 96.9498 44.2767 102.559 44.998C102.568 45.6202 102.085 45.6318 101.741 45.6597C96.1252 46.2264 90.5432 47.0395 85.0869 48.5484C77.7904 50.5805 70.3295 51.7815 62.8743 53.0512C61.8369 53.2324 60.7381 53.1693 59.8108 53.8537C60.2484 54.4688 60.765 54.0116 61.204 53.9621C68.4129 53.2384 75.5165 51.9003 82.5807 50.2469C87.0369 49.2068 91.5815 48.5748 96.0852 47.78C96.781 47.6543 97.5006 47.6513 98.202 47.5944C98.4842 48.5128 97.8501 48.7165 97.4796 48.9266C95.0853 50.2976 92.6965 51.7375 90.219 52.9353C87.6347 54.1834 84.9523 55.2456 82.2837 56.3067C78.8364 57.6663 75.2733 57.9418 71.6054 57.4366C68.7359 57.0467 65.9805 56.3567 63.2265 55.5144C58.7125 54.1367 54.0117 53.8677 49.3202 54.0548C44.5049 54.2519 39.8265 55.2824 35.2106 56.5708C35.0077 56.6288 34.8058 56.7006 34.6189 56.7849C34.0971 57.0073 33.9659 57.7793 34.4339 58.0874C35.3253 58.6657 36.2535 59.1855 37.1449 59.7638C40.4587 61.8758 43.7254 64.0885 47.1014 66.1124C51.569 68.7952 56.1344 71.3177 60.6515 73.9273C61.7697 74.5702 62.7937 74.7362 63.8659 73.7909C64.4089 73.3177 65.1166 72.9972 65.8012 72.7339C68.5903 71.6215 71.1384 70.0995 73.6502 68.4698C75.61 67.2032 77.7296 66.2005 79.8151 65.1176C80.1466 64.9384 80.6105 65.0253 81.0231 64.9918C81.094 64.5015 81.3613 64.3829 81.8021 64.5271C81.7972 64.1261 82.0633 63.9937 82.4893 64.1252ZM124.197 133.499C124.357 133.763 124.502 134.014 124.662 134.278C128.154 139.269 131.182 144.505 133.04 150.348C134.398 154.626 136.076 158.753 137.997 162.806C144.125 175.708 148.171 189.223 149.659 203.458C149.826 205.008 150.065 206.581 149.689 208.605C149.296 207.682 148.991 207.166 148.849 206.61C148.285 204.441 147.723 202.286 147.24 200.096C145.883 193.949 144.052 187.938 142.127 181.962C140.273 176.173 138.433 170.398 136.539 164.627C136.246 163.751 135.725 162.949 135.31 162.11L135.403 162.061C135.401 162.38 135.304 162.72 135.397 163.003C136.599 167.072 137.829 171.139 139.059 175.206C139.154 175.517 139.287 175.797 139.382 176.107C142.437 185.951 145.654 195.74 147.478 205.919C147.527 206.192 147.467 206.473 147.434 207.251C145.614 204.617 144.259 202.249 142.995 199.818C138.668 191.531 136.364 182.596 134.587 173.493C133.559 168.163 133.107 162.76 132.696 157.366C132.663 156.954 132.808 156.527 132.871 156.106L132.921 156.213C132.797 155.711 132.577 155.217 132.551 154.72C132.402 152.033 131.508 149.545 130.427 147.141C128.872 143.682 127.184 140.275 125.575 136.834C125.19 136.007 124.411 135.281 124.754 134.215C124.595 133.965 124.449 133.7 124.29 133.45C124.129 133.172 123.954 132.896 123.794 132.632C123.635 132.368 123.476 132.118 123.302 131.855C123.156 131.59 122.996 131.326 122.85 131.061L122.732 130.974L122.758 131.124C122.904 131.389 123.064 131.653 123.21 131.918C123.369 132.168 123.529 132.432 123.703 132.694C123.861 132.945 124.036 133.221 124.197 133.499ZM-29.1943 103.551C-29.4939 103.271 -29.8991 103.054 -30.0932 102.71C-31.9029 99.687 -33.7241 96.6924 -35.4421 93.6065C-38.2467 88.5599 -38.8494 83.1823 -37.8839 77.5113C-36.8257 71.279 -35.0139 65.2901 -32.6227 59.4479C-31.1196 55.7959 -29.6726 52.1345 -28.9092 48.238C-27.932 48.3386 -28.0367 49.0947 -27.8832 49.6221C-26.0199 56.0325 -25.5275 62.6095 -25.7513 69.2309C-25.9228 74.4498 -26.3177 79.6454 -26.5867 84.8584C-26.837 89.9592 -27.045 95.0704 -27.2678 100.169C-27.2904 100.572 -27.3681 100.98 -27.5345 102.17C-27.9338 100.832 -28.1502 100.213 -28.2852 99.5732C-29.83 92.6525 -29.8196 85.6193 -29.5044 78.589C-29.3049 74.2261 -28.9931 69.8817 -28.8074 65.5199C-28.741 63.9502 -28.8705 62.3549 -29.2967 60.6868C-29.4245 60.9879 -29.5672 61.2763 -29.6526 61.5878C-29.7381 61.8993 -29.7949 62.2223 -29.7979 62.5271C-30.1352 70.8189 -30.5001 79.1129 -30.7813 87.4139C-30.9247 91.7862 -30.5719 96.1319 -29.6964 100.435C-29.4878 101.47 -29.4156 102.531 -29.2895 103.572C-29.1285 103.85 -28.9686 104.114 -28.7939 104.39C-28.6352 104.641 -28.4753 104.904 -28.3166 105.155C-28.1705 105.42 -28.0255 105.671 -27.8794 105.936C-27.8154 106.041 -27.7377 106.146 -27.6738 106.251C-27.7321 106.215 -27.8169 106.194 -27.8351 106.14C-27.8556 106.058 -27.821 105.973 -27.8013 105.874C-27.9474 105.609 -28.0798 105.343 -28.2248 105.092C-28.3835 104.842 -28.5434 104.578 -28.6884 104.326C-28.8586 104.105 -29.0333 103.828 -29.1943 103.551ZM18.2531 41.0589C17.7911 41.1656 17.3439 41.285 16.8819 41.3917C16.6675 41.4783 16.4404 41.5798 16.6411 41.4943C16.4337 41.4973 16.6823 41.491 16.9459 41.4972C17.4068 41.3768 17.855 41.2712 18.3159 41.1507C18.779 41.0577 19.2559 40.9636 19.719 40.8707C19.9346 40.7978 20.1513 40.7387 20.0699 40.7591C20.1524 40.7524 19.9175 40.7577 19.6699 40.7777C19.1919 40.8581 18.7288 40.951 18.2531 41.0589ZM-29.124 45.2515C-29.0909 45.318 -29.1507 45.4336 -29.1715 45.5184C-29.2745 45.4436 -29.4611 45.3619 -29.4678 45.2794C-29.4823 45.1006 -29.3857 44.9266 -29.3452 44.7434C-30.2689 44.2785 -30.508 43.5504 -30.1553 42.6081C-31.2493 41.9217 -31.607 40.9263 -31.4313 39.68C-31.667 39.5054 -32.0093 39.3809 -32.1395 39.1423C-33.1975 37.1932 -34.2165 35.2133 -35.2482 33.2483C-34.9743 32.7 -34.4933 32.8271 -34.274 33.1415C-32.948 35.1518 -31.6345 37.1771 -31.4577 39.696C-30.3362 40.3802 -30.1655 41.4599 -30.2356 42.6423C-29.4587 43.1745 -29.3814 43.9572 -29.4519 44.7936C-29.3285 44.9497 -29.2062 45.092 -29.124 45.2515ZM102.209 106.158L102.156 106.01C101.041 105.408 99.903 104.864 98.8251 104.204C96.8431 102.98 94.9094 101.67 92.9389 100.418C91.3781 99.4373 91.3357 99.4269 89.9115 97.2308C90.801 97.6154 91.4284 97.8413 92.0191 98.1256C93.458 98.7978 94.9957 99.3236 96.2726 100.217C97.5494 101.11 98.5929 102.368 99.7089 103.495C100.523 104.315 101.287 105.195 102.075 106.044L102.209 106.158ZM36.2484 80.9474C36.1923 80.9381 36.1086 80.9311 36.0915 80.891C36.0436 80.8118 36.0358 80.7155 36.0004 80.6215C35.7108 79.9528 35.3673 79.3024 35.1453 78.6144C33.5313 73.5681 31.9585 68.5185 30.3719 63.4699C30.2593 63.1053 29.9908 62.698 30.3881 62.3058C31.2341 62.1541 31.4193 62.9004 31.6933 63.3765C33.0881 65.8935 34.0953 68.5803 34.7505 71.365C35.3604 73.9318 35.7673 76.5567 36.1869 79.1667C36.2672 79.6447 36.006 80.1781 35.8949 80.6854C36.0127 80.7728 36.1306 80.8601 36.2484 80.9474ZM63.5238 45.0248C61.6625 45.7989 59.7692 46.5202 57.8918 47.2679C57.3012 47.4958 56.6329 47.6192 56.1211 47.9653C53.7733 49.568 50.9734 49.8645 48.3694 50.6989C45.8331 51.5139 43.248 52.0698 40.5934 52.4515C38.4993 52.7461 36.4242 53.2745 34.3959 53.8683C33.395 54.1572 32.5609 54.1142 31.6175 53.7478C28.2446 52.4435 24.7785 51.3545 21.4874 49.8636C18.6988 48.5949 16.0967 46.8958 13.4382 45.3536C13.3078 45.2811 13.2843 44.9923 13.1613 44.6701C14.3168 44.4101 15.462 44.1926 16.5729 43.8947C20.6785 42.8 24.7819 41.6778 28.8842 40.5418C30.049 40.2258 31.0711 39.6859 31.6282 38.5333C28.8379 39.1197 26.0488 39.72 23.1772 40.3269C23.0942 39.4753 23.7395 39.4091 24.1122 39.2266C28.1189 37.2539 31.895 34.8293 36.1162 33.2823C36.7079 33.0681 37.2769 32.7451 37.8322 32.4231C44.1249 28.7698 50.9602 27.0243 58.1959 26.6307C64.1355 26.3007 70.068 25.5422 76.0315 25.8471C79.8536 26.0351 83.678 26.2507 87.492 26.5086C93.115 26.8827 98.7005 27.6474 104.358 27.5895C104.98 27.5805 105.589 27.7526 106.136 27.8328C106.419 28.5988 105.876 28.726 105.549 28.7941C104.623 28.98 103.666 29.1269 102.729 29.1891C99.3259 29.3824 95.9305 29.5058 92.5418 29.7117C87.7618 30.0029 83.0001 30.3479 78.2202 30.6391C75.3552 30.8163 72.4868 30.9523 69.6174 31.0745C60.9105 31.4215 52.1809 31.6596 43.5723 33.2168C41.6076 33.5701 39.5518 33.654 37.8224 34.8603L37.7744 34.7811C38.4974 34.8193 39.2464 35.0077 39.9422 34.882C50.7553 32.8551 61.6863 32.4521 72.6453 32.393C73.711 32.3895 74.7733 32.3448 75.8289 32.2176C81.0117 31.603 86.2064 31.3058 91.4057 31.0636C94.164 30.9366 96.8989 30.5208 99.6631 30.2963C100.364 30.2394 101.106 29.8193 101.964 30.4972C101.396 30.834 100.927 31.2042 100.392 31.4277C95.5083 33.513 90.6646 35.7474 85.6934 37.6046C81.5158 39.1758 77.2377 40.5337 72.9054 41.5637C66.5221 43.0787 60.0528 43.0225 53.629 41.4814C50.5231 40.7369 47.4401 39.9351 44.3134 39.2753C41.0881 38.5958 37.8339 38.071 34.6005 37.4614C33.3497 37.2307 32.2711 37.4152 31.5501 38.595C39.5862 39.5345 47.4162 41.5152 55.2936 43.2289C57.9004 43.7925 60.5168 44.1338 63.1822 44.0559C63.597 44.0499 63.9977 44.2111 64.4203 44.3014C64.6073 44.217 64.7793 44.12 64.9685 44.0631C65.0087 44.046 65.1012 44.1631 65.1745 44.2125C64.9109 44.2062 64.6485 44.2137 64.385 44.2074C64.0761 44.4955 63.8587 44.8869 63.5238 45.0248ZM203.092 140.521C202.298 140.807 202.004 140.416 201.708 140.011C199.753 139.463 197.801 138.957 195.858 138.381C192.906 137.486 189.962 136.521 187.011 135.639C179.362 133.325 171.756 130.87 164.044 128.796C157.774 127.104 151.387 125.851 145.044 124.455C144.24 124.272 143.364 124.384 142.462 124.361C142.433 125.027 142.941 124.972 143.228 125.101C143.603 125.292 144.028 125.41 144.437 125.501C149.317 126.614 154.188 127.783 159.101 128.796C165.268 130.067 171.348 131.636 177.353 133.474C178.985 133.965 180.605 134.484 182.248 134.946C189.741 137.037 197 139.825 204.225 142.713C204.468 142.804 204.664 143.01 205.323 143.455C204.215 143.268 203.586 143.194 202.965 143.051C196.508 141.61 189.962 140.784 183.421 139.848C175.508 138.719 167.607 137.56 159.82 135.77C155.941 134.881 152.296 133.46 148.962 131.28C145.761 129.187 142.433 127.242 139.293 125.061C136.931 123.412 134.298 122.698 131.542 122.34C128.38 121.932 125.19 121.693 122.03 121.299C120.813 121.149 119.552 120.96 118.645 119.511C119.245 119.393 119.635 119.251 119.996 119.263C124.572 119.528 129.125 120.031 133.529 121.417C139.779 123.374 146.216 124.056 152.718 124.345C155.163 124.451 157.614 124.625 160.043 124.871C162.695 125.14 165.349 125.437 167.895 126.282C171.836 127.582 175.8 128.839 179.705 130.224C183.925 131.723 188.143 133.208 192.257 134.95C195.383 136.274 198.344 137.972 201.379 139.539C201.509 139.612 201.533 139.9 201.617 140.087C202.056 140.204 202.495 140.334 203.092 140.521ZM83.6494 82.1656C91.2236 79.9725 98.7943 77.7382 106.652 76.8234C111.96 76.2125 117.264 76.2387 122.586 76.831C134.908 78.2116 146.95 80.9162 158.908 84.126C165.701 85.9555 172.516 87.714 179.318 89.4736C181.383 90.012 183.305 90.8388 185.108 92.0767C184.108 91.8672 183.109 91.6714 182.121 91.4332C178.182 90.4933 174.262 89.4411 170.305 88.6134C164.573 87.4037 158.799 86.3636 153.057 85.2101C150.763 84.7458 148.476 84.1978 146.192 83.691C137.538 81.7911 128.777 80.6197 119.927 80.3969C118.832 80.3751 117.619 79.9337 116.594 80.7783L116.545 80.6853C118.655 80.9293 120.757 81.2432 122.875 81.4035C130.523 82.0007 138.093 82.992 145.622 84.5125C155.84 86.5762 166.09 88.5265 176.23 90.9979C178.094 91.4556 179.986 91.7312 181.862 92.1603C182.426 92.2944 182.928 92.6828 183.781 93.1258C183.178 93.3685 182.943 93.5399 182.694 93.5463C180.032 93.6655 177.384 93.7836 174.717 93.8478C171.512 93.9281 168.351 93.534 165.185 93.0712C153.461 91.3791 142.031 88.3618 130.542 85.64C120.013 83.1586 109.394 81.9443 98.5811 82.1023C93.797 82.1723 89.0029 82.1186 84.2587 82.8498C83.8621 82.9097 83.4339 82.7507 83.0135 82.6879C82.8426 82.7987 82.6749 82.9507 82.4835 82.9801C82.3873 82.9879 82.2583 82.7631 82.1519 82.6471C82.2609 82.6244 82.3675 82.5742 82.466 82.5939C82.663 82.6333 82.8634 82.7139 83.0615 82.7671C83.2544 82.5853 83.419 82.2258 83.6494 82.1656ZM78.6747 189.522C78.6996 189.658 78.4918 189.827 78.3941 189.988C78.3588 189.894 78.3086 189.787 78.3145 189.69C78.3253 189.481 78.3647 189.284 78.3892 189.074C78.2646 188.905 78.0713 188.74 78.0431 188.563C76.4047 178.784 75.1091 168.964 75.0649 159.042C75.0414 155.001 75.5862 150.97 75.8538 146.934C76.0208 144.387 76.1867 141.827 76.3124 139.283C76.3506 138.56 76.2628 137.82 76.1991 136.524C75.2838 138.038 75.2252 139.191 75.1197 140.28C74.5234 145.893 73.9408 151.505 73.4567 157.137C73.1066 161.18 73.5186 165.23 73.887 169.257C74.376 174.768 74.9612 180.272 75.4926 185.793C75.516 186.082 75.4719 186.39 75.4221 187.142C74.9344 186.42 74.5879 186.075 74.4295 185.658C70.3803 175.342 66.2761 165.029 65.2022 153.848C64.7672 149.343 64.9909 144.937 66.1426 140.538C67.3175 136.082 69.0372 131.858 71.0982 127.746C73.2074 123.546 74.9744 119.222 76.4529 114.755C77.6534 111.128 77.9258 107.493 77.2326 103.728C76.3512 99.01 75.4159 94.3101 73.4912 89.8704C73.3212 89.4827 73.2591 89.0586 73.1706 88.6505C73.1502 88.5691 73.2111 88.4673 73.2446 88.3677C73.8169 88.0859 74.3332 88.307 74.6199 88.7682C75.0526 89.4945 75.3935 90.2835 75.7058 91.0611C77.1279 94.7663 77.9253 98.6192 78.5472 102.528C80.8651 117.096 81.667 131.747 80.9251 146.481C80.6347 152.111 80.2205 157.751 79.568 163.355C78.6798 170.999 78.6509 178.657 78.6368 186.327C78.6302 187.269 78.4426 188.198 78.3386 189.134C78.4175 189.252 78.6487 189.372 78.6747 189.522ZM-21.8238 36.1037C-21.8959 36.068 -21.9335 35.9465 -21.9814 35.8673C-21.8164 35.8539 -21.5618 35.7502 -21.4863 35.8271C-21.3811 35.9293 -21.4034 36.1665 -21.3614 36.343C-20.4965 36.4251 -20.1336 37.1431 -19.7258 37.733C-18.8027 39.0423 -17.999 40.4168 -17.0496 41.7102C-16.1161 42.9772 -15.2826 44.3769 -13.5936 44.8904C-13.1252 45.0323 -12.7665 45.5292 -12.3777 45.8853C-10.0242 48.1029 -8.22049 50.7112 -6.79436 53.6133C-3.48928 60.3911 -1.52562 67.527 -0.805961 75.027C-0.159996 81.6193 -0.178601 88.2101 -0.6544 94.7966C-1.28163 103.61 -2.0486 112.408 -2.77432 121.202C-2.8107 121.606 -3.01435 121.996 -3.19085 122.55C-3.98642 121.106 -3.85164 119.697 -3.89119 118.357C-4.06804 112.087 -4.3698 105.813 -4.00807 99.5264C-3.62966 92.934 -4.09571 86.3409 -4.2856 79.7393C-4.37551 76.7565 -4.57543 73.7826 -4.74783 70.8065C-5.0882 64.9092 -6.57149 59.257 -8.39525 53.674C-8.45214 53.4849 -8.65695 53.3492 -8.87293 53.076C-9.00817 53.6269 -9.27388 54.1053 -9.2244 54.5443C-9.09716 55.5999 -8.87367 56.6476 -8.5974 57.6634C-7.29893 62.4031 -6.46471 67.222 -6.28726 72.1358C-5.90702 82.4458 -5.33312 92.7539 -5.58774 103.088C-5.7102 108.4 -5.4855 113.725 -5.40057 119.034C-5.38447 120.085 -5.27212 121.127 -5.19877 122.201C-5.99978 122.225 -6.09015 121.623 -6.30354 121.211C-8.96391 116.236 -11.4247 111.162 -13.3796 105.838C-16.5615 97.1678 -17.5739 88.2797 -16.5162 79.1404C-15.9128 73.9555 -15.1834 68.7882 -14.4528 63.6346C-13.7816 58.9426 -14.1475 54.2656 -14.9237 49.6497C-15.2689 47.615 -16.2994 45.6638 -17.2419 43.7746C-18.2345 41.7787 -19.4933 39.9151 -20.6063 37.9706C-20.9123 37.4417 -21.0852 36.8466 -21.3257 36.2709C-21.4677 36.227 -21.651 36.1865 -21.8238 36.1037ZM58.8896 180.275L58.797 180.158C57.0782 175.356 55.3582 170.539 53.6393 165.737C52.228 161.823 51.0883 157.846 50.217 153.764C48.4019 145.217 48.3422 136.64 49.7916 128.064C50.5657 123.446 51.4934 118.844 52.9581 114.379C54.2556 110.411 54.8912 106.303 55.3732 102.181C55.5202 100.923 55.429 99.6289 55.3263 98.3637C54.8082 91.9825 53.5245 85.7189 52.337 79.4474C52.048 77.9343 51.5814 76.4494 51.1188 74.6735C53.0652 76.4812 53.2741 76.838 53.6687 78.7994C54.5951 83.3894 55.4939 87.9815 56.4616 92.5681C56.7055 93.6973 56.9952 94.8781 57.5339 95.8865C62.2799 104.555 64.5998 113.863 65.0109 123.699C65.2319 129.15 64.8388 134.539 63.9187 139.915C62.8827 145.911 62.5158 151.962 62.1637 158.026C61.6224 167.387 61.9118 176.749 62.1875 186.112C62.208 186.706 62.1322 187.307 61.7138 187.95C61.5294 187.384 61.2773 186.837 61.1891 186.263C60.302 179.939 59.3048 173.624 58.6102 167.285C57.5591 157.75 57.0466 148.198 58.0548 138.62C58.5787 133.649 58.948 128.649 58.6527 123.648C58.5786 122.394 58.4357 121.146 57.8885 119.862C57.7785 120.383 57.5849 120.897 57.5861 121.423C57.5564 125.149 57.6928 128.876 57.5371 132.584C57.4077 135.765 56.9323 138.946 56.6494 142.111C56.2013 146.993 56.239 151.89 56.5391 156.78C56.5767 157.414 56.6842 158.056 56.6943 158.692C56.8005 164.774 57.5795 170.788 58.6874 176.762C58.9038 177.893 59.2474 179.056 58.7178 180.206L58.8896 180.275ZM24.7419 161.051C24.3194 158.746 23.952 156.436 23.6246 154.109C22.6222 147.047 21.5647 139.99 20.7124 132.903C20.2912 129.421 20.2128 125.897 20.0942 122.39C19.8333 115.255 19.3936 108.133 18.3911 101.072C18.1675 99.5117 18.0666 97.928 17.8917 96.1149C17.1756 97.1836 17.169 98.1254 17.246 99.0744C17.3648 100.878 17.4698 102.683 17.6585 104.495C18.4443 112.128 18.8577 119.777 18.941 127.454C18.9954 132.045 19.53 136.584 20.2583 141.121C21.2161 147.12 22.1188 153.124 23.0754 159.11C23.4113 161.2 23.8285 163.271 24.2205 165.371C24.0258 165.359 23.753 165.409 23.705 165.329C20.9443 160.653 18.0632 156.028 15.4883 151.254C11.722 144.25 9.32818 136.762 8.55681 128.795C7.81112 121.145 7.61553 113.45 8.089 105.812C8.53313 98.4943 9.60058 91.1815 12.1203 84.1938C13.1484 81.3417 13.2886 78.4648 12.5985 75.4199C11.4155 70.2279 10.5731 64.9666 9.63549 59.727C8.97758 56.0566 8.11559 52.4304 6.95553 48.8839C6.8793 48.627 6.93839 48.3315 6.93681 47.4595C7.5409 48.421 7.96505 48.8711 8.13238 49.3974C8.98272 52.0278 9.94308 54.6492 10.5217 57.3432C11.5474 62.1328 12.3277 66.9699 13.2181 71.7981C13.423 72.9581 13.6268 74.1044 13.8455 75.2633C14.0958 76.6412 14.6467 77.8008 15.6092 78.9131C16.695 80.1816 17.4869 81.7508 18.1792 83.2866C21.149 89.8563 22.5216 96.8741 23.484 103.953C23.969 107.54 24.3039 111.154 24.5965 114.757C25.6017 126.968 26.1647 139.188 25.9288 151.458C25.8579 155.188 25.9806 158.915 26.0059 162.637C26.0107 163.038 25.9744 163.442 25.9454 164.109C24.9484 163.083 24.9175 162.019 24.7419 161.051ZM93.1645 190.837C92.0389 186.18 90.8996 181.525 89.8278 176.85C87.3687 166.169 87.0297 155.343 87.6819 144.451C87.9209 140.403 88.5378 136.408 89.393 132.448C90.5596 127.038 91.7536 121.625 92.8354 116.194C93.3577 113.59 93.6258 110.925 94.021 108.29C94.086 107.897 94.2198 107.499 94.3019 107.146C95.2988 107.148 95.4107 107.845 95.5687 108.427C96.2347 111.004 96.9832 113.573 97.4853 116.176C98.3931 120.878 99.2883 125.596 99.9634 130.33C101.464 140.799 101.613 151.335 101.071 161.872C100.838 166.335 100.452 170.796 100.01 175.234C99.7592 177.774 99.2715 180.291 98.8112 182.807C98.0389 187.105 97.2105 191.395 96.3821 195.684C96.3044 196.092 96.1283 196.48 95.7835 197.519C95.633 194.471 95.3562 192.085 95.4117 189.7C95.5564 184.151 95.1923 178.643 94.9096 173.115C94.3561 162.376 94.5211 151.62 94.5486 140.876C94.5554 138.231 94.5335 135.575 94.1359 132.894C94.0155 133.457 93.8264 134.026 93.8034 134.596C93.4783 145.766 93.1256 156.938 93.4925 168.108C93.6111 171.614 93.7996 175.129 94.0557 178.624C94.3684 182.987 94.1265 187.34 93.9396 191.688C93.9326 191.772 93.7995 191.838 93.6732 191.986C93.5032 191.599 93.2668 191.244 93.1645 190.837ZM40.4573 158.875C40.1643 154.414 39.9675 149.944 39.7581 145.49C39.2984 135.394 38.8788 125.281 38.3915 115.188C38.1982 111.272 37.8673 107.367 37.603 103.43C36.8801 103.391 37.0771 103.943 37.0742 104.248C37.0202 106.481 36.8561 108.723 37.0221 110.938C37.9155 123.477 38.173 136.025 38.5553 148.578C38.6751 152.61 38.9175 156.619 39.1321 161.308C38.6517 160.337 38.3993 159.956 38.2547 159.538C33.3977 145.411 30.8906 130.899 31.3224 115.928C31.4971 109.726 32.7086 103.675 34.1159 97.6493C34.9901 93.9238 35.7086 90.1555 36.5118 86.408C36.6437 85.8158 36.8603 85.2445 37.0806 84.5483C38.4117 85.257 38.7553 86.4196 39.1197 87.4975C39.9975 90.1256 40.8479 92.756 41.5904 95.4228C43.0562 100.689 43.6062 106.098 43.8249 111.521C44.2189 121.318 44.0021 131.095 43.2456 140.874C42.6825 148.091 42.3417 155.317 41.8898 162.538C41.872 162.83 41.743 163.117 41.6401 163.555C40.5238 162.081 40.5697 160.43 40.4573 158.875ZM66.6825 128.603C66.6743 117.93 64.5832 107.69 60.3954 97.8829C58.6201 93.7495 57.3607 89.4911 56.6816 85.0473C56.3673 83.0517 55.9028 81.0821 55.5209 79.1059C55.4268 78.629 55.413 78.1179 55.3646 77.6927C55.6456 77.573 55.7764 77.4793 55.8336 77.5023C60.421 79.9539 65.0105 82.433 69.1712 85.5975C70.4983 86.5972 71.4147 87.8241 71.9831 89.3699C73.8377 94.4797 75.1236 99.7465 75.8924 105.124C76.151 106.945 76.0348 108.754 75.512 110.499C74.6441 113.449 73.6639 116.38 72.6825 119.297C71.3356 123.338 69.3864 127.123 67.5381 130.956C67.3608 131.33 67.1412 131.694 66.7569 132.417C66.7292 130.883 66.679 129.752 66.6825 128.603ZM41.1533 167.789L41.2625 167.6L41.2666 167.821L41.1533 167.789ZM-27.6005 103.574L-27.5645 103.335L-27.4649 103.369L-27.6005 103.574Z" fill="#00375A"/>
</svg>