<svg xmlns="http://www.w3.org/2000/svg" width="128" height="253" viewBox="0 0 128 253" fill="none">
<g opacity="0.07">
<path d="M123.035 177.905C122.991 178.439 123.025 178.994 122.877 179.501C119.845 189.972 117.738 200.647 115.805 211.355C115.523 212.889 115.347 214.451 115.117 215.999C114.721 218.706 114.311 221.409 113.906 224.198C114.003 224.308 114.128 224.523 114.303 224.653C114.721 224.974 115.196 225.03 115.554 224.579C115.982 224.022 116.364 223.424 116.721 222.819C118.993 219.057 120.88 215.109 122.635 211.083C126.326 202.606 129.575 193.954 132.438 185.173C134.477 178.915 136.15 172.559 137.566 166.122C137.766 165.209 138.071 164.325 138.336 163.43C138.354 163.365 138.358 163.296 138.388 163.234C138.395 163.208 138.468 163.199 138.501 163.18C138.428 163.244 138.341 163.305 138.268 163.37C138.743 164.112 138.505 164.902 138.415 165.662C137.742 171.359 137.597 177.071 137.688 182.789C137.827 191.011 137.937 199.239 138.645 207.429C138.987 211.41 139.372 215.387 139.718 219.355C139.816 220.514 139.855 221.685 139.928 222.936C140.432 223.042 140.87 223.13 141.43 223.237C141.649 222.568 141.926 221.998 142.04 221.412C142.43 219.417 142.806 217.418 143.105 215.399C144.819 203.934 145.843 192.384 146.988 180.851C147.67 173.911 148.335 166.98 148.96 160.039C149.411 154.968 149.78 149.889 150.201 144.824C150.285 143.825 150.424 142.827 150.823 141.799C150.913 142.145 151.046 142.488 151.067 142.83C151.579 150.493 152.192 158.141 153.207 165.755C153.86 170.727 154.716 175.67 155.576 180.599C156.766 187.393 158.016 194.174 159.798 200.845C160.871 204.866 161.843 208.901 162.873 212.924C163.066 213.675 163.152 214.509 163.863 214.992C164.074 215.146 164.444 215.174 164.698 215.116C164.846 215.085 165.031 214.756 165.037 214.576C165.027 213.244 165.017 211.912 164.934 210.589C164.685 206.522 164.478 202.452 164.127 198.399C163.683 193.328 163.123 188.269 162.61 183.194C162.361 180.707 162.144 178.201 161.853 175.718C161.432 172.136 160.966 168.571 160.503 164.992C159.885 160.099 159.297 155.2 158.607 150.316C157.844 144.811 157.272 139.272 156.131 133.821C155.941 132.903 155.78 131.979 155.653 131.036C155.609 130.674 155.693 130.305 155.948 129.925C156.125 130.419 156.305 130.901 156.468 131.392C158.116 136.461 159.752 141.526 161.383 146.604C162.805 150.997 164.207 155.412 165.659 159.799C167.085 164.123 168.871 168.305 170.769 172.433C174.913 181.382 179.116 190.318 184.033 198.885C185.758 201.875 187.261 204.961 188.533 208.18C188.859 209.008 189.28 209.316 189.63 209.157C190.142 208.916 190.172 208.434 190.16 207.955C190.093 206.468 190.17 204.964 189.926 203.514C188.768 196.701 187.088 190.014 184.91 183.462C182.707 176.847 180.398 170.26 178.241 163.629C176.049 156.919 173.343 150.409 170.633 143.911C169.368 140.875 167.833 137.963 166.426 134.987C165.984 134.072 165.574 133.138 165.194 132.198C165.124 132.039 165.272 131.799 165.328 131.59C166.068 131.646 166.21 132.272 166.509 132.673C168.961 135.926 171.291 139.273 173.816 142.462C177.703 147.369 181.694 152.206 185.704 157.02C190.711 163.037 195.783 169.014 200.826 174.998C204.154 178.96 207.724 182.692 211.38 186.363C211.435 186.419 211.48 186.515 211.545 186.532C211.826 186.579 212.182 186.715 212.393 186.604C212.592 186.488 212.772 186.074 212.719 185.851C212.614 185.403 212.378 184.976 212.118 184.586C211.133 183.079 210.148 181.572 209.113 180.094C203.931 172.632 198.818 165.119 193.533 157.728C190.389 153.339 187.023 149.102 183.67 144.868C180.021 140.275 176.252 135.763 172.536 131.209C172.304 130.924 172.109 130.606 171.591 129.867C172.479 130.368 172.877 130.558 173.244 130.809C176.256 132.798 179.274 134.761 182.246 136.795C184.899 138.605 187.553 140.414 190.112 142.367C196.782 147.44 203.402 152.597 210.035 157.702C213.636 160.477 217.347 163.099 221.242 165.448C221.967 165.879 222.667 166.456 223.765 166.062C223.611 165.643 223.572 165.157 223.307 164.835C222.113 163.273 220.876 161.769 219.645 160.239C211.993 150.751 203.412 142.177 194.163 134.278C188.972 129.85 183.438 125.877 177.619 122.289C175.284 120.858 172.97 119.404 171.007 117.47C170.942 117.452 170.873 117.448 170.821 117.434C170.795 117.427 170.782 117.368 170.763 117.335C170.828 117.408 170.892 117.481 170.957 117.554C171.525 117.258 172.013 117.583 172.525 117.761C175.932 118.945 179.302 120.218 182.74 121.284C190.981 123.864 199.451 125.427 208.015 126.526C214.697 127.39 221.388 128.117 228.018 129.388C229.709 129.711 231.389 130.073 233.031 130.425C233.725 129.392 233.743 129.061 233.044 128.638C232.38 128.238 231.687 127.844 230.97 127.541C225.685 125.369 220.427 123.091 215.067 121.095C210.448 119.365 205.723 117.928 201.015 116.426C196.385 114.946 191.742 113.517 187.085 112.14C184.841 111.475 182.539 110.976 180.261 110.385C179.765 110.253 179.265 110.134 178.791 109.757C179.317 109.673 179.837 109.559 180.366 109.517C184.109 109.224 187.868 109.033 191.6 108.624C195.578 108.184 199.438 107.082 203.322 106.154C203.47 106.124 203.661 106.09 203.758 105.99C203.954 105.776 204.217 105.524 204.227 105.275C204.241 105.013 204.064 104.574 203.861 104.493C203.079 104.173 202.257 103.843 201.419 103.732C198.702 103.375 195.978 103.043 193.248 102.836C185.261 102.199 177.285 102.361 169.339 103.358C169.106 103.394 168.879 103.404 168.636 103.423C167.707 103.498 166.765 103.57 165.537 103.663C166.039 103.195 166.303 102.832 166.664 102.633C168.638 101.521 170.651 100.474 172.638 99.3648C175.988 97.498 179.322 95.585 182.662 93.7016C187.381 91.051 192.326 88.8663 197.258 86.678C200.477 85.2521 203.699 83.813 206.959 82.4959C209.935 81.2993 212.962 80.2281 215.982 79.1273C217.825 78.4554 219.675 77.8132 221.53 77.2005C227.792 75.1693 234.034 73.1051 240.327 71.1662C243.846 70.0857 247.418 69.1733 251.092 68.7216C254.982 68.2435 258.851 67.6896 262.735 67.1819C263.274 67.1012 263.823 67.037 264.366 66.9432C265.115 66.8065 265.682 66.4113 265.909 65.6602C266.117 64.9317 265.608 63.8452 264.819 63.4959C263.744 63.0145 262.647 62.6116 261.437 62.5841C259.542 62.5566 257.667 62.7163 255.847 63.1425C253.026 63.8067 250.212 64.5005 247.422 65.3128C241.783 66.9496 236.156 68.6456 230.535 70.3712C222.661 72.7857 214.976 75.6982 207.42 78.9668C201.733 81.4163 196.218 84.2193 190.777 87.1677C184.862 90.3683 178.95 93.6116 173.032 96.8253C170.827 98.0167 168.622 99.2081 166.408 100.383C165.595 100.811 164.766 101.192 163.926 101.613C163.829 101.349 163.703 101.19 163.744 101.089C166.527 93.7689 169.296 86.4455 172.105 79.1326C174.41 73.1407 176.78 67.1661 179.084 61.1743C179.36 60.4501 180.083 59.6767 179.242 58.8379C178.27 58.9714 178.142 59.8748 177.804 60.5128C173.445 68.6593 169.118 76.8424 165.201 85.2183C164.037 87.7073 162.775 90.1425 161.552 92.588C161.396 92.9104 161.153 93.1955 160.925 93.5268C160.549 92.9375 160.861 92.5025 161.008 92.1077C164.561 81.8864 166.19 71.3222 166.934 60.5647C167.501 52.209 168.193 43.8583 168.856 35.5137C168.942 34.3473 169.165 33.1894 169.32 32.0273C169.408 31.3791 169.353 31.3225 168.358 30.9604C167.488 32.3385 166.915 33.8652 166.456 35.4362C165.121 39.9367 163.796 44.4537 162.553 48.9784C160.261 57.296 158.55 65.7401 156.948 74.1989C156.525 76.4232 156.073 78.6536 155.595 80.8771C155.465 81.4721 155.191 82.029 154.983 82.6033C154.99 82.7871 154.993 82.9839 154.989 82.8428C154.941 82.97 154.999 82.8036 155.058 82.6372C155.079 81.3976 155.061 80.1477 155.141 78.8959C155.542 73.0141 155.358 67.173 154.646 61.3177C153.904 55.2586 153.382 49.16 152.713 43.0921C152.373 40.0499 151.873 37.0349 151.487 34.0084C151.246 32.0697 151.078 30.1222 150.883 28.1678C150.855 27.8525 150.869 27.5345 150.825 27.2288C150.761 26.8343 150.649 26.4686 150.191 26.3471C149.773 26.2361 149.349 26.5153 149.144 27.0765C148.189 29.8309 147.629 32.6764 147.26 35.5443C146.964 37.8721 146.844 40.2188 146.613 42.564C145.938 49.7439 145.693 56.94 145.559 64.1377C145.478 68.7613 145.234 73.3694 145.046 77.9784C145.033 78.1849 144.886 78.3697 144.737 78.7217C144.574 78.3848 144.455 78.1994 144.409 78.0052C143.124 72.0957 141.456 66.3085 139.301 60.6716C138.821 59.4248 138.291 58.2068 137.715 57.0045C132.839 46.7558 127.133 36.9443 120.478 27.7062C118.79 25.3693 117.191 22.9582 115.537 20.5464C114.791 20.67 114.505 20.902 114.587 21.3854C114.623 21.6188 114.642 21.8618 114.741 22.0698C115.911 24.4091 116.21 27.021 117.031 29.4634C117.93 32.1366 118.737 34.8412 119.636 37.5144C121.391 42.7092 123.113 47.9231 124.976 53.0769C127.004 58.666 129.197 64.2148 131.317 69.7724C132.347 72.4803 133.406 75.182 134.436 77.8898C134.626 78.3879 134.703 78.94 134.942 79.8849C134.066 79.0226 133.692 78.3218 133.269 77.6498C132.15 75.8558 131.101 74.0103 129.876 72.3C126.899 68.1797 123.789 64.1362 120.795 60.0255C117.013 54.8242 112.857 49.9291 108.537 45.1726C104.999 41.2672 101.134 37.7506 96.9657 34.5314C92.8073 31.3287 88.7759 27.9639 84.6809 24.6802C84.5092 24.5366 84.3043 24.4123 84.0856 24.3402C83.9584 24.2925 83.7677 24.3258 83.6519 24.393C83.5492 24.4636 83.4283 24.6554 83.4528 24.7738C83.5141 25.0699 83.5816 25.3956 83.7386 25.6472C84.8626 27.5266 85.9335 29.4478 87.1933 31.2373C88.8744 33.6004 90.7147 35.8379 92.482 38.1399C97.899 45.2444 102.995 52.5574 107.978 59.9803C112.129 66.1611 116.525 72.1552 121.283 77.8955C121.728 78.4333 122.153 78.9938 122.578 79.5543C122.607 79.6039 122.569 79.692 122.569 79.9019C121.659 79.3802 121 78.6458 120.324 77.9767C117.324 74.9975 114.334 71.9791 110.933 69.4532C106.601 66.2185 102.202 63.078 97.7601 59.9958C91.6973 55.7979 85.3389 52.0811 78.9909 48.3251C75.8235 46.4488 72.5517 44.7547 69.3407 42.9368C66.3346 41.2433 63.372 39.4914 60.3824 37.7882C60.1872 37.6804 59.945 37.6441 59.579 37.547C59.4915 37.9294 59.3159 38.2746 59.3572 38.5933C59.3958 38.8694 59.6644 39.1226 59.8807 39.3619C60.8583 40.4749 61.809 41.6367 62.8598 42.6852C66.3932 46.2396 69.81 49.9169 73.1041 53.6876C76.8177 57.9334 80.681 62.0371 84.8035 65.9018C88.3698 69.2271 92.324 72.0397 96.3782 74.739C99.0517 76.5261 101.752 78.2644 104.429 80.0384C104.738 80.2463 105.01 80.4864 105.302 80.7038C104.945 81.0988 104.647 80.8518 104.392 80.7562C101.391 79.6237 98.3735 78.5007 95.3863 77.3158C86.0462 73.6049 76.4588 70.6677 66.605 68.6812C59.4591 67.2457 52.288 65.9574 45.1274 64.6299C43.3544 64.2991 41.5668 64.0763 39.793 63.8013C39.6327 63.7727 39.4889 63.7345 39.3286 63.706C38.8504 63.6629 38.3748 63.6626 38.1018 64.1637C37.9132 64.5054 38.1323 64.9973 38.6692 65.2937C40.5344 66.2786 42.3926 67.2896 44.3046 68.203C55.6892 73.6459 67.3414 78.5024 78.9839 83.3423C81.227 84.2736 83.5518 85.0028 85.86 85.7415C90.4896 87.2225 95.133 88.6511 99.766 90.119C100.282 90.284 100.777 90.5273 101.279 90.7445C101.321 90.7976 101.366 90.8376 101.395 90.8873C101.373 90.8115 101.348 90.7488 101.326 90.6731C100.876 90.7354 100.411 90.9058 99.9784 90.847C98.4303 90.6179 96.8934 90.2938 95.3523 90.0385C89.0857 89.0323 82.8356 88.0165 76.5586 87.0496C70.2851 86.0695 63.9685 85.5677 57.6416 85.1051C50.1447 84.5698 42.6684 83.7461 35.2145 82.7325C34.6744 82.6591 34.1212 82.5822 33.5864 82.5941C33.4026 82.6012 33.1502 82.8141 33.0624 82.9866C32.9877 83.1627 32.9855 83.5398 33.1154 83.6303C33.6603 84.0548 34.2209 84.5254 34.8535 84.7773C36.5267 85.4314 38.2302 86.0236 39.9607 86.567C42.0503 87.2336 44.1675 87.7958 46.2605 88.4494C53.4605 90.6827 60.8148 92.2295 68.2184 93.5376C74.3135 94.6101 80.4155 95.6566 86.5044 96.6995C88.8994 97.1115 91.3021 97.4417 93.704 97.8275C94.3226 97.9218 94.9273 98.0683 96.0425 98.2945C93.9218 98.6408 92.2971 98.4893 90.69 98.4824C81.523 98.441 72.3611 98.2751 63.2086 98.8112C59.2987 99.0463 55.4083 99.5244 51.5098 99.8745C45.9757 100.378 40.4285 100.878 34.8882 101.352C31.7684 101.615 28.6363 101.818 25.508 101.534C25.3016 101.521 25.07 101.655 24.862 101.754C24.6043 101.881 24.5343 102.408 24.7749 102.556C25.0416 102.711 25.3109 102.908 25.5923 102.955C26.6753 103.145 27.7617 103.321 28.8427 103.412C33.8422 103.816 38.832 104.204 43.8357 104.539C52.4275 105.113 61.0255 105.717 69.6163 106.137C74.3002 106.359 79.009 106.224 83.7022 106.253C89.0941 106.285 94.499 106.321 99.8874 106.367C100.025 106.375 100.158 106.508 100.291 106.586C100.593 106.554 100.882 106.519 101.185 106.487C101.18 106.556 101.173 106.638 101.168 106.707C100.89 106.647 100.612 106.587 100.334 106.527C98.556 106.797 96.768 107.05 94.9992 107.335C91.7543 107.859 88.4936 108.336 85.2608 108.919C80.3343 109.822 75.4069 110.78 70.4857 111.768C66.8045 112.512 63.1226 113.311 59.466 114.173C52.4523 115.822 45.4317 117.498 38.446 119.253C33.5869 120.481 28.768 121.874 23.9307 123.178C22.9493 123.449 21.9461 123.645 20.9612 123.929C20.599 124.029 20.2517 124.23 19.9174 124.435C19.8451 124.444 19.7731 124.663 19.7941 124.794C19.8152 124.926 19.9442 125.072 20.068 125.133C20.1917 125.194 20.3721 125.2 20.5332 125.172C23.8739 124.604 27.2529 124.788 30.6054 124.545C37.5567 124.026 44.501 123.533 51.4585 123.044C53.0968 122.933 54.7413 122.852 56.3735 122.712C63.2437 122.129 70.1097 121.616 76.9623 120.889C82.8787 120.263 88.7696 119.365 94.6649 118.607C96.2587 118.401 97.8717 118.227 99.5337 118.291C98.8084 118.546 98.0797 118.814 97.3351 119.036C93.9426 120.01 90.5412 120.912 87.174 121.949C83.9583 122.942 80.7548 123.994 77.5959 125.142C69.049 128.246 60.8384 132.138 52.6818 136.142C48.5326 138.175 44.2943 140.015 40.1041 141.939C35.3392 144.13 30.5647 146.304 25.8059 148.524C24.9275 148.934 23.8773 149.201 23.4002 150.208C23.8671 151.031 24.5734 150.953 25.2894 150.891C28.1993 150.628 31.0103 149.948 33.7688 149.043C40.8253 146.705 47.8983 144.358 54.9425 141.961C58.6509 140.693 62.293 139.253 66.0014 137.986C70.5274 136.431 75.0623 134.949 79.6067 133.483C83.9369 132.086 88.2733 130.719 92.6123 129.395C94.029 128.96 95.4929 128.663 96.9742 128.3C96.7057 128.943 96.0445 128.851 95.6014 129.097C95.0556 129.414 94.4845 129.668 93.9134 129.922C84.3346 134.067 75.0752 138.8 66.3553 144.557C61.6393 147.67 57.1937 151.135 52.8415 154.722C48.0611 158.658 43.2938 162.597 38.5361 166.552C37.0288 167.803 35.5668 169.094 34.0422 170.41C34.4421 171.327 35.0601 171.687 35.9222 171.497C36.679 171.334 37.4496 171.119 38.1723 170.821C45.6234 167.734 52.9636 164.381 60.0009 160.429C64.9811 157.638 70.0478 154.995 75.0891 152.291C75.9056 151.85 76.7571 151.488 77.702 151.249C77.3138 151.552 76.9353 151.871 76.534 152.17C72.4895 155.126 68.39 158.025 64.4326 161.074C61.8286 163.083 59.3729 165.271 56.9268 167.475C53.8393 170.251 50.7937 173.08 47.7708 175.929C45.8321 177.751 43.9579 179.646 42.0515 181.504C41.5955 181.957 41.2895 182.477 41.2832 183.133C41.6192 183.712 42.1393 183.808 42.7001 183.593C43.5742 183.252 44.4519 182.897 45.2719 182.443C47.3316 181.325 49.3886 180.164 51.4099 178.98C57.3145 175.553 63.4322 172.588 69.6554 169.806C79.9924 165.177 89.6792 159.466 98.681 152.594C104.844 147.878 110.91 143.053 116.879 138.118C118.868 136.477 120.914 134.88 122.922 133.273C123.35 132.925 123.756 132.557 124.366 132.579C124.692 131.826 124.692 131.826 125.497 131.69C124.984 132.043 124.639 132.287 124.294 132.532C122.857 133.941 121.435 135.396 119.952 136.765C115.42 140.977 110.611 144.863 105.825 148.768C95.4049 157.293 85.2817 166.175 75.9625 175.929C74.024 177.961 72.2372 180.159 70.4217 182.307C67.0942 186.25 63.7764 190.21 60.4812 194.19C59.4895 195.396 58.5789 196.665 57.629 197.924C57.4386 198.167 57.2019 198.426 57.1517 198.721C57.0954 198.986 57.1881 199.374 57.366 199.547C57.5439 199.72 57.9621 199.831 58.1963 199.74C58.6282 199.588 59.0033 199.282 59.3941 199.022C63.2441 196.589 66.6371 193.558 70.1521 190.7C76.9499 185.173 83.7381 179.63 90.4713 174.031C95.9461 169.482 101.421 164.934 106.761 160.209C111.442 156.066 116.186 151.953 120.445 147.347C120.854 146.91 121.433 146.63 121.946 146.277C121.977 146.215 121.994 146.15 122.021 146.101C121.968 146.143 121.928 146.188 121.871 146.243C120.762 147.837 119.721 149.492 118.541 151.039C111.532 160.259 104.407 169.392 97.4918 178.679C91.6443 186.528 86.3878 194.786 81.385 203.196C79.8687 205.745 78.4595 208.365 76.9528 210.931C76.519 211.67 75.9779 212.337 75.4856 213.032C75.2647 213.337 75.0569 213.646 74.7455 214.081C76.029 214.464 77.0453 214.272 77.9505 213.603C78.6302 213.098 79.2689 212.484 79.8422 211.852C81.9651 209.548 84.0522 207.22 86.162 204.912C95.2702 195.004 104.006 184.76 112.304 174.161C113.126 173.12 113.893 172.023 114.729 170.985C115.003 170.638 115.416 170.398 115.762 170.098C115.869 169.903 115.99 169.711 116.101 169.503C116.141 169.458 116.185 169.399 116.225 169.354C116.159 169.392 116.096 169.418 116.017 169.453C116.127 169.776 116.032 169.974 115.69 170.051C115.666 170.353 115.743 170.695 115.621 170.942C111.175 179.681 107.611 188.781 104.081 197.917C101.487 204.629 98.7923 211.301 96.1333 217.996C95.8406 218.73 95.5644 219.454 95.8021 220.245C96.3801 220.65 96.9078 220.455 97.3133 220.086C97.8319 219.609 98.2956 219.074 98.7008 218.496C101.127 214.943 103.589 211.414 105.944 207.813C110.309 201.123 114.143 194.111 118.108 187.188C119.464 184.82 120.557 182.284 121.806 179.846C122.15 179.182 122.225 178.32 123.06 177.968C123.131 177.595 123.202 177.222 123.26 176.846C123.463 177.082 123.476 177.295 123.402 177.471C123.337 177.608 123.162 177.743 123.035 177.905ZM138.788 135.75L138.774 135.592L138.703 135.7C138.582 135.891 138.458 136.096 138.337 136.288C138.359 136.574 138.313 136.799 137.955 136.83C138.295 137.396 137.953 137.893 137.765 138.389C136.434 141.981 135.086 145.582 133.729 149.167C133.504 149.751 133.191 150.298 132.917 150.854C132.024 152.688 131.06 154.475 130.256 156.346C127.731 162.167 125.32 168.033 122.746 173.827C120.322 179.27 117.79 184.642 114.601 189.699C113.315 191.75 112.159 193.892 110.931 195.986C108.432 200.233 105.956 204.501 103.396 208.718C102.471 210.249 101.365 211.676 100.347 213.141C100.293 213.183 100.244 213.212 100.204 213.257C100.28 213.235 100.355 213.213 100.418 213.188C100.093 212.724 100.323 212.281 100.48 211.847C101.354 209.505 102.201 207.156 103.154 204.834C105.85 198.261 108.511 191.664 111.335 185.138C113.541 180.044 115.76 174.953 118.311 170.034C122.202 162.546 126.363 155.2 130.439 147.804C130.654 147.414 131.026 147.121 131.326 146.781C131.255 146.468 131.318 146.233 131.702 146.209C131.853 144.85 132.259 144.006 133.269 142.889C133.486 141.492 133.892 140.648 134.862 139.577C135.13 138.039 135.606 137.088 136.801 135.698C137.068 134.216 137.939 132.517 139.086 131.254C138.989 130.935 139.097 130.739 139.445 130.692C139.665 129.337 140.152 128.347 141.358 126.807C141.479 126.615 141.613 126.427 141.73 126.248C141.794 125.901 141.845 125.551 141.932 125.224C141.946 125.172 142.152 125.185 142.508 125.111C142.163 125.566 141.909 125.89 141.672 126.205C141.73 126.514 141.68 126.752 141.296 126.776C141.124 128.214 140.627 129.243 139.396 130.665C139.493 130.985 139.421 131.203 139.06 131.247C139.09 131.395 139.196 131.577 139.142 131.675C138.49 132.971 137.842 134.254 137.154 135.526C137.1 135.624 136.9 135.641 136.762 135.688C136.548 137.282 136.028 138.291 134.809 139.563C134.665 140.951 134.347 141.622 133.216 142.875C133.171 144.206 132.503 145.246 131.636 146.191C131.516 146.383 131.395 146.575 131.261 146.763C131.478 147.367 131.082 147.807 130.842 148.289C127.534 154.686 124.585 161.262 121.714 167.859C119.675 172.536 117.431 177.089 114.536 181.301C114.174 181.821 113.874 182.371 113.578 182.908C113.305 183.409 113.366 183.915 113.685 183.874C113.945 183.845 114.272 183.666 114.396 183.461C114.964 182.534 115.464 181.548 116.022 180.605C118.234 176.911 120.313 173.139 122.046 169.192C126.656 158.734 131.777 148.509 136.995 138.338C137.266 137.794 137.695 137.335 138.037 136.838C138.015 136.552 138.1 136.337 138.432 136.299C138.332 135.993 138.439 135.797 138.788 135.75ZM170.698 77.318C170.819 77.1262 170.953 76.9379 171.071 76.7592L171.072 76.6477L170.983 76.7218C170.862 76.9136 170.741 77.1054 170.607 77.2937C170.691 77.6098 170.642 77.8485 170.257 77.8724C170.259 78.2365 170.374 78.6449 170.245 78.9743C168.382 83.9361 166.496 88.878 164.581 93.8259C164.418 94.2303 164.088 94.5764 163.836 94.9434C163.795 95.3102 163.744 95.6604 163.703 96.0271C163.569 96.2154 163.438 96.3907 163.317 96.5824C163.349 96.8847 163.287 97.1199 162.929 97.1508C163.194 97.8369 163.088 98.3962 162.413 98.7767C162.466 99.896 161.892 100.737 161.173 101.498C161.056 101.676 160.935 101.868 160.817 102.047C160.709 102.242 160.618 102.428 160.51 102.623L160.466 102.737L160.559 102.65C160.664 102.468 160.784 102.276 160.889 102.094C160.827 101.798 160.935 101.602 161.244 101.544C161.143 100.398 161.566 99.4893 162.475 98.8072C162.17 98.1106 162.609 97.6677 163.013 97.2012C163.147 97.0129 163.268 96.8212 163.402 96.6329C163.532 96.4576 163.666 96.2693 163.797 96.0941C163.838 95.7274 163.88 95.3606 163.921 94.9938C163.725 94.9418 163.399 94.7993 163.342 94.8542C163.008 95.2692 162.694 95.7173 162.454 96.1992C161.466 98.2316 160.515 100.287 159.514 102.316C159.031 103.293 158.509 104.26 157.915 105.18C157.328 106.073 156.579 106.839 155.122 107.11C155.467 106.39 155.677 105.915 155.927 105.449C158.381 100.84 160.902 96.2488 163.294 91.6096C165.37 87.5857 167.296 83.494 169.323 79.4431C169.593 78.8993 169.987 78.4163 170.329 77.9194C170.457 77.7015 170.578 77.5097 170.698 77.318ZM213.147 157.787C212.817 157.923 212.632 157.776 212.515 157.479C212.159 157.343 211.757 157.278 211.465 157.06C210.404 156.261 209.37 155.413 208.329 154.591C202.077 149.629 195.845 144.645 189.557 139.715C187.287 137.937 184.877 136.318 182.523 134.644C181.439 133.88 180.307 133.188 179.206 132.434C176.946 130.883 174.756 129.224 172.418 127.806C169.996 126.337 167.824 124.558 165.679 122.729C162.828 120.293 160.001 117.821 157.173 115.35C156.707 114.946 156.287 114.471 155.901 113.977C155.035 112.865 154.185 111.744 153.372 110.591C153.179 110.316 153.175 109.909 153.061 109.445C154.404 109.55 155.433 110.103 156.417 110.714C157.152 111.161 157.88 111.634 158.602 112.078C161.066 113.599 163.561 115.059 165.974 116.665C169.178 118.775 172.237 121.112 175.478 123.134C178.54 125.038 181.562 126.988 184.51 129.057C185.653 129.865 186.738 130.782 187.878 131.602C189.202 132.57 190.633 133.397 191.894 134.446C199.5 140.732 206.614 147.56 213.195 154.917C213.766 155.559 214.231 156.284 214.736 156.963C214.782 157.003 214.824 157.057 214.869 157.097C214.844 157.034 214.809 156.955 214.783 156.892C213.969 156.956 213.552 156.313 213.037 155.883C209.874 153.196 206.776 150.429 203.566 147.814C195.268 141.022 186.693 134.59 177.84 128.518C176.157 127.371 174.428 126.297 172.699 125.222C171.928 124.752 171.137 124.304 169.966 124.133C170.914 125.462 172.126 126.007 173.181 126.777C180.091 131.788 186.962 136.844 193.899 141.805C199.765 146.007 205.351 150.526 210.579 155.496C211.249 156.135 212.094 156.64 212.435 157.57C212.647 157.668 212.855 157.779 213.067 157.877C213.102 157.901 213.125 157.921 213.157 157.957C213.175 157.892 213.162 157.833 213.147 157.787ZM89.4842 194.559C89.592 194.364 89.6832 194.178 89.791 193.983C89.8988 193.788 89.9901 193.602 90.0979 193.407C90.2057 193.212 90.31 193.03 90.4178 192.834C90.5203 192.554 90.5513 192.226 90.7156 191.976C92.5254 189.323 94.2768 186.626 96.1772 184.052C100.771 177.815 105.414 171.604 110.102 165.434C118.623 154.209 126.991 142.873 134.697 131.082C136.656 128.077 138.95 125.286 141.101 122.401C141.211 122.249 141.416 122.163 141.953 121.774C141.604 122.507 141.458 122.846 141.293 123.152C138.563 128.429 135.793 133.696 133.095 139.01C131.637 141.868 130.364 144.818 128.6 147.512C124.35 153.98 120.168 160.509 115.785 166.901C113.315 170.512 110.582 173.956 107.807 177.346C103.002 183.22 98.1024 189.026 93.1934 194.816C91.0142 197.386 88.7348 199.859 86.5007 202.371C86.1439 202.766 85.8414 203.274 85.2081 203.287C85.1265 203.49 85.0317 203.688 84.9501 203.891L84.8962 203.988L85.0024 203.904C85.0971 203.706 85.1884 203.52 85.2831 203.321C86.3186 201.582 87.26 199.775 88.4123 198.122C92.2485 192.579 96.4316 187.31 100.907 182.258C105.278 177.333 109.316 172.137 113.072 166.74C113.296 166.422 113.524 166.09 113.686 165.742C113.879 165.331 113.845 164.986 113.232 164.978C113.041 165.221 112.838 165.461 112.66 165.707C109.374 170.389 105.949 174.964 102.154 179.245C98.4195 183.458 94.5871 187.617 91.2637 192.178C91.0394 192.496 90.8115 192.827 90.3429 192.8C90.4922 193.134 90.3225 193.299 90.0099 193.37C89.9021 193.565 89.8073 193.764 89.703 193.946C89.6083 194.144 89.5101 194.356 89.4023 194.551L89.3127 194.626L89.4842 194.559ZM128.648 134.737C128.566 134.939 128.494 135.158 128.412 135.36C127.776 136.912 126.569 138.033 125.492 139.244C120.274 145.091 114.71 150.61 108.806 155.772C102.265 161.492 95.6683 167.156 89.0527 172.787C84.8216 176.392 80.5163 179.908 76.2433 183.461C72.4551 186.61 68.6764 189.776 64.862 192.919C64.4504 193.257 63.9393 193.443 63.4631 193.709C63.4511 193.859 63.6039 194.18 63.2134 193.964C63.3161 193.894 63.4188 193.823 63.5215 193.752C63.411 193.009 63.9907 192.618 64.3647 192.157C66.689 189.305 69.0945 186.516 71.3735 183.623C74.8416 179.255 78.7788 175.334 82.7518 171.436C89.8528 164.451 97.4797 158.067 105.116 151.7C110.708 147.029 116.373 142.447 121.687 137.45C126.649 132.779 131.62 128.125 136.605 123.474C137.107 123.006 137.526 122.376 138.311 122.318L138.303 122.134L138.252 122.275C137.06 124.393 135.716 126.4 133.849 128.003C133.251 128.516 132.731 129.105 132.192 129.662C127.959 134.064 123.477 138.191 118.757 142.058C116.038 144.289 113.319 146.519 110.707 148.875C106.363 152.801 102.09 156.829 97.7972 160.824C96.6599 161.893 95.5549 162.999 94.4594 164.121C94.2463 164.344 93.8685 164.608 94.1627 165.133C95.0819 164.622 95.8556 163.974 96.5935 163.302C97.8666 162.143 99.1397 160.984 100.413 159.825C104.973 155.664 109.492 151.449 114.117 147.36C118.507 143.475 123.002 139.716 127.469 135.907C127.742 135.672 128.137 135.553 128.474 135.39C128.556 135.188 128.628 134.969 128.709 134.767C128.696 134.764 128.674 134.744 128.648 134.737ZM69.5223 44.8878L69.4282 44.8208L69.4953 44.9366C69.681 45.0278 69.8762 45.1356 70.0584 45.24C70.5612 45.4014 71.1144 45.4783 71.5667 45.7244C73.4998 46.7693 75.4164 47.8237 77.3026 48.9401C86.7335 54.522 96.0132 60.3575 104.921 66.7517C108.423 69.2626 111.896 71.7797 115.061 74.7186C121.55 80.7366 127.607 87.1714 133.49 93.7841C133.716 94.04 134.133 94.2625 133.964 94.8472C133.407 94.5176 132.884 94.2247 132.367 93.9056C131.297 93.2439 130.271 92.5237 129.188 91.9143C125.573 89.8774 121.932 87.8893 118.314 85.8654C115.854 84.4849 113.368 83.1531 110.975 81.6784C105.972 78.6013 100.992 75.4883 96.0759 72.2943C92.7356 70.1203 89.4527 67.8357 86.5908 65.0192C84.696 63.145 82.7577 61.3293 80.8428 59.4778C76.5666 55.3484 72.4636 51.0412 68.673 46.4531C68.4828 46.2208 68.3823 45.9143 68.2453 45.64C68.0981 45.6149 67.7715 45.7381 68.0229 45.3711C68.0805 45.4703 68.1477 45.5861 68.2053 45.6854C68.9455 45.5321 69.3138 46.1475 69.7941 46.4989C72.5419 48.5856 75.2802 50.6557 77.988 52.7877C80.4395 54.7257 82.8641 56.7125 85.2721 58.709C89.0838 61.8476 92.879 64.9958 96.681 68.1178C97.1414 68.4919 97.5878 68.9182 98.4424 69.0192C97.9953 67.9631 97.2325 67.4108 96.549 66.8236C95.052 65.5587 93.5481 64.32 92.0145 63.0874C86.4575 58.618 80.9102 54.1651 75.3462 49.7219C73.9391 48.5928 72.505 47.5125 71.1145 46.3738C70.7126 46.0432 70.4211 45.5601 70.0827 45.1485C69.9066 45.0738 69.7079 44.979 69.5223 44.8878ZM179.873 143.412C179.756 143.325 179.636 143.251 179.523 143.151C179.477 143.111 179.489 143.016 179.463 142.954C179.551 142.991 179.689 143 179.714 143.062C179.778 143.191 179.779 143.345 179.813 143.48C180.395 143.397 180.468 143.808 180.524 144.229C180.922 144.572 181.39 144.864 181.736 145.25C182.694 146.386 183.635 147.531 184.536 148.721C189.297 154.924 194.054 161.14 198.795 167.366C199.262 167.979 199.854 168.542 199.924 169.386C200.554 169.595 200.552 170.182 200.686 170.68C200.826 170.731 200.957 170.766 201.09 170.843C201.113 170.863 201.098 170.971 201.094 171.04C200.978 170.897 200.862 170.754 200.746 170.612C200.178 170.377 200.031 169.876 199.98 169.331C199.274 169.409 199.089 168.787 198.787 168.399C195.898 164.736 193.012 161.059 190.16 157.364C187.363 153.725 184.589 150.051 181.824 146.393C181.319 145.713 180.689 145.084 180.577 144.187C180.062 144.176 180.043 143.723 179.873 143.412ZM143.541 126.225C143.585 126.587 143.802 126.98 143.349 127.265C143.51 127.658 143.62 128.037 143.121 128.282C143.174 128.66 143.31 129.046 143.255 129.409C142.571 134.04 141.858 138.678 141.148 143.302C141.082 143.76 140.987 144.225 140.865 144.682C139.761 149.16 138.603 153.623 137.567 158.105C134.93 169.619 132.065 181.044 128.098 192.191C126.32 197.204 124.326 202.131 122.257 207.024C121.965 207.702 121.904 208.567 121.056 208.915C121.295 209.595 120.885 210.031 120.498 210.488C120.455 210.547 120.428 210.595 120.384 210.654C120.45 210.615 120.503 210.574 120.57 210.535C120.444 209.9 120.381 209.296 121.104 208.942C120.713 208.307 121.093 207.722 121.258 207.15C122.331 203.322 123.495 199.518 124.515 195.675C125.455 192.133 126.248 188.566 127.071 184.993C127.243 184.241 127.434 183.467 127.108 182.694L127.183 182.728C126.497 183.624 126.399 184.731 126.122 185.776C124.825 190.609 123.632 195.469 122.253 200.293C120.857 205.183 119.317 210.035 117.82 214.884C117.675 215.377 117.702 216.014 117.037 216.201C117.228 216.587 117.177 216.938 116.861 217.232C116.824 217.264 116.797 217.313 116.761 217.345C116.824 217.32 116.873 217.291 116.936 217.265C116.771 216.886 116.567 216.496 117.102 216.218C117.032 215.85 116.87 215.457 116.921 215.107C117.104 213.63 117.299 212.157 117.589 210.695C118.779 204.631 119.995 198.575 121.238 192.525C123.127 183.302 126.107 174.398 129.357 165.579C133.83 153.475 138.613 141.468 142.524 129.159C142.631 128.81 142.69 128.378 143.173 128.296C142.985 127.896 142.889 127.521 143.401 127.279C143.465 126.933 143.526 126.599 143.603 126.256C143.646 126.197 143.677 126.135 143.717 126.09C143.673 126.148 143.607 126.187 143.541 126.225ZM137.223 102.596C137.268 102.636 137.297 102.686 137.342 102.726C137.317 102.663 137.295 102.587 137.27 102.525C136.891 102.634 136.505 102.769 136.189 102.378C135.825 102.435 135.425 102.622 135.173 102.15C134.792 102.161 134.411 102.227 134.034 102.169C132.029 101.819 130.047 101.377 128.028 101.078C119.061 99.7048 110.103 98.3479 101.079 97.2951C91.8382 96.2129 82.6539 94.6559 73.4764 93.0728C63.8312 91.4074 54.2449 89.5199 44.8936 86.5894C44.0152 86.3143 43.0352 86.2639 42.3472 85.5356C42.1573 85.5132 41.9674 85.4907 41.7774 85.4683C41.8305 85.4264 41.9071 85.3488 41.9428 85.3723C42.0666 85.4331 42.1834 85.5201 42.3002 85.6071C43.3886 85.1965 44.4726 85.5403 45.5371 85.641C50.7579 86.1597 55.9622 86.6879 61.1795 87.2197C64.9916 87.6162 68.8254 87.8785 72.609 88.4354C81.9012 89.7971 91.1656 91.2634 100.44 92.7463C106.772 93.7698 113.057 95.0747 119.192 96.9974C122.487 98.026 125.778 99.0119 129.08 100.014C130.804 100.528 132.536 101.016 134.257 101.543C134.606 101.649 135.042 101.695 135.12 102.192C135.519 102.004 135.87 101.999 136.116 102.442C136.522 102.494 136.873 102.545 137.223 102.596ZM194.367 164.441C194.48 164.541 194.597 164.628 194.678 164.747C194.706 164.797 194.619 164.914 194.595 165.005C194.57 164.943 194.531 164.876 194.509 164.801C194.475 164.666 194.445 164.518 194.414 164.37C193.832 164.453 193.833 163.977 193.703 163.621C193.205 163.601 193.072 163.258 193.013 162.85C192.656 162.56 192.243 162.324 191.969 161.986C186.794 155.813 181.477 149.756 176.498 143.425C171.536 137.085 166.912 130.471 162.171 123.98C161.708 123.353 161.368 122.633 161.02 121.94C160.874 121.649 160.607 121.284 161.016 120.903C161.255 121.107 161.519 121.274 161.722 121.51C164.981 125.202 168.22 128.916 171.496 132.598C172.745 134.007 173.914 135.45 174.547 137.283C174.78 137.933 175.195 138.532 175.586 139.112C177.665 142.14 179.69 145.21 181.891 148.145C185.124 152.459 188.497 156.671 191.801 160.934C192.267 161.547 192.896 162.078 192.953 162.918C193.524 162.874 193.527 163.337 193.64 163.702C193.882 163.949 194.125 164.195 194.367 164.441ZM150.61 113.775C150.753 114.289 151.163 114.803 150.572 115.29C150.921 115.872 150.767 116.503 150.716 117.119C150.401 120.463 150.097 123.824 149.809 127.176C148.955 137.4 148.117 147.615 147.254 157.823C146.679 164.68 146.031 171.545 145.482 178.409C144.483 190.973 143.32 203.522 141.41 215.984C141.324 216.521 141.201 217.034 141.007 217.976C140.401 215.255 140.51 212.947 140.75 210.619C141.518 203.141 142.286 195.664 142.982 188.196C143.875 178.612 144.687 169.02 145.525 159.435C145.841 155.769 146.183 152.11 146.456 148.447C146.538 147.294 146.811 146.107 146.332 144.958L146.394 144.989C146.256 145.246 146.039 145.482 145.983 145.747C145.822 146.67 145.687 147.599 145.595 148.526C144.505 160.115 143.411 171.717 142.321 183.306C141.693 189.994 141.077 196.687 140.406 203.378C140.348 203.964 140.545 204.646 139.984 205.126C139.987 205.323 139.991 205.52 139.987 205.379C139.948 205.523 139.997 205.34 140.055 205.173C139.922 204.411 139.677 203.646 139.659 202.872C139.573 197.085 139.46 191.29 139.498 185.508C139.532 178.634 139.613 171.744 140.467 164.891C141.31 158.133 142.054 151.378 142.897 144.62C144.104 134.909 145.7 125.259 147.709 115.691C147.804 115.227 147.883 114.772 148.004 114.315C148.14 113.805 148.436 113.744 149.35 114.042C149.301 115.121 148.981 116.169 148.73 117.221C147.622 121.866 146.862 126.575 146.219 131.315C146.171 131.708 145.944 132.194 146.501 132.467C147.231 131.878 147.184 131.054 147.329 130.295C148.204 125.84 149.04 121.375 149.924 116.937C150.034 116.365 149.953 115.671 150.607 115.314C150.336 114.808 150.33 114.303 150.668 113.819C150.686 113.753 150.703 113.688 150.73 113.639C150.737 113.613 150.796 113.601 150.829 113.582C150.756 113.646 150.683 113.711 150.61 113.775ZM120.703 124.135C120.229 124.975 119.426 125.097 118.582 125.167C118.491 125.353 118.445 125.634 118.283 125.717C117.614 126.127 116.93 126.491 116.223 126.835C108.396 130.759 100.824 135.143 93.4285 139.811C89.0623 142.555 84.6961 145.299 80.2051 147.829C73.8852 151.397 67.437 154.764 60.973 158.085C54.651 161.345 48.2783 164.48 41.8165 167.423C40.9747 167.801 40.1503 168.324 39.1546 168.227C39.1242 168.289 39.0972 168.338 39.0668 168.4C39.1199 168.358 39.173 168.316 39.2296 168.261C39.6298 167.808 40.0011 167.305 40.4563 166.908C42.6858 164.94 44.9475 163.008 47.1901 161.043C52.662 156.242 58.25 151.583 64.3726 147.599C70.3464 143.7 76.4895 140.113 82.9075 137.018C90.1613 133.515 97.5172 130.207 104.86 126.896C111.645 123.843 118.531 121.04 125.663 118.89C127.686 118.28 129.697 117.611 131.72 117.001C131.98 116.916 132.391 116.633 132.621 117.24C129.715 118.595 126.809 119.95 123.91 121.279C118.719 123.65 113.496 125.985 108.306 128.357C104.182 130.242 100.025 132.09 95.9841 134.138C90.261 137.039 84.64 140.136 78.9517 143.117C76.9521 144.167 74.8914 145.131 72.869 146.161C72.3998 146.4 72.1522 146.964 72.397 147.043C72.668 147.129 73.0051 147.176 73.2751 147.108C73.7166 146.973 74.1397 146.75 74.5593 146.54C77.4678 145.017 80.3955 143.528 83.2787 141.943C88.4332 139.128 93.5204 136.198 98.866 133.769C104.274 131.316 109.715 128.899 115.152 126.495C116.294 125.987 117.345 125.244 118.644 125.198C118.913 124.975 119.16 124.677 119.477 124.537C119.89 124.353 120.353 124.294 120.791 124.173C121.204 123.513 121.861 123.463 122.575 123.569C121.935 123.763 121.326 123.951 120.703 124.135ZM152.71 96.8022C153.34 99.9635 152.696 102.968 151.62 105.915C151.408 106.502 150.907 106.649 150.247 106.236C151.003 103.232 151.758 100.229 152.517 97.2127C152.552 97.082 152.694 96.966 152.781 96.8492C152.817 96.6627 152.849 96.4894 152.871 96.2994C152.897 96.3621 152.974 96.4387 152.964 96.4779C152.893 96.5851 152.793 96.6985 152.71 96.8022ZM154.28 102.745C153.854 102.031 153.832 101.269 153.916 100.48C154.227 97.8345 154.426 95.1871 154.831 92.5526C155.331 89.2996 155.936 86.0743 156.57 82.8428C158.037 75.3136 159.397 67.7696 161.103 60.2898C162.654 53.4965 164.585 46.8038 166.385 40.0764C166.6 39.2661 166.705 38.3984 167.349 37.6042C167.505 38.3871 167.436 39.0683 167.39 39.7696C166.871 47.2568 166.405 54.758 165.843 62.2479C164.884 75.2425 161.767 87.7203 156.705 99.7237C156.474 100.278 156.112 100.797 155.806 101.318L155.775 101.435L155.852 101.358C156.038 100.288 156.158 99.2008 156.423 98.1518C157.381 94.2789 158.379 90.4164 159.347 86.5601C159.524 85.8378 159.804 85.1005 159.49 83.9119C159.051 85.2503 158.702 86.1932 158.446 87.1603C157.494 90.7972 156.624 94.4417 155.624 98.0516C155.195 99.6165 155.062 101.274 154.192 102.708C154.16 102.881 154.124 103.068 154.105 103.245C154.077 103.195 154.002 103.105 154.022 103.083C154.096 102.963 154.193 102.862 154.28 102.745ZM215.529 123.414C215.729 123.397 215.926 123.393 216.139 123.38C216.086 123.422 216.036 123.507 215.997 123.496C215.853 123.458 215.716 123.394 215.563 123.339C215.327 123.332 215.09 123.381 214.868 123.322C208.285 121.924 201.71 120.501 195.144 119.093C194.15 118.885 193.163 118.651 192.158 118.482C191.933 118.436 191.534 118.303 191.477 118.889C192.045 119.068 192.629 119.293 193.224 119.423C199.263 120.76 205.285 122.107 211.328 123.376C215.157 124.183 218.976 125.029 222.673 126.332L222.734 126.418L222.69 126.267C221.943 126.712 221.163 126.435 220.393 126.328C216.521 125.79 212.656 125.17 208.776 124.713C200.446 123.733 192.257 122.062 184.151 119.924C178.462 118.428 172.951 116.419 167.471 114.348C165.145 113.465 162.916 112.271 160.671 111.186C159.483 110.604 158.331 109.935 157.186 109.295C157.101 109.245 157.078 109.071 156.954 108.8C157.8 108.829 158.567 108.836 159.32 108.897C165.185 109.362 170.941 110.499 176.705 111.553C180.48 112.248 184.239 112.952 187.916 114.068C193.376 115.741 198.856 117.337 204.302 119.062C207.659 120.121 210.957 121.347 214.286 122.51C214.782 122.698 215.421 122.714 215.529 123.414ZM42.2647 102.499C42.0774 102.519 41.8771 102.536 42.0513 102.512C41.8849 102.454 42.0513 102.512 42.2177 102.57C42.9841 102.424 43.7417 102.205 44.5168 102.131C48.3334 101.773 52.163 101.419 55.9788 101.117C59.1805 100.862 62.3796 100.564 65.5754 100.489C71.6848 100.348 77.7787 100.371 83.8935 100.316C94.3843 100.219 104.873 100.289 115.346 101.153C123.481 101.816 131.469 103.349 139.469 104.885C139.829 104.953 140.321 104.944 140.489 105.576C139.499 105.509 138.566 105.443 137.648 105.367C136.007 105.225 134.374 105.001 132.738 104.945C125.306 104.693 117.864 104.634 110.428 104.66C103.622 104.686 96.8114 104.515 89.9901 104.439C86.2385 104.394 82.4719 104.247 78.7116 104.34C73.7702 104.455 68.854 104.423 63.9226 104.079C60.6393 103.851 57.3587 103.666 54.0781 103.48C50.8794 103.303 47.6703 103.164 44.4655 102.957C43.7311 102.93 42.8952 103.128 42.2647 102.499ZM90.3317 32.854C90.2629 32.8498 90.0868 32.775 90.2847 32.9255C90.5149 33.1126 90.7947 33.2708 90.9848 33.5031C93.2847 36.1704 95.6377 38.7958 97.8314 41.5468C100.798 45.2865 103.622 49.1422 106.519 52.9333C106.934 53.4773 107.222 54.1834 108.063 54.3366C108.225 53.3583 107.673 52.6942 107.168 52.0145C104.733 48.7516 102.35 45.4468 99.8286 42.245C97.5066 39.292 95.0089 36.4743 92.6007 33.5824C92.2946 33.2073 91.863 32.8829 91.8509 32.1381C96.8566 35.9435 101.806 39.5382 105.922 44.1145C108.698 47.202 111.507 50.2703 114.111 53.4799C116.965 57.008 119.624 60.694 122.353 64.3285C124.567 67.2668 126.867 70.144 128.925 73.1948C131.427 76.8949 133.676 80.7521 136.112 84.4906C137.94 87.2986 138.952 90.3932 139.873 93.562C139.939 93.7893 140.157 94.127 139.635 94.3523C138.805 93.0545 137.964 91.7401 137.121 90.4388C134.762 86.8326 132.417 83.2299 130.042 79.6333C129.365 78.6001 128.698 77.5277 127.485 76.6179C127.709 78.1463 128.544 79.1097 129.191 80.149C132.846 85.988 136.5 91.8271 140.138 97.6757C140.295 97.9273 140.336 98.246 140.534 98.8721C138.896 97.4018 137.897 95.8916 136.786 94.4913C132.66 89.2686 128.644 83.9491 124.389 78.8459C118.708 72.0492 113.392 64.9855 108.219 57.8059C102.638 50.0561 97.245 42.1746 91.3519 34.6499C90.9002 34.1382 90.6607 33.4591 90.3317 32.854ZM187.365 202.568C187.898 202.877 188.135 203.304 187.883 204.146C187.683 203.478 187.545 202.994 187.408 202.509C187.216 202.389 186.955 202.319 186.859 202.154C185.596 199.902 184.317 197.659 183.12 195.369C178.955 187.394 174.986 179.316 171.399 171.061C169.679 167.106 167.968 163.169 166.654 159.056C165.396 155.098 164.029 151.182 162.755 147.234C160.819 141.194 158.791 135.185 157.039 129.081C155.55 123.887 154.377 118.609 153.083 113.368C153.061 113.293 153.207 113.164 153.261 113.066C153.424 113.137 153.617 113.147 153.688 113.249C154.858 114.903 156.14 116.503 157.157 118.256C158.719 120.965 160.068 123.786 161.24 126.699C162.294 129.315 163.345 131.945 164.61 134.449C167.869 140.883 170.778 147.475 173.268 154.222C175.364 159.871 177.179 165.628 179.12 171.334C180.101 174.225 181.083 177.115 182.001 180.032C183.355 184.365 184.647 188.723 185.938 193.081C186.176 193.872 186.288 194.713 186.45 195.525C185.367 193.755 184.492 191.941 183.732 190.061C181.784 185.276 179.869 180.473 177.984 175.663C175.884 170.349 173.829 165.018 171.715 159.7C170.924 157.727 170.324 155.665 169.066 153.764C168.778 154.639 169.037 155.296 169.267 155.958C170.221 158.688 171.126 161.447 172.156 164.154C174.596 170.51 177.082 176.851 179.614 183.175C181.89 188.83 184.288 194.448 186.607 200.1C186.969 200.896 187.134 201.751 187.365 202.568ZM135.511 99.665C135.556 99.705 135.614 99.7485 135.656 99.8016C135.618 99.7355 135.579 99.6693 135.541 99.6031C135.085 99.5801 134.615 99.6651 134.187 99.5375C128.567 97.8356 122.903 96.2477 117.344 94.3662C107.846 91.145 98.2691 88.1686 88.6505 85.3491C84.7312 84.1966 80.9067 82.8454 77.175 81.1971C74.5222 80.0171 71.8286 78.9382 69.1516 77.8497C66.1747 76.6257 63.1501 75.5289 60.2271 74.2072C56.0135 72.319 51.8711 70.2678 47.6949 68.2916L47.6242 68.1889L47.661 68.3666C48.6326 67.869 49.5138 68.3968 50.3825 68.6554C55.8013 70.22 61.1931 71.8334 66.585 73.4468C69.2042 74.2261 71.8365 75.0089 74.4315 75.8797C79.3312 77.5024 84.2066 79.2165 89.1098 80.8261C91.4146 81.5779 93.7636 82.2156 96.1031 82.8367C96.8873 83.0449 97.7151 83.4046 98.7512 82.9801C97.5257 82.221 96.3233 81.9018 95.1348 81.5303C91.8567 80.4921 88.5448 79.5288 85.2945 78.3861C77.2403 75.5762 69.1826 72.7793 60.9157 70.6125C58.2721 69.9246 55.6537 69.0895 53.0379 68.2971C52.6232 68.173 52.0788 68.1684 51.9727 67.5666C51.8343 67.6138 51.7185 67.681 51.5739 67.6985C51.4755 67.7004 51.3683 67.6299 51.2672 67.5891C51.3795 67.535 51.4926 67.4251 51.5876 67.4363C51.7087 67.4545 51.8185 67.5676 51.9388 67.6415C52.7185 67.7086 53.499 67.7199 54.2613 67.8524C56.9569 68.3442 59.6455 68.8621 62.3272 69.4062C68.4625 70.6434 74.5493 72.0635 80.5588 73.8269C88.698 76.2117 96.4427 79.555 104.194 82.928C108.206 84.6788 112.136 86.6317 116.115 88.4575C122.735 91.5024 129.06 95.0842 135.121 99.128C135.284 99.255 135.375 99.4892 135.511 99.665ZM46.8697 179.482C46.7567 178.906 47.2294 178.654 47.5452 178.36C49.7667 176.263 51.9944 174.197 54.2386 172.12C58.0821 168.552 61.9449 165.016 66.1303 161.846C77.7849 152.992 89.8958 144.791 102.33 137.11C110.982 131.768 119.858 126.793 128.803 121.977C130.093 121.284 131.361 120.459 132.867 120.215C133.001 119.761 133.292 119.615 133.994 119.815C133.461 119.981 133.128 120.075 132.795 120.168C132.484 121.079 131.591 121.332 130.902 121.764C121.63 127.599 112.551 133.709 103.732 140.21C98.5132 144.057 93.2588 147.881 87.9852 151.671C86.013 153.092 83.977 154.384 81.9725 155.769C81.5616 156.052 80.9617 156.256 81.0565 156.953C81.5683 157.397 81.925 157.002 82.2993 156.751C85.0158 154.898 87.7516 153.078 90.4132 151.168C95.6171 147.429 100.773 143.608 105.98 139.856C114.997 133.351 124.378 127.419 133.693 121.372C134.203 121.032 134.803 120.827 135.351 120.553C135.425 120.433 135.467 120.276 135.57 120.205C135.656 120.144 135.796 120.195 135.924 120.187C135.848 120.265 135.8 120.392 135.707 120.424C135.582 120.474 135.441 120.479 135.296 120.497C135.456 121.001 135.031 121.181 134.758 121.417C133.632 122.391 132.464 123.312 131.338 124.286C126.159 128.829 120.934 133.332 115.454 137.53C107.374 143.723 99.4196 150.076 91.008 155.831C86.2208 159.107 81.2861 162.148 76.1149 164.763C72.2818 166.711 68.391 168.56 64.5326 170.446C59.1907 173.071 53.8426 175.667 48.7146 178.698C48.1157 179.057 47.5386 179.491 46.7816 179.444C46.7504 179.562 46.761 179.733 46.6749 179.794C46.6053 179.845 46.4423 179.774 46.3212 179.756C46.3647 179.697 46.3855 179.619 46.4482 179.594C46.6128 179.553 46.7477 179.519 46.8697 179.482ZM39.35 122.277C40.4002 122.011 41.4573 121.718 42.5233 121.497C44.9774 121.001 47.4376 120.535 49.9013 120.056C50.5953 119.918 51.2921 119.824 51.9923 119.716C55.5552 119.207 59.1251 118.671 62.7003 118.221C66.8241 117.707 70.9464 117.305 75.0729 116.833C80.5137 116.207 85.9641 115.598 91.3953 114.955C94.7336 114.554 98.0789 114.127 101.411 113.697C103.422 113.447 105.427 113.168 107.56 112.881C106.887 112.254 106.272 112.357 105.651 112.43C100.903 112.974 96.1689 113.522 91.4179 114.08C88.1553 114.459 84.892 114.893 81.6233 115.243C78.1247 115.615 74.6015 115.869 71.0968 116.211C65.25 116.786 59.4304 117.521 53.6329 118.542C49.2428 119.322 44.8457 120.127 40.4679 120.965C38.5075 121.34 36.556 121.787 34.5887 122.188C36.7889 121.332 39.0486 120.672 41.3232 120.115C46.6491 118.815 51.9812 117.544 57.3386 116.336C61.9985 115.279 66.6706 114.281 71.355 113.342C75.1972 112.571 79.0824 112.008 82.9089 111.191C88.4266 110.012 93.9715 108.993 99.6059 108.586C104.37 108.242 109.118 107.698 113.894 107.679C117.338 107.67 120.777 107.52 124.232 107.472C129.629 107.379 135.032 107.317 140.432 107.267C140.714 107.258 141.007 107.42 141.373 107.517C141.158 108.272 140.785 108.676 140.098 108.788C137.859 109.159 135.61 109.513 133.377 109.914C129.526 110.612 125.668 111.337 121.833 112.081C116.906 113.039 112.01 114.09 107.083 114.993C102.614 115.807 98.1286 116.575 93.6355 117.215C89.3036 117.827 84.9261 118.19 80.5845 118.786C74.3696 119.641 68.1211 120.094 61.8876 120.65C58.8497 120.921 55.7976 121.034 52.7589 121.36C48.3336 121.85 43.8995 122.268 39.35 122.277ZM31.1675 147.933C31.1326 147.854 31.1011 147.761 31.0662 147.682C32.6716 146.905 34.2673 146.111 35.8954 145.354C41.5753 142.721 47.3189 140.217 52.9254 137.438C62.1266 132.871 71.5112 128.773 81.2006 125.372C83.3469 124.612 85.4897 123.866 87.6736 123.229C91.6627 122.063 95.6543 120.941 99.6679 119.894C104.208 118.707 108.771 117.54 113.352 116.517C117.561 115.578 121.815 114.889 126.029 114.035C130.793 113.061 135.531 112.024 140.285 111.034C141.025 110.881 141.763 110.475 142.552 110.768C142.829 111.835 142.78 112.018 142.082 112.225C140.494 112.67 138.894 113.057 137.317 113.52C132.277 115.008 127.25 116.499 122.225 118.034C118.176 119.267 114.156 120.55 110.119 121.843C107.355 122.718 104.615 123.655 101.86 124.547C95.4506 126.609 89.028 128.667 82.6219 130.716C79.7911 131.629 76.9445 132.496 74.1199 133.439C69.9604 134.825 65.7913 136.195 61.6536 137.657C56.4084 139.496 51.1946 141.428 45.9555 143.297C45.5237 143.448 45.0699 143.523 44.6223 143.628C46.6565 142.237 48.922 141.398 51.1684 140.525C55.1135 138.998 59.0996 137.58 63.0097 135.974C66.7022 134.45 70.4864 133.16 74.2925 131.946C79.8156 130.167 85.3441 128.473 90.8734 126.723C91.1633 126.632 91.6546 126.678 91.7079 125.951C90.471 125.972 89.38 126.34 88.2793 126.691C84.3218 127.949 80.3799 129.253 76.4005 130.435C72.1938 131.683 68.0596 133.132 63.963 134.702C60.5987 135.992 57.2378 137.268 53.8543 138.524C49.8935 140.005 45.9108 141.41 42.102 143.267C39.9185 144.324 37.6967 145.315 35.4687 146.277C34.0826 146.86 32.6189 147.367 31.1675 147.933ZM147.73 104.756C146.95 104.689 146.905 104.229 146.882 103.733C146.806 101.069 146.658 98.4133 146.651 95.7531C146.631 88.0809 146.65 80.4191 146.703 72.7381C146.743 67.2643 146.856 61.7818 146.968 56.2992C147.004 54.2662 147.109 52.2374 147.23 50.199C147.398 47.4593 147.576 44.7362 147.799 41.9974C148.035 39.1078 148.309 36.2287 148.614 33.3434C148.7 32.5968 148.709 31.7737 149.37 30.9698C149.534 31.6151 149.701 32.0931 149.763 32.5992C149.929 33.7627 150.04 34.9254 150.191 36.0986C150.43 37.8831 150.729 39.6554 150.926 41.4426C151.739 48.9197 152.539 56.3933 153.339 63.867C153.961 69.6422 154.004 75.4321 153.379 81.2122C153.11 83.7011 152.72 86.1719 152.408 88.6634C151.757 93.961 150.629 99.1598 149.448 104.345C149.409 104.544 149.508 104.962 148.944 104.925C149.001 104.184 149.074 103.49 149.116 102.802C149.505 97.4904 149.907 92.1826 150.279 86.881C150.377 85.5638 150.406 84.2424 150.055 82.6662C149.431 84.2774 149.477 85.6885 149.358 87.084C148.922 92.4668 148.46 97.8425 147.995 103.231C147.994 103.763 147.832 104.266 147.73 104.756ZM121.173 31.9902C121.587 32.38 121.772 32.527 121.904 32.7159C122.624 33.7464 123.33 34.7735 124.02 35.8101C128.206 42.0702 131.781 48.6854 135.163 55.3897C136.292 57.6201 137.427 59.8801 138.288 62.2215C140.888 69.2916 142.853 76.5427 144.198 83.9652C144.768 87.1387 145.07 90.3247 145.026 93.545C145.026 94.0206 144.884 94.5007 144.789 95.175C144.608 94.805 144.518 94.6692 144.471 94.5308C142.542 87.5131 140.617 80.4823 138.68 73.448C138.408 72.4667 138.154 71.4757 137.807 70.5162C137.658 70.127 137.279 69.8164 136.657 69.0497C136.854 70.2071 136.901 70.8211 137.053 71.4072C138.318 76.1783 139.614 80.9433 140.879 85.7144C142.008 89.9457 143.147 94.1934 144.26 98.4342C144.338 98.7207 144.582 99.0654 144.156 99.5118C143.846 98.9399 143.534 98.4795 143.358 97.9849C142.551 95.7001 141.794 93.3865 141.018 91.0957C140.288 88.9432 139.604 86.775 138.825 84.6514C137.686 81.5647 136.484 78.5034 135.282 75.4421C133.635 71.2132 131.941 67 130.294 62.7711C129.209 60.0067 128.127 57.2292 127.092 54.436C125.849 51.0559 124.652 47.6601 123.438 44.2739C122.086 40.5151 120.75 36.7466 119.41 32.9912C119.284 32.622 119.175 32.2433 119.095 31.8583C119.025 31.49 119.001 31.1058 118.961 30.7313C120.264 32.938 121.326 35.2068 122.488 37.418C123.937 40.1812 125.462 42.9225 126.987 45.6638C127.098 45.8753 127.392 45.9812 127.59 46.1317C125.701 41.3351 123.154 36.9652 121.173 31.9902ZM161.774 202.573C161.296 200.683 160.733 198.799 160.374 196.885C159.18 190.58 157.989 184.262 156.913 177.932C156.02 172.602 155.169 167.27 154.522 161.907C153.583 154.061 152.806 146.187 152.455 138.287C152.259 133.912 152.166 129.522 152.039 125.151C152.016 124.446 151.997 123.727 152.396 122.7C152.631 123.658 152.823 124.254 152.929 124.856C153.28 126.852 153.658 128.855 153.947 130.877C154.79 136.921 155.588 142.981 156.376 149.024C156.783 152.126 157.072 155.253 157.493 158.359C158.533 166.036 159.628 173.714 160.685 181.382C160.771 182.006 160.758 182.632 160.802 183.259C160.843 183.788 160.885 184.317 160.93 184.832C160.087 183 159.834 181.002 158.968 179.205C159.098 183.143 160.237 186.915 160.65 190.788C161.081 194.694 161.925 198.528 161.774 202.573ZM159.592 107.346C159.892 106.376 160.353 106.009 161.039 105.953C165.168 105.58 169.293 105.164 173.438 104.838C181.893 104.186 190.336 104.371 198.763 105.252C198.953 105.274 199.125 105.418 199.581 105.651C195.814 106.609 192.288 107.296 188.713 107.536C183.401 107.889 178.085 108.044 172.797 108.725C171.956 108.837 171.082 108.703 170.224 108.615C167.113 108.265 164.009 107.889 160.902 107.526C160.509 107.477 160.145 107.423 159.592 107.346ZM263.441 64.6829C263.159 64.8461 262.99 65.0109 262.799 65.0442C258.692 65.5487 254.588 66.0401 250.484 66.5315C253.767 65.1787 257.194 64.5495 260.686 64.2034C261.546 64.124 262.532 63.994 263.441 64.6829ZM126.084 130.796C126.321 130.537 126.397 130.04 126.939 130.212C126.712 130.487 126.616 130.952 126.084 130.796ZM141.105 99.7791C141.076 99.7295 141.034 99.6764 141.022 99.6172C141.012 99.6006 141.065 99.5588 141.098 99.5396C141.127 99.5892 141.169 99.6423 141.181 99.7015C141.178 99.7146 141.128 99.7434 141.105 99.7791Z" fill="#00375A"/>
<path d="M127.121 182.698C127.195 182.578 127.295 182.464 127.359 182.328C127.37 182.288 127.292 182.212 127.263 182.162C127.241 182.352 127.219 182.542 127.209 182.735L127.121 182.698Z" fill="#00375A"/>
</g>
</svg>