<svg xmlns="http://www.w3.org/2000/svg" width="25" height="24" viewBox="0 0 25 24" fill="none">
<g clip-path="url(#clip0_1_1390)">
<path d="M16.5547 16.7217C16.3392 16.7217 16.1585 16.549 16.1551 16.3271C16.1518 16.1124 16.3279 15.9369 16.5421 15.9217L23.1357 15.4511C23.2767 15.4411 23.4018 15.3574 23.465 15.231L24.1753 13.8106C24.6108 12.9385 23.9133 11.93 22.9403 12.0336L1.78077 14.3135C0.763363 14.4238 0.0909924 15.4235 0.37183 16.4064L1.38129 19.9393C1.57628 20.6228 2.20925 21.0997 2.91972 21.0997H19.542C20.152 21.0997 20.6999 20.7607 20.9729 20.2153L22.6334 16.8944C22.7719 16.6172 22.5563 16.2944 22.2471 16.3165C22.2246 16.3181 16.5773 16.7217 16.5547 16.7217ZM4.80763 18.4498C4.36655 18.4498 4.00767 18.091 4.00767 17.6499C4.00767 17.2088 4.36655 16.8499 4.80763 16.8499C5.24872 16.8499 5.6076 17.2088 5.6076 17.6499C5.6076 18.091 5.24872 18.4498 4.80763 18.4498ZM7.8075 18.4498C7.36642 18.4498 7.00754 18.091 7.00754 17.6499C7.00754 17.2088 7.36642 16.8499 7.8075 16.8499C8.24858 16.8499 8.60747 17.2088 8.60747 17.6499C8.60747 18.091 8.24858 18.4498 7.8075 18.4498ZM16.4819 10.8211L10.4258 11.0997C10.195 11.1105 9.99941 10.9225 10.0077 10.6852C10.015 10.475 10.1917 10.3097 10.4018 10.3001L15.5269 10.0643C15.8341 10.0501 16.0111 9.70903 15.8458 9.44974L15.4401 8.81327C15.0581 8.2133 14.3787 7.86081 13.6687 7.88981L4.4221 8.28529C3.34865 8.33129 2.50769 9.20875 2.50769 10.2832V12.9856C2.50769 13.2235 2.71398 13.4088 2.95047 13.3833C5.28356 13.1315 14.1215 12.1792 16.7224 11.8991C17.0174 11.8673 17.176 11.5367 17.0165 11.2865C16.8577 11.0371 16.7655 10.808 16.4819 10.8211ZM6.13808 11.3531C6.05578 11.156 6.14428 10.9183 6.35457 10.8306C6.61396 10.723 6.90754 10.9127 6.90754 11.2002C6.90754 11.6319 6.30677 11.758 6.13808 11.3531ZM8.10749 11.6001C7.8876 11.6001 7.70751 11.4219 7.70751 11.2002C7.70751 10.9442 7.94285 10.7587 8.18549 10.8082C8.37768 10.8457 8.50747 11.015 8.50747 11.2002C8.50747 11.4213 8.32783 11.6001 8.10749 11.6001ZM9.65647 7.26074C8.22133 7.32168 7.43377 7.35608 5.80189 7.42553C5.5745 7.43523 5.38461 7.25349 5.38461 7.0259C5.38461 5.77465 6.36457 4.90039 7.47102 4.90039H8.80746C8.95495 4.90039 9.09095 4.98189 9.16044 5.11238L9.99271 6.67286C10.1313 6.93275 9.95071 7.24824 9.65647 7.26074Z" />
</g>
<defs>
<clipPath id="clip0_1_1390">
<rect width="24" height="24" fill="white" transform="translate(0.307678)"/>
</clipPath>
</defs>
</svg>