<svg xmlns="http://www.w3.org/2000/svg" width="18" height="16" viewBox="0 0 18 16" fill="none">
<path fill-rule="evenodd" clip-rule="evenodd" d="M12.7714 0.50004L5.21381 0.5C2.57253 0.5 0.666992 2.63459 0.666992 5.38248V10.6175C0.666992 13.3654 2.57253 15.5 5.21381 15.5H12.7644C14.033 15.4858 15.2338 14.9517 16.0941 14.0221C16.9544 13.0925 17.3992 11.8486 17.3247 10.58L17.3258 5.38248C17.3992 4.15142 16.9544 2.90746 16.0941 1.97787C15.2338 1.04828 14.033 0.514209 12.7714 0.50004ZM5.21381 1.77369L12.7573 1.77365C13.6731 1.78393 14.5447 2.1716 15.1692 2.84635C15.7936 3.52111 16.1164 4.42406 16.0624 5.34491L16.0613 10.6175C16.1164 11.5759 15.7936 12.4789 15.1692 13.1536C14.5447 13.8284 13.6731 14.2161 12.7573 14.2263L5.21381 14.2263C3.30265 14.2263 1.93152 12.6904 1.93152 10.6175V5.38248C1.93152 3.30963 3.30265 1.77369 5.21381 1.77369ZM14.0204 5.19864C13.8021 4.92405 13.4043 4.87963 13.1316 5.09942L9.71557 7.85354L9.61766 7.92235C9.21488 8.17462 8.68598 8.15132 8.30017 7.84843L4.85913 5.09776L4.78168 5.04467C4.51479 4.88939 4.16817 4.95026 3.97083 5.20071C3.75376 5.47622 3.79952 5.8768 4.07305 6.09544L7.51844 8.84957L7.65286 8.94795C8.51957 9.53824 9.66812 9.50561 10.4994 8.85302L13.9218 6.09379L13.9905 6.02959C14.2003 5.80218 14.2187 5.44827 14.0204 5.19864Z" fill="white" fill-opacity="0.8"/>
</svg>