<svg xmlns="http://www.w3.org/2000/svg" width="36" height="36" viewBox="0 0 36 36" fill="none">
<path d="M17.9992 35.9997C13.252 36.0257 8.6839 34.1352 5.27435 30.7334C3.6069 29.0869 2.28007 27.11 1.37366 24.9217C0.467256 22.7335 0 20.379 0 18C0 15.6209 0.467256 13.2665 1.37366 11.0782C2.28007 8.88996 3.6069 6.9131 5.27435 5.26656C8.6839 1.86477 13.252 -0.0257858 17.9992 0.000265705C22.7478 -0.024346 27.3166 1.86852 30.7257 5.27285C32.3931 6.91939 33.7199 8.89624 34.6263 11.0845C35.5327 13.2728 36 15.6272 36 18.0063C36 20.3853 35.5327 22.7398 34.6263 24.928C33.7199 27.1163 32.3931 29.0931 30.7257 30.7397C27.3147 34.1394 22.7461 36.0277 17.9992 35.9997ZM14.1891 14.9015V18.2264H15.9919V27.6585H19.8081V18.2264H22.3665L22.7024 14.9015H19.802V12.9365C19.7912 12.8008 19.8101 12.6644 19.8574 12.5373C19.9047 12.4103 19.9792 12.2958 20.0753 12.2023C20.225 12.0839 20.4101 12.0227 20.5989 12.0294H22.6535V8.78947L19.8234 8.76903C18.9761 8.73557 18.1399 8.97696 17.4329 9.45915C16.9032 9.85145 16.501 10.3994 16.2789 11.0312C16.0824 11.5756 15.9856 12.1529 15.9934 12.7337V14.9015H14.1891Z" fill="white" fill-opacity="0.8"/>
</svg>