<svg width="20" height="20" fill="none"><path d="M2.047 11.896h15.906M4.014 15.021h1.282M7.435 15.021h1.282M10.855 15.021h1.284M14.276 15.021h1.283M13.642 1.367a1.482 1.482 0 011.148 1.43 1.467 1.467 0 01-.685 1.272L5.653 9.32a.52.52 0 01-.573-.017L1.98 7.126a.286.286 0 01.006-.451l1.3-1.147a.286.286 0 01.277-.047l1.629.97L7.26 5.01 3.343 2.583a.357.357 0 01.017-.556l.957-.709a.357.357 0 01.333-.048l5.398 2.01 2.5-1.704a1.386 1.386 0 011.094-.209v0zM11.25 8.77h4.879a1.29 1.29 0 011.259.947l1.948 7.5a1.26 1.26 0 01-1.26 1.554H1.925a1.26 1.26 0 01-1.258-1.554l1.705-6.565" stroke="#000" stroke-linecap="round" stroke-linejoin="round"></path></svg>