<svg xmlns="http://www.w3.org/2000/svg" width="36" height="36" viewBox="0 0 36 36" fill="none">
<path fill-rule="evenodd" clip-rule="evenodd" d="M18 36C27.9411 36 36 27.9411 36 18C36 8.05887 27.9411 0 18 0C8.05887 0 0 8.05887 0 18C0 27.9411 8.05887 36 18 36ZM16.2991 14.7842L18.423 12.8067C17.0135 11.4945 15.1386 10.7747 13.1973 10.8005C11.8224 10.7896 10.4702 11.1455 9.28497 11.8304C8.11589 12.4938 7.14306 13.4454 6.46253 14.5912C5.75707 15.7532 5.38975 17.0832 5.40063 18.4362C5.39188 19.7976 5.75886 21.1359 6.46253 22.3087C7.14306 23.4545 8.11589 24.4061 9.28497 25.0695C10.4734 25.733 11.8145 26.0875 13.1812 26.0995C14.548 26.1115 15.8952 25.7806 17.0956 25.1382C18.2066 24.5142 19.117 23.5961 19.7231 22.4886C20.3622 21.3009 20.6844 19.9732 20.6593 18.6298C20.676 18.1967 20.6384 17.7632 20.5475 17.339H13.1973V19.9756H17.6126C17.5272 20.4585 17.3366 20.9176 17.0537 21.3213C16.7105 21.8783 16.2299 22.3412 15.6564 22.6671C14.9077 23.0849 14.0572 23.2938 13.1966 23.2713C12.3459 23.278 11.5096 23.0547 10.7793 22.6259C10.0472 22.2001 9.44046 21.5943 9.01879 20.8682C8.58849 20.1328 8.36204 19.2993 8.36204 18.451C8.36204 17.6026 8.58849 16.7692 9.01879 16.0338C9.44272 15.3057 10.0487 14.696 10.7793 14.2623C11.4253 13.8833 12.1539 13.6607 12.9047 13.6129C13.6555 13.5652 14.4072 13.6936 15.0975 13.9877C15.5398 14.1866 15.9458 14.4557 16.2991 14.7842ZM27.6448 17.3383V15.1687H25.4092V17.3383H23.2015V19.5355H25.4092V21.7052H27.6448V19.5355H29.8804V17.3383H27.6448Z" fill="white" fill-opacity="0.8"/>
</svg>