<svg width="24" height="24" fill="none" class="svgFillAll jss1209">
    <g clip-path="url(#icon_bed_double_svg__clip0)" fill="#718096">
        <path d="M22.5 11.75h-21a1.5 1.5 0 00-1.5 1.5v4a1.5 1.5 0 001.125 1.45.5.5 0 01.375.483v1.067a1 1 0 102 0v-1a.5.5 0 01.5-.5h16a.5.5 0 01.5.5v1a1 1 0 002 0v-1.064a.5.5 0 01.375-.483A1.5 1.5 0 0024 17.25v-4a1.5 1.5 0 00-1.5-1.5zM2.5 10.25a.5.5 0 00.5.5h18a.5.5 0 00.5-.5v-5a2.5 2.5 0 00-2.5-2.5H5a2.5 2.5 0 00-2.5 2.5v5zm4-3h2a2.5 2.5 0 012.166 1.25.5.5 0 01-.433.75H4.767a.5.5 0 01-.433-.75A2.5 2.5 0 016.5 7.25zm9 0h2a2.5 2.5 0 012.166 1.25.5.5 0 01-.433.75h-5.466a.5.5 0 01-.433-.75A2.5 2.5 0 0115.5 7.25z"/>
    </g>
    <defs>
        <clipPath id="icon_bed_double_svg__clip0">
            <path fill="#fff" d="M0 0h24v24H0z"/>
        </clipPath>
    </defs>
</svg>
