<svg width="24" height="24" fill="none" class="svgFillAll jss3089"><path d="M21 11.75H3a1.5 1.5 0 00-1.5 1.5v4a1.5 1.5 0 001.125 1.45.5.5 0 01.375.483v1.067a1 1 0 102 0v-1a.5.5 0 01.5-.5h13a.5.5 0 01.5.5v1a1 1 0 002 0v-1.064a.5.5 0 01.375-.483A1.5 1.5 0 0022.5 17.25v-4a1.5 1.5 0 00-1.5-1.5zM4 10.25a.5.5 0 00.5.5h15a.5.5 0 00.5-.5v-5a2.5 2.5 0 00-2.5-2.5h-11A2.5 2.5 0 004 5.25v5zm7-3h2a2.5 2.5 0 012.166 1.25.5.5 0 01-.433.75H9.267a.5.5 0 01-.433-.75A2.5 2.5 0 0111 7.25z" fill="#A0AEC0"></path></svg>