<svg xmlns="http://www.w3.org/2000/svg" width="23" height="22" viewBox="0 0 23 22" fill="none">
<path d="M7.10187 6.72925H6.63206C6.51361 6.72925 6.41705 6.82593 6.41705 6.94439V7.30253H7.31688V6.94439C7.31688 6.82593 7.2202 6.72925 7.10187 6.72925Z" />
<path d="M6.41705 8.51099H7.31688V9.08439H6.41705V8.51099Z" />
<path d="M21.0266 20.0932H20.7959V12.9092H21.0266C21.3602 12.9092 21.6309 12.6388 21.6309 12.3049C21.6309 11.9713 21.3602 11.7007 21.0266 11.7007H11.9226V12.9092H1.81168V20.0932H1.61027C1.27667 20.0932 1.00602 20.3636 1.00602 20.6974C1.00602 21.031 1.27667 21.3017 1.61027 21.3017H21.0266C21.3602 21.3017 21.6309 21.031 21.6309 20.6974C21.6309 20.3636 21.3602 20.0932 21.0266 20.0932ZM8.52562 20.0932H7.31713V15.8002C7.31713 15.6819 7.22007 15.5859 7.10086 15.5859H6.63395C6.51461 15.5859 6.4173 15.6819 6.4173 15.8002V20.0932H5.20906V15.8002C5.20906 15.0155 5.84793 14.3771 6.63395 14.3771H7.10086C7.88638 14.3771 8.52562 15.0155 8.52562 15.8002V20.0932ZM19.3444 20.0932H18.1359V19.2243H14.5104V20.0932H13.3019V14.78C13.3019 14.3361 13.6634 13.9743 14.1076 13.9743H18.5391C18.9831 13.9743 19.3444 14.3361 19.3444 14.78V20.0932Z" />
<path d="M1.61039 11.7004C1.2768 11.7004 1.00615 11.9713 1.00615 12.3047C1.00615 12.6388 1.2768 12.9092 1.61039 12.9092H1.81181V11.7004H1.61039Z" />
<path d="M14.5106 15.1829H18.136V16.0839H14.5106V15.1829Z" />
<path d="M14.5106 17.2122H18.136V18.1768H14.5106V17.2122Z" />
<path d="M1.93342 4.95593L6.71842 1.92727C6.80893 1.87011 6.92563 1.87011 7.01614 1.92727L11.8011 4.95593C11.9015 5.0195 12.0133 5.04971 12.1238 5.04971C12.3241 5.04971 12.5198 4.95026 12.6349 4.76849C12.8133 4.4865 12.7294 4.11326 12.4474 3.93488L7.66243 0.906089C7.17954 0.600314 6.55528 0.600314 6.07226 0.906089L1.28712 3.93488C1.00514 4.11326 0.921302 4.4865 1.09981 4.76849C1.27819 5.05047 1.65143 5.13456 1.93342 4.95593Z" />
<path d="M7.01614 3.13564C6.9255 3.07849 6.80881 3.07849 6.71842 3.13564L1.81168 6.25078V11.7007H11.9226V6.20534L7.01614 3.13564ZM8.52562 9.64577C8.52562 10.0028 8.23546 10.2928 7.87858 10.2928H5.85573C5.49885 10.2928 5.20881 10.0028 5.20881 9.64577V6.94441C5.20881 6.15939 5.84768 5.52078 6.63232 5.52078H7.10212C7.88663 5.52078 8.52562 6.15939 8.52562 6.94441V9.64577Z" />
</svg>