<svg xmlns="http://www.w3.org/2000/svg" width="58" height="64" viewBox="0 0 58 64" fill="none">
<path d="M42.5001 49.5C41.8101 49.5 41.2501 50.06 41.2501 50.75C41.2501 51.44 41.8101 52 42.5001 52C43.1901 52 43.7501 51.44 43.7501 50.75C43.7501 50.06 43.1901 49.5 42.5001 49.5Z" fill="#79BEE6"/>
<path d="M45.5778 45.4579L39.6365 43.4779L37.5036 39.212C39.4251 37.2563 40.7593 34.6685 41.2091 31.9694L41.4751 30.375H43.75C45.8178 30.375 47.5 28.6927 47.5 26.625V18.75C47.5 8.41125 39.0888 0 28.75 0C18.3848 0 10 8.38713 10 18.75V26.625C10 28.2545 11.0451 29.644 12.5 30.16V31.625C12.5 33.6927 14.1823 35.375 16.25 35.375H17.3478C17.8896 36.5521 18.591 37.6424 19.4445 38.6217C19.6215 38.8252 19.8061 39.0225 19.9953 39.2144L17.8635 43.4779L11.9221 45.458C5.014 47.7615 0 55.0339 0 62.75C0 63.4404 0.559625 64 1.25 64H56.25C56.9403 64 57.5 63.4404 57.5 62.75C57.5 55.0339 52.4861 47.7615 45.5778 45.4579ZM45 26.625C45 27.3143 44.4393 27.875 43.75 27.875H41.8423C42.16 25.4137 42.3718 22.7946 42.4569 20.215C42.4594 20.1423 42.4614 20.0715 42.4636 20H45V26.625ZM13.75 27.875C13.0608 27.875 12.5 27.3143 12.5 26.625V20H15.0373C15.0414 20.1304 15.0458 20.2614 15.0506 20.3932C15.0508 20.3977 15.051 20.4021 15.0511 20.4066C15.0511 20.407 15.0511 20.4074 15.0511 20.4077C15.1386 22.9167 15.3476 25.4679 15.6581 27.8749H13.75V27.875ZM16.25 32.875C15.5608 32.875 15 32.3143 15 31.625V30.375H16.0248L16.2908 31.9699C16.3415 32.273 16.4039 32.575 16.476 32.875H16.25ZM15.0021 17.5H12.5475C13.1806 9.12237 20.1721 2.5 28.75 2.5C37.2898 2.5 44.312 9.1215 44.9524 17.5H42.498C42.408 10.5966 36.7864 5 29.8689 5H27.6314C20.714 5 15.092 10.5966 15.0021 17.5ZM27.6313 7.5H29.8688C35.4699 7.5 40.0033 12.0814 40 17.6763C40 18.0696 39.9969 18.4121 39.9903 18.7237C39.9903 18.7277 39.9901 18.7319 39.9901 18.736L38.4266 18.5126C34.1791 17.9061 30.1686 15.9009 27.1339 12.8661C26.8994 12.6318 26.5815 12.5 26.25 12.5C22.893 12.5 19.6795 14.0295 17.5553 16.6135C18.0788 11.5236 22.3816 7.5 27.6313 7.5ZM19.0675 32.875C18.4418 30.7934 17.7258 24.6684 17.5675 20.7434L19.2499 18.5001C20.795 16.4406 23.1989 15.161 25.756 15.0141C29.1206 18.2161 33.4734 20.3306 38.0731 20.9874L39.9134 21.2504C39.7904 23.861 39.539 26.4808 39.1789 28.8901C39.1788 28.8909 39.1786 28.8918 39.1785 28.8926C39.064 29.6673 38.9738 30.1657 38.7433 31.5581C38.0813 35.5287 35.1185 39.1194 31.2074 40.0973C29.5978 40.4991 27.902 40.499 26.2933 40.0973C23.8511 39.4868 21.6119 37.797 20.1668 35.375H22.715C23.231 36.8299 24.6204 37.875 26.25 37.875H28.75C30.8219 37.875 32.5 36.197 32.5 34.125C32.5 32.0573 30.8178 30.375 28.75 30.375H26.25C24.5841 30.375 23.2153 31.451 22.7129 32.875H19.0675ZM26.1449 42.627C27.0023 42.8076 27.8764 42.9 28.75 42.9C29.4339 42.9 30.1179 42.8428 30.7941 42.7318L28.5854 45.0676L26.1449 42.627ZM26.8669 46.8849L22.9021 51.0776C21.8106 48.9884 20.8728 46.814 20.1035 44.588L21.5924 41.6102L26.8669 46.8849ZM35.6958 41.1867L37.3963 44.5879C36.6258 46.8176 35.6876 48.9927 34.5973 51.0795L30.3538 46.836L35.6958 41.1867ZM25 34.125C25 33.4349 25.5598 32.875 26.25 32.875H28.75C29.4393 32.875 30 33.4357 30 34.125C30 34.8153 29.4401 35.375 28.75 35.375H26.25C25.5608 35.375 25 34.8143 25 34.125ZM2.55 61.5C3.04538 55.3076 7.1665 49.6791 12.7128 47.8296L17.9745 46.0761C18.9385 48.7418 20.1328 51.3326 21.5324 53.7936C21.5348 53.7979 21.537 53.8021 21.5394 53.8063L21.5395 53.8065C22.5621 55.6051 23.7131 57.3628 24.961 59.0314L26.4988 61.5H2.55ZM28.75 60.3857L27.0548 57.6641C27.0358 57.6336 27.0155 57.604 26.994 57.5752C25.9818 56.225 25.0375 54.8129 24.1775 53.3675L28.6354 48.6533L33.3326 53.3505C32.4669 54.8064 31.5194 56.2244 30.5063 57.575C30.445 57.6566 30.5319 57.528 28.75 60.3857ZM31.0013 61.5L32.5389 59.0315C33.7923 57.3565 34.9515 55.5848 35.9844 53.765C35.9906 53.754 35.9965 53.7428 36.0028 53.7318C36.0035 53.7304 36.0043 53.7291 36.005 53.7277C37.3869 51.2902 38.5686 48.7219 39.5255 46.0761L44.7871 47.8296C50.3335 49.6791 54.4546 55.3076 54.95 61.5H31.0013Z" fill="#79BEE6"/>
<path d="M51.1945 56.4411C50.3592 54.7689 49.1355 53.2834 47.6559 52.1452C47.1087 51.7241 46.3239 51.8264 45.903 52.3737C45.482 52.9209 45.5844 53.7057 46.1315 54.1267C47.3133 55.0358 48.2905 56.2224 48.9579 57.5583C49.267 58.1769 50.0183 58.4259 50.6348 58.1179C51.2523 57.8094 51.5029 57.0587 51.1945 56.4411Z" fill="#79BEE6"/>
</svg>