<svg xmlns="http://www.w3.org/2000/svg" width="61" height="60" viewBox="0 0 61 60" fill="none">
<path d="M40.5457 38.5801C39.1073 38.5801 37.937 37.5672 37.937 36.3223C37.937 35.0772 39.1073 34.0643 40.5457 34.0643C41.9842 34.0643 43.1544 35.0772 43.1544 36.3223C43.1544 36.977 43.6854 37.508 44.3402 37.508C44.995 37.508 45.5259 36.977 45.5259 36.3223C45.5259 34.1493 43.9069 32.3223 41.7315 31.8264V31.2097C41.7315 30.5549 41.2005 30.0239 40.5457 30.0239C39.8909 30.0239 39.3599 30.5549 39.3599 31.2097V31.8264C37.1845 32.3223 35.5655 34.1493 35.5655 36.3223C35.5655 38.8749 37.7996 40.9516 40.5457 40.9516C41.9842 40.9516 43.1544 41.9645 43.1544 43.2096C43.1544 44.4546 41.9842 45.4675 40.5457 45.4675C39.1073 45.4675 37.937 44.4546 37.937 43.2096C37.937 42.5548 37.406 42.0238 36.7513 42.0238C36.0965 42.0238 35.5655 42.5548 35.5655 43.2096C35.5655 45.3825 37.1845 47.2095 39.3599 47.7054V48.2176C39.3599 48.8724 39.8909 49.4034 40.5457 49.4034C41.2005 49.4034 41.7315 48.8724 41.7315 48.2176V47.7054C43.9069 47.2095 45.5259 45.3825 45.5259 43.2096C45.5259 40.6568 43.2918 38.5801 40.5457 38.5801Z" fill="#79BEE6"/>
<path d="M53.5334 31.5267C51.9844 29.1131 49.8021 27.1817 47.2225 25.9416C46.6321 25.6578 45.9236 25.9063 45.6399 26.4966C45.3562 27.0869 45.6046 27.7952 46.1949 28.079C50.6903 30.2399 53.5948 34.8572 53.5948 39.8419C53.5948 41.9749 53.069 44.0902 52.0745 45.9594C51.7669 46.5375 51.9862 47.2556 52.5644 47.5632C52.7418 47.6576 52.9324 47.7024 53.1202 47.7024C53.5445 47.7024 53.9549 47.474 54.1681 47.0733C55.3445 44.8626 55.9663 42.3619 55.9663 39.8419C55.9663 36.8822 55.125 34.0069 53.5334 31.5267Z" fill="#79BEE6"/>
<path d="M42.4103 24.4271L42.3305 24.427C41.6757 24.427 41.1447 24.9579 41.1447 25.6128C41.1447 26.2677 41.6757 26.7985 42.3305 26.7985L42.3991 26.7987C42.401 26.7987 42.4028 26.7987 42.4048 26.7987C43.0571 26.7987 43.5874 26.2715 43.5905 25.6185C43.5934 24.9636 43.0651 24.4302 42.4103 24.4271Z" fill="#79BEE6"/>
<path d="M34.909 51.6048C30.4137 49.4438 27.5092 44.8265 27.5092 39.8419C27.5092 37.7089 28.0349 35.5936 29.0294 33.7244C29.337 33.1463 29.1178 32.4282 28.5396 32.1206C27.9617 31.813 27.2433 32.0323 26.9359 32.6105C25.7595 34.8213 25.1376 37.3219 25.1376 39.8419C25.1376 42.8016 25.9789 45.6768 27.5706 48.1571C29.1196 50.5707 31.3019 52.5021 33.8815 53.7423C34.0471 53.822 34.2222 53.8596 34.3945 53.8596C34.836 53.8596 35.2598 53.6119 35.464 53.1873C35.7475 52.5971 35.4992 51.8886 34.909 51.6048Z" fill="#79BEE6"/>
<path d="M38.7735 52.8853L38.7049 52.885C38.047 52.8838 37.5167 53.4102 37.5137 54.0652C37.5107 54.7201 38.0393 55.2535 38.6941 55.2565L38.7735 55.2568C39.4283 55.2568 39.9593 54.7258 39.9593 54.071C39.9593 53.4162 39.4283 52.8853 38.7735 52.8853Z" fill="#79BEE6"/>
<path d="M45.9377 20.4151C45.7934 20.0713 45.6166 19.7472 45.4109 19.4466H48.4979C51.5055 19.4466 53.9525 16.9997 53.9525 13.9921C53.9525 10.9845 51.5055 8.53753 48.4979 8.53753H39.0023C39.606 7.65983 39.9604 6.59797 39.9604 5.45453C39.9604 2.44695 37.5134 0 34.5059 0H5.45453C2.44695 0 0 2.44695 0 5.45453C0 8.46212 2.44695 10.9091 5.45453 10.9091H14.9502C14.3465 11.7868 13.9921 12.8486 13.9921 13.9921C13.9921 15.1355 14.3464 16.1974 14.9502 17.0751H11.8577C8.8501 17.0751 6.40315 19.522 6.40315 22.5296C6.40315 24.2569 7.21113 25.7983 8.46817 26.7984C7.21113 27.7984 6.40315 29.3398 6.40315 31.0671C6.40315 32.7944 7.21113 34.3358 8.46817 35.3359C7.21113 36.336 6.40315 37.8774 6.40315 39.6047C6.40315 41.332 7.21113 42.8734 8.46817 43.8734C7.21113 44.8735 6.40315 46.4149 6.40315 48.1422C6.40315 51.1498 8.8501 53.5967 11.8577 53.5967H25.832C29.5133 57.5343 34.7504 60 40.5534 60C51.6686 60 60.7115 50.9571 60.7115 39.8419C60.7115 30.5909 54.447 22.7766 45.9377 20.4151ZM48.4979 10.9091C50.198 10.9091 51.5809 12.2921 51.5809 13.9921C51.5809 15.692 50.198 17.0751 48.4979 17.0751H40.909H19.4466C17.7466 17.0751 16.3636 15.692 16.3636 13.9921C16.3636 12.2921 17.7466 10.9091 19.4466 10.9091H48.4979ZM5.45453 8.53753C3.7545 8.53753 2.37154 7.15445 2.37154 5.45453C2.37154 3.75462 3.7545 2.37154 5.45453 2.37154H34.5059C36.2059 2.37154 37.5889 3.75462 37.5889 5.45453C37.5889 7.15445 36.2059 8.53753 34.5059 8.53753H5.45453ZM11.8577 19.4466H40.909C41.3866 19.4466 41.844 19.5576 42.2543 19.7563C41.6934 19.7092 41.1264 19.6839 40.5534 19.6839C34.9868 19.6839 29.9402 21.9521 26.2887 25.6126H11.8577C10.1578 25.6126 8.77469 24.2295 8.77469 22.5296C8.77469 20.8297 10.1578 19.4466 11.8577 19.4466ZM11.8577 27.9841H24.2626C22.9165 29.8284 21.8758 31.9084 21.2148 34.1501H11.8577C10.1576 34.1501 8.77469 32.7672 8.77469 31.0671C8.77469 29.3672 10.1576 27.9841 11.8577 27.9841ZM11.8577 36.5217H20.6703C20.4904 37.6023 20.3953 38.7111 20.3953 39.8419C20.3953 40.8079 20.4652 41.7577 20.5972 42.6877H11.8577C10.1576 42.6877 8.77469 41.3047 8.77469 39.6047C8.77469 37.9046 10.1576 36.5217 11.8577 36.5217ZM11.8577 51.2252C10.1576 51.2252 8.77469 49.8422 8.77469 48.1422C8.77469 46.4422 10.1576 45.0592 11.8577 45.0592H21.0813C21.6796 47.29 22.6516 49.369 23.9263 51.2252H11.8577ZM40.5534 57.6285C30.7459 57.6285 22.7669 49.6494 22.7669 39.8419C22.7669 30.0344 30.7459 22.0554 40.5534 22.0554C50.3609 22.0554 58.3399 30.0344 58.3399 39.8419C58.3399 49.6494 50.3609 57.6285 40.5534 57.6285Z" fill="#79BEE6"/>
</svg>