<svg xmlns="http://www.w3.org/2000/svg" width="64" height="64" viewBox="0 0 64 64" fill="none">
  <path fill-rule="evenodd" clip-rule="evenodd" d="M29.6506 57.645C29.9958 57.0472 29.791 56.2827 29.1931 55.9375L12.7308 46.4331C12.133 46.088 11.3685 46.2928 11.0233 46.8907C10.6781 47.4886 10.883 48.253 11.4809 48.5982L27.9431 58.1026C28.541 58.4478 29.3055 58.2429 29.6506 57.645ZM34.3476 57.643C34.6927 58.2409 35.4572 58.4458 36.0551 58.1006L52.6515 48.5187C53.2493 48.1735 53.4542 47.409 53.109 46.8112C52.7638 46.2133 51.9993 46.0085 51.4015 46.3536L34.8051 55.9355C34.2072 56.2807 34.0024 57.0452 34.3476 57.643ZM8.61435 42.6718C9.30471 42.6718 9.86435 42.1122 9.86435 41.4218V22.5623C9.86435 21.8719 9.30471 21.3123 8.61435 21.3123C7.92399 21.3123 7.36435 21.8719 7.36435 22.5623V41.4218C7.36435 42.1122 7.92399 42.6718 8.61435 42.6718ZM55.3801 42.6718C56.0705 42.6718 56.6301 42.1122 56.6301 41.4218V22.5623C56.6301 21.8719 56.0705 21.3123 55.3801 21.3123C54.6897 21.3123 54.1301 21.8719 54.1301 22.5623V41.4218C54.1301 42.1122 54.6897 42.6718 55.3801 42.6718ZM53.0335 17.1449C53.3787 16.5471 53.1738 15.7826 52.576 15.4374L36.1137 5.93301C35.5159 5.58784 34.7514 5.79269 34.4062 6.39055C34.061 6.98842 34.2659 7.7529 34.8637 8.09808L51.326 17.6025C51.9238 17.9476 52.6883 17.7428 53.0335 17.1449ZM10.9647 17.1429C11.3099 17.7408 12.0744 17.9456 12.6722 17.6005L16.098 15.6226C16.6958 15.2774 16.9007 14.5129 16.5555 13.915C16.2103 13.3172 15.4458 13.1123 14.848 13.4575L11.4222 15.4354C10.8244 15.7806 10.6195 16.5451 10.9647 17.1429ZM24.1346 9.53929C24.4797 10.1372 25.2442 10.342 25.8421 9.99684L29.2686 8.01859C29.8665 7.67341 30.0713 6.90892 29.7261 6.31106C29.381 5.71319 28.6165 5.50834 28.0186 5.85351L24.5921 7.83176C23.9942 8.17693 23.7894 8.94142 24.1346 9.53929Z" fill="#79BEE6"/>
  <mask id="mask0_58_321" style="mask-type:luminance" maskUnits="userSpaceOnUse" x="0" y="0" width="64" height="64">
    <path d="M0 0H64V64H0V0Z" fill="white"/>
  </mask>
  <g mask="url(#mask0_58_321)">
    <path fill-rule="evenodd" clip-rule="evenodd" d="M32.0001 7.49976C30.625 7.49976 29.5001 6.37477 29.5001 4.99976C29.5001 3.62474 30.625 2.49975 32.0001 2.49975C33.3752 2.49975 34.5001 3.62471 34.5001 4.99976C34.5001 6.3748 33.3752 7.49976 32.0001 7.49976ZM27.0001 4.99976C27.0001 7.75549 29.2443 9.99976 32.0001 9.99976C34.7559 9.99976 37.0001 7.75546 37.0001 4.99976C37.0001 2.24405 34.7559 -0.000246048 32.0001 -0.000246048C29.2443 -0.000246048 27.0001 2.24402 27.0001 4.99976Z" fill="#79BEE6"/>
    <path fill-rule="evenodd" clip-rule="evenodd" d="M32.0001 61.5C30.625 61.5 29.5001 60.375 29.5001 59C29.5001 57.625 30.625 56.5 32.0001 56.5C33.3752 56.5 34.5001 57.625 34.5001 59C34.5001 60.375 33.3752 61.5 32.0001 61.5ZM27.0001 59C27.0001 61.7557 29.2443 64 32.0001 64C34.7559 64 37.0001 61.7557 37.0001 59C37.0001 56.2443 34.7559 54 32.0001 54C29.2443 54 27.0001 56.2443 27.0001 59Z" fill="#79BEE6"/>
    <path fill-rule="evenodd" clip-rule="evenodd" d="M8.61633 20.9998C7.24131 20.9998 6.11633 19.8748 6.11633 18.4998C6.11633 17.1247 7.24131 15.9998 8.61633 15.9998C9.99145 15.9998 11.1163 17.1247 11.1163 18.4998C11.1163 19.8748 9.99145 20.9998 8.61633 20.9998ZM3.61633 18.4998C3.61633 21.2555 5.8606 23.4998 8.61633 23.4998C11.3722 23.4998 13.6163 21.2555 13.6163 18.4998C13.6163 15.7441 11.3722 13.4998 8.61633 13.4998C5.8606 13.4998 3.61633 15.744 3.61633 18.4998Z" fill="#79BEE6"/>
    <path fill-rule="evenodd" clip-rule="evenodd" d="M8.61633 48C7.24131 48 6.11633 46.875 6.11633 45.5C6.11633 44.125 7.24131 43 8.61633 43C9.99145 43 11.1163 44.125 11.1163 45.5C11.1163 46.875 9.99145 48 8.61633 48ZM3.61633 45.5C3.61633 48.2557 5.8606 50.5 8.61633 50.5C11.3722 50.5 13.6163 48.2557 13.6163 45.5C13.6163 42.7443 11.3722 40.5 8.61633 40.5C5.8606 40.5 3.61633 42.7443 3.61633 45.5Z" fill="#79BEE6"/>
    <path fill-rule="evenodd" clip-rule="evenodd" d="M55.3814 21C54.0064 21 52.8814 19.875 52.8814 18.5C52.8814 17.125 54.0064 16 55.3814 16C56.7564 16 57.8814 17.125 57.8814 18.5C57.8814 19.875 56.7564 21 55.3814 21ZM50.3814 18.5C50.3814 21.2557 52.6257 23.5 55.3814 23.5C58.1371 23.5 60.3814 21.2557 60.3814 18.5C60.3814 15.7443 58.1371 13.5 55.3814 13.5C52.6257 13.5 50.3814 15.7443 50.3814 18.5Z" fill="#79BEE6"/>
    <path fill-rule="evenodd" clip-rule="evenodd" d="M55.3814 48C54.0064 48 52.8814 46.875 52.8814 45.5C52.8814 44.125 54.0064 43 55.3814 43C56.7564 43 57.8814 44.125 57.8814 45.5C57.8814 46.875 56.7564 48 55.3814 48ZM50.3814 45.5C50.3814 48.2557 52.6257 50.5 55.3814 50.5C58.1371 50.5 60.3814 48.2557 60.3814 45.5C60.3814 42.7443 58.1371 40.5 55.3814 40.5C52.6257 40.5 50.3814 42.7443 50.3814 45.5Z" fill="#79BEE6"/>
    <path fill-rule="evenodd" clip-rule="evenodd" d="M31.3742 50.4028C31.7609 50.6261 32.2374 50.6261 32.6242 50.4028L47.6242 41.7427C48.0109 41.5194 48.2492 41.1068 48.2492 40.6602V23.3397C48.2492 22.8931 48.0109 22.4804 47.6242 22.2571L32.6242 13.597C32.2374 13.3737 31.7609 13.3737 31.3742 13.597L16.3742 22.2571C15.9874 22.4804 15.7492 22.8931 15.7492 23.3397V40.6602C15.7492 41.1068 15.9874 41.5194 16.3742 41.7427L31.3742 50.4028ZM18.2492 39.9385V24.0614L31.9992 16.1229L45.7492 24.0614V39.9385L31.9992 47.8769L18.2492 39.9385Z" fill="#79BEE6"/>
    <path fill-rule="evenodd" clip-rule="evenodd" d="M31.374 33.0825C31.7608 33.3058 32.2373 33.3058 32.624 33.0825L47.446 24.5252C48.0439 24.18 48.2487 23.4155 47.9036 22.8176C47.5584 22.2198 46.7939 22.0149 46.196 22.3601L31.999 30.5566L18.0704 22.515C17.4725 22.1698 16.708 22.3746 16.3629 22.9725C16.0177 23.5704 16.2225 24.3349 16.8204 24.68L31.374 33.0825Z" fill="#79BEE6"/>
    <path fill-rule="evenodd" clip-rule="evenodd" d="M31.9999 49.9844C32.6902 49.9844 33.2499 49.4247 33.2499 48.7344V32C33.2499 31.3096 32.6902 30.75 31.9999 30.75C31.3095 30.75 30.7499 31.3096 30.7499 32V48.7344C30.7499 49.4247 31.3095 49.9844 31.9999 49.9844Z" fill="#79BEE6"/>
    <path fill-rule="evenodd" clip-rule="evenodd" d="M23.7497 28.1023C24.0949 28.7002 24.8593 28.905 25.4572 28.5599L39.7908 20.2844C40.3887 19.9392 40.5935 19.1747 40.2484 18.5768C39.9032 17.979 39.1387 17.7741 38.5408 18.1193L24.2072 26.3948C23.6093 26.74 23.4045 27.5045 23.7497 28.1023Z" fill="#79BEE6"/>
    <path fill-rule="evenodd" clip-rule="evenodd" d="M36.5217 40.4595C36.8669 41.0574 37.6314 41.2622 38.2293 40.917L42.687 38.3434C43.2849 37.9982 43.4897 37.2338 43.1446 36.6359C42.7994 36.038 42.0349 35.8332 41.437 36.1783L36.9793 38.752C36.3814 39.0971 36.1766 39.8616 36.5217 40.4595Z" fill="#79BEE6"/>
    <path fill-rule="evenodd" clip-rule="evenodd" d="M19.0956 11.7271C19.0956 12.4174 19.6552 12.9771 20.3456 12.9771H20.3465C21.0368 12.9771 21.5965 12.4174 21.5965 11.7271C21.5965 11.0367 21.0368 10.4771 20.3465 10.4771H20.3456C19.6552 10.4771 19.0956 11.0367 19.0956 11.7271Z" fill="#79BEE6"/>
  </g>
</svg>