<svg xmlns="http://www.w3.org/2000/svg" width="32" height="32" viewBox="0 0 32 32" fill="none">
<circle cx="16" cy="16" r="16" fill="white"/>
<path fill-rule="evenodd" clip-rule="evenodd" d="M24.9652 15.225V15.2249C24.9669 14.6406 24.9686 14.0562 24.9616 13.4719L24.9604 13.3672C24.9511 12.5709 24.9417 11.773 24.7726 10.9894C24.3816 9.17998 23.3375 7.93962 21.5655 7.34349C20.7524 7.06992 19.9056 7.01727 19.0593 7.01149C17.0006 6.99779 14.9417 6.99323 12.8831 7.01544C12.2477 7.02244 11.6016 7.07144 10.9805 7.19864C9.14923 7.57385 7.90857 8.64866 7.32552 10.4462C7.06716 11.2426 7.01482 12.0685 7.00874 12.894C6.99413 14.9375 6.99535 16.9812 7.00721 19.0246C7.01117 19.7282 7.04769 20.4338 7.21688 21.1228C7.65813 22.9185 8.7442 24.1126 10.5232 24.6591C11.2979 24.8971 12.0983 24.9452 12.8983 24.9519C14.8303 24.9683 16.7624 24.968 18.6944 24.9601C19.5051 24.9568 20.3167 24.9318 21.1124 24.7453C22.4739 24.4263 23.5362 23.693 24.2307 22.4663C24.7112 21.6176 24.8919 20.6849 24.9224 19.7233C24.9498 18.8552 24.9655 17.9868 24.9812 17.1183V17.1183L24.9812 17.1179C24.988 16.7444 24.9947 16.3709 25.0024 15.9974C24.9937 15.9976 24.9851 15.9975 24.9765 15.9974L24.9637 15.9974C24.9637 15.7399 24.9645 15.4825 24.9652 15.225ZM23.3074 19.607C23.2931 20.1502 23.2213 20.6882 23.0314 21.2022C22.637 22.2694 21.8607 22.8987 20.7686 23.1626C20.1575 23.3101 19.5328 23.3333 18.9108 23.3372C16.9687 23.3494 15.0263 23.3497 13.0842 23.3378C12.4367 23.3339 11.7854 23.3138 11.151 23.1537C9.79771 22.8117 8.90822 21.8483 8.74602 20.4564C8.64956 19.628 8.62156 18.7885 8.61243 17.9534C8.59509 16.3613 8.60513 14.7689 8.62126 13.1764C8.62795 12.4984 8.64256 11.8174 8.8081 11.1522C9.14193 9.81111 10.0953 8.95205 11.4884 8.73995C12.3152 8.61397 13.1489 8.61135 13.9815 8.60873L14.1444 8.60819C15.7113 8.60271 17.2785 8.60697 18.8453 8.62431C19.5081 8.63162 20.1746 8.64683 20.8233 8.8139C22.1647 9.15959 23.0442 10.1102 23.2112 11.4909C23.2969 12.1996 23.3176 12.9171 23.3383 13.6327C23.3413 13.7378 23.3443 13.8429 23.3476 13.9479C23.3621 14.4182 23.3586 14.889 23.355 15.3599C23.3534 15.5688 23.3518 15.7776 23.3518 15.9864L23.366 15.9866L23.3801 15.9867C23.3728 16.3572 23.3661 16.7276 23.3594 17.0979L23.3594 17.0993C23.3443 17.9354 23.3291 18.7712 23.3074 19.607ZM15.9852 11.3584C13.4385 11.3535 11.3585 13.4286 11.3555 15.9766C11.3527 18.5187 13.4293 20.6072 15.9587 20.606C18.5268 20.6048 20.603 18.54 20.6033 15.9875C20.6033 13.4362 18.5353 11.3633 15.9852 11.3584ZM18.979 16.094C18.9111 17.7945 17.4915 19.0504 15.8607 18.9816C14.1651 18.9101 12.9074 17.4963 12.9817 15.8558C13.0602 14.1255 14.506 12.9262 16.0838 12.9816C17.7858 13.0516 19.0438 14.4672 18.979 16.094ZM19.7031 11.175C19.7031 10.5778 20.1881 10.0983 20.7889 10.1011C21.3922 10.1038 21.8623 10.5799 21.8595 11.186C21.8565 11.785 21.3706 12.2621 20.7701 12.2551C20.1786 12.2481 19.7028 11.7668 19.7031 11.175Z" fill="url(#paint0_linear_1_270)"/>
<defs>
<linearGradient id="paint0_linear_1_270" x1="25" y1="4.5" x2="7" y2="27.5" gradientUnits="userSpaceOnUse">
<stop stop-color="#9204C0"/>
<stop offset="1" stop-color="#F58B5B"/>
</linearGradient>
</defs>
</svg>