<svg width="20" height="20" fill="none"><path d="M4.166 19.166H2.333a1.5 1.5 0 01-1.5-1.5v-5.333a1.5 1.5 0 011.5-1.5h1.833M7.5 13.333h1.667M7.5 15.833h1.667M7.5 10.833h1.667" stroke="#1A202C" stroke-linecap="round" stroke-linejoin="round"></path><path d="M10.833 5V3.683a1.5 1.5 0 011.93-1.437l5.334 1.6a1.5 1.5 0 011.069 1.437v12.383a1.5 1.5 0 01-1.5 1.5h-12a1.5 1.5 0 01-1.5-1.5V9a1.5 1.5 0 011.5-1.5h5.333A1.5 1.5 0 0112.5 9v10.166M15.833 15.833V7.5" stroke="#1A202C" stroke-linecap="round" stroke-linejoin="round"></path></svg>