<svg xmlns="http://www.w3.org/2000/svg" width="21" height="24" viewBox="0 0 21 24" fill="none">
<path d="M19.0819 22.0972H18.1831V7.00028C18.1831 6.36336 17.6673 5.84644 17.0292 5.84644H3.2777C2.64193 5.84644 2.12385 6.36336 2.12385 7.00028V22.0972H1.22731C0.910006 22.0972 0.650391 22.3557 0.650391 22.6741C0.650391 22.9926 0.910006 23.251 1.22731 23.251H19.0831C19.4004 23.251 19.66 22.9926 19.66 22.6741C19.66 22.3557 19.4004 22.0972 19.0819 22.0972ZM7.07039 19.3464H4.47193V16.7491H7.07039V19.3464ZM7.07039 15.1257H4.47193V12.5284H7.07039V15.1257ZM7.07039 10.9061H4.47193V8.30874H7.07039V10.9061ZM11.4515 22.0972H8.85539V16.7491H11.4515V22.0972ZM11.4515 15.1257H8.85539V12.5284H11.4515V15.1257ZM11.4515 10.9061H8.85539V8.30874H11.4515V10.9061ZM15.835 19.3464H13.2389V16.7491H15.835V19.3464ZM15.835 15.1257H13.2389V12.5284H15.835V15.1257ZM15.835 10.9061H13.2389V8.30874H15.835V10.9061Z" />
<path d="M3.75265 4.69262L5.03342 4.01878L6.31535 4.69262L6.06958 3.26647L7.10573 2.2557L5.67496 2.04686L5.03342 0.748779L4.39304 2.04686L2.95996 2.2557L3.99611 3.26647L3.75265 4.69262Z" />
<path d="M8.87156 4.69262L10.1535 4.01878L11.4354 4.69262L11.1896 3.26647L12.2269 2.2557L10.7939 2.04686L10.1535 0.748779L9.51309 2.04686L8.08002 2.2557L9.11733 3.26647L8.87156 4.69262Z" />
<path d="M13.9916 4.69262L15.2746 4.01878L16.5566 4.69262L16.3108 3.26647L17.3469 2.2557L15.9139 2.04686L15.2746 0.748779L14.6342 2.04686L13.2012 2.2557L14.2373 3.26647L13.9916 4.69262Z" />
</svg>