<svg width="16" height="16" fill="none"><path d="M13.444 6.111H5.667c-.86 0-1.556.696-1.556 1.556v4.666c0 .86.697 1.556 1.556 1.556h7.777c.86 0 1.556-.697 1.556-1.556V7.667c0-.86-.697-1.556-1.556-1.556z" stroke="#4A5568" stroke-linecap="round" stroke-linejoin="round"></path><path d="M9.556 11.555a1.556 1.556 0 100-3.11 1.556 1.556 0 000 3.11zM11.889 6.111V4.556A1.556 1.556 0 0010.333 3H2.556A1.556 1.556 0 001 4.556v4.666a1.555 1.555 0 001.556 1.556H4.11" stroke="#4A5568" stroke-linecap="round" stroke-linejoin="round"></path></svg>