<svg width="20" height="20" fill="none"><path d="M3.334 9.445V7.778a1.111 1.111 0 011.111-1.111H8.89A1.111 1.111 0 0110 7.778v1.667" stroke="#1A202C" stroke-linecap="round" stroke-linejoin="round"></path><path d="M10 9.445V7.778a1.111 1.111 0 011.111-1.111h4.445a1.111 1.111 0 011.11 1.111v1.667" stroke="#1A202C" stroke-linecap="round" stroke-linejoin="round"></path><path d="M3.148 9.445h13.704a1.481 1.481 0 011.482 1.481v3.519H1.667v-3.519a1.482 1.482 0 011.481-1.481v0zM1.667 14.445v2.222M18.334 14.445v2.222" stroke="#1A202C" stroke-linecap="round" stroke-linejoin="round"></path><path d="M16.667 9.445v-5a1.111 1.111 0 00-1.11-1.112H4.444a1.111 1.111 0 00-1.111 1.112v5" stroke="#1A202C" stroke-linecap="round" stroke-linejoin="round"></path></svg>