<svg stroke="#48BB78" width="16" height="16" fill="none" class="svgFillAll jss821"><g clip-path="url(#icon_gif_box_svg__clip0)" fill="#fff"><path d="M8.666 8A.333.333 0 009 8.333h5.666a1.169 1.169 0 001.167-1.166V5.833a1.168 1.168 0 00-1.167-1.166H9A.333.333 0 008.666 5v3zM2.5 8.333h4.833A.333.333 0 007.666 8V5a.333.333 0 00-.333-.333h-6A1.168 1.168 0 00.167 5.833v1.334a1.169 1.169 0 001.166 1.166H2.5zM7.667 9.667a.333.333 0 00-.334-.334h-5.5a.333.333 0 00-.333.334v5.166A1.169 1.169 0 002.667 16h4.666a.333.333 0 00.334-.333v-6zM9 9.333a.333.333 0 00-.334.334v6A.333.333 0 009 16h4.333a1.168 1.168 0 001.167-1.167V9.667a.333.333 0 00-.334-.334H9z"></path><path d="M8.695 4.471a.667.667 0 00.63.176c.788-.193 2.686-.703 3.266-1.283A1.972 1.972 0 109.8.577c-.505.504-.986 2.051-1.283 3.266a.694.694 0 00.178.628zm2.05-2.952a.638.638 0 11.902.902 5.99 5.99 0 01-1.523.622 5.948 5.948 0 01.62-1.524zM7.814 3.84c-.296-1.21-.777-2.758-1.28-3.263a1.972 1.972 0 10-2.79 2.787c.578.58 2.476 1.09 3.266 1.283a.667.667 0 00.63-.176.694.694 0 00.174-.63zM4.687 2.422a.638.638 0 01.901-.902c.277.477.486.99.62 1.524a5.93 5.93 0 01-1.521-.622z"></path></g><defs><clipPath id="icon_gif_box_svg__clip0"><path fill="#fff" d="M0 0h16v16H0z"></path></clipPath></defs></svg>