<svg xmlns="http://www.w3.org/2000/svg" width="40" height="31" viewBox="0 0 40 31" fill="none">
<path d="M29.585 16.9493C30.3277 17.0722 30.3483 17.1621 31.062 17.0795L31.5143 17.0324C31.5143 17.0324 31.5242 20.4206 25.0016 28.5379C25.0054 28.5385 36.7027 22.5711 38.6966 10.4678C38.6992 10.4525 38.746 10.1455 38.7574 10.053L38.7478 10.0632C39.2517 5.87502 36.3818 1.99019 32.1742 1.29429C27.8517 0.579396 23.7692 3.50315 23.0543 7.8256C22.3388 12.1519 25.2625 16.2344 29.585 16.9493Z" fill="#00375A"/>
<path d="M9.81335 16.9493C10.5561 17.0722 10.5766 17.1621 11.2904 17.0795L11.7427 17.0324C11.7427 17.0324 11.7526 20.4206 5.22992 28.5379C5.23375 28.5385 16.9311 22.5711 18.925 10.4678C18.9275 10.4525 18.9744 10.1455 18.9857 10.053L18.9762 10.0632C19.4801 5.87502 16.6102 1.99019 12.4026 1.29429C8.0801 0.579396 3.99757 3.50315 3.28267 7.8256C2.56714 12.1519 5.49089 16.2344 9.81335 16.9493Z" fill="#00375A"/>
</svg>