<svg xmlns="http://www.w3.org/2000/svg" width="25" height="24" viewBox="0 0 25 24" fill="none">
<path d="M12.0563 18.3603C12.8476 18.3511 13.744 18.4912 14.6378 18.9382C16.2863 19.7624 17.6189 19.6779 18.6614 19.379C19.7039 19.0801 20.483 18.629 21.0142 18.629H21.7055V20.3593H21.0142C20.1627 20.3593 19.4071 20.867 18.4724 21.1349C17.5378 21.4029 16.4502 21.4912 14.9464 20.7393C12.0163 19.2743 9.1081 20.7393 9.1081 20.7393C6.47336 22.0567 4.65041 20.6198 3.09701 20.362C3.07843 20.3595 3.05969 20.3586 3.04097 20.3593H2.34967V18.629H3.04097C3.58741 18.629 4.4628 19.0439 5.54154 19.3156C6.62029 19.5872 7.94267 19.6755 9.41729 18.9382C9.41729 18.9382 10.5456 18.3778 12.0563 18.3603Z" fill="#666666"/>
<path d="M12.0556 15.9413C12.2714 15.9388 12.4947 15.9475 12.7239 15.9704C13.3353 16.0313 13.9878 16.1942 14.6378 16.5192C16.2863 17.3434 17.6189 17.2589 18.6614 16.9601C19.7039 16.6612 20.483 16.21 21.0142 16.21H21.7055V17.9376H21.0142C20.1627 17.9376 19.4071 18.448 18.4724 18.716C17.5378 18.984 16.4502 19.0723 14.9464 18.3204C14.2138 17.9541 13.483 17.7713 12.7982 17.7027C10.7438 17.4966 9.1081 18.3204 9.1081 18.3204C7.79715 18.9759 6.69971 18.8938 5.70964 18.6444C4.71958 18.3951 3.87714 17.9376 3.04097 17.9376H2.34967V16.21H3.04097C3.58741 16.21 4.4628 16.6222 5.54154 16.8939C6.62029 17.1656 7.94267 17.2559 9.41729 16.5185C9.41729 16.5185 10.545 15.9588 12.0556 15.9413Z" fill="#666666"/>
<path d="M16.5196 14.1355H17.9029V16.4288C17.4837 16.5007 17.0291 16.5185 16.5196 16.4349V14.1355Z" fill="#666666"/>
<path d="M6.15143 14.1355H7.53471V16.3822C7.04579 16.437 6.58753 16.4017 6.15143 16.3215V14.1355Z" fill="#666666"/>
<path d="M2.73639 12.0615H21.3361C21.2513 12.6956 20.8758 13.041 20.5138 13.222C20.0778 13.44 19.6308 13.4441 19.6308 13.4441H4.42346C3.5507 13.4441 3.13601 13.0356 2.91799 12.5996C2.78499 12.3336 2.73639 12.0615 2.73639 12.0615Z" fill="#666666"/>
<path d="M12.0268 7.22363C12.0268 7.22363 12.4738 7.22773 12.9098 7.44574C13.3458 7.66376 13.7544 8.08415 13.7544 8.95054V11.3694H10.2999V8.95054C10.2999 8.08147 10.7084 7.66376 11.1444 7.44574C11.5804 7.22772 12.0268 7.22363 12.0268 7.22363Z" fill="#666666"/>
<path d="M12.026 3.27368L18.9383 7.11433V11.3695H14.4449V8.9506C14.4449 7.75143 13.8185 7.12854 13.2175 6.82808C12.6166 6.52762 12.026 6.53239 12.026 6.53239C12.026 6.53239 11.4354 6.52762 10.8344 6.82808C10.2335 7.12854 9.60711 7.74626 9.60711 8.9506V11.3695H5.11432V7.11433L12.026 3.27368Z" fill="#666666"/>
<path d="M12.0267 1C12.1416 1 12.2565 1.02921 12.3609 1.08709L21.6948 6.27186C22.0326 6.45922 22.1534 6.87608 21.9656 7.21362C21.7782 7.55142 21.3613 7.67148 21.0238 7.48366L12.1955 2.57703C12.144 2.5483 12.086 2.53322 12.0271 2.53322C11.9681 2.53322 11.9101 2.5483 11.8586 2.57703L3.03034 7.48366C2.69281 7.67148 2.27594 7.55142 2.08858 7.21362C1.90076 6.87608 2.0215 6.45922 2.35929 6.27186L11.6926 1.08709C11.797 1.02921 11.9118 1 12.0267 1Z" fill="#666666"/>
</svg>