<svg width="20" height="20" class="svgFillAll"><path d="M11.854 11.806h2.102c.465 0 .838.374.838.84v1.578a.835.835 0 01-.838.837h-2.102a.836.836 0 01-.838-.837v-1.579c0-.465.374-.838.838-.838zM10.007 2c-.302 0-.607.165-.942.492L1.352 9.143c-.981.982.256 2.292 1.698 2.292v6.288c0 .706.641 1.274 1.438 1.274.825 0 1.413.098 1.413-.924V13.39c0-.877.705-1.582 1.582-1.582h.288c.877 0 1.582.705 1.582 1.582v4.69c0 .706.053.919 1.007.919h5.154c.797 0 1.438-.57 1.438-1.275v-6.288c1.44 0 2.679-1.31 1.697-2.292l-7.713-6.652c-.328-.33-.628-.492-.93-.491z"></path></svg>