<svg width="16" height="16" fill="none" style="margin-right: 8px;"><path d="M2.667 7.556V6.222a.889.889 0 01.888-.889h3.556a.889.889 0 01.889.89v1.333" stroke="#4A5568" stroke-linecap="round" stroke-linejoin="round"></path><path d="M8 7.556V6.222a.889.889 0 01.889-.889h3.555a.889.889 0 01.89.89v1.333" stroke="#4A5568" stroke-linecap="round" stroke-linejoin="round"></path><path d="M2.518 7.556h10.963a1.185 1.185 0 011.186 1.185v2.815H1.333V8.74a1.185 1.185 0 011.185-1.185v0zM1.333 11.556v1.777M14.666 11.556v1.777" stroke="#4A5568" stroke-linecap="round" stroke-linejoin="round"></path><path d="M13.333 7.556v-4a.889.889 0 00-.889-.89H3.555a.889.889 0 00-.889.89v4" stroke="#4A5568" stroke-linecap="round" stroke-linejoin="round"></path></svg>