<svg xmlns="http://www.w3.org/2000/svg" width="18" height="16" viewBox="0 0 18 16" fill="none">
<path fill-rule="evenodd" clip-rule="evenodd" d="M6.99318 0.083252C4.61993 0.083252 2.71484 1.98864 2.71484 4.36159C2.71484 6.73521 4.61978 8.64075 6.99318 8.64075C9.36669 8.64075 11.2723 6.7351 11.2723 4.36159C11.2723 1.98876 9.36654 0.083252 6.99318 0.083252ZM6.99318 1.33325C8.67623 1.33325 10.0223 2.67916 10.0223 4.36159C10.0223 6.04474 8.67633 7.39075 6.99318 7.39075C5.31023 7.39075 3.96484 6.04494 3.96484 4.36159C3.96484 2.67895 5.31033 1.33325 6.99318 1.33325ZM15.7221 4.34687C15.7221 2.48476 14.212 0.974365 12.3496 0.974365C12.0044 0.974365 11.7246 1.25419 11.7246 1.59937C11.7246 1.94454 12.0044 2.22437 12.3496 2.22437C13.5216 2.22437 14.4721 3.17506 14.4721 4.34687C14.4721 5.51919 13.5219 6.46937 12.3496 6.46937C12.0044 6.46937 11.7246 6.74919 11.7246 7.09437C11.7246 7.43954 12.0044 7.71937 12.3496 7.71937C14.2123 7.71937 15.7221 6.20954 15.7221 4.34687ZM15.0829 9.66159C14.6207 9.55912 14.1397 9.48977 13.6559 9.45686C13.3115 9.43344 13.0134 9.69362 12.9899 10.038C12.9665 10.3824 13.2267 10.6806 13.5711 10.704C13.9924 10.7326 14.4114 10.793 14.8259 10.8848C15.4731 11.0137 15.9017 11.2278 16.0176 11.471C16.105 11.6548 16.105 11.8702 16.0173 12.0546C15.9022 12.297 15.4758 12.5106 14.8351 12.6424C14.497 12.7119 14.2793 13.0424 14.3488 13.3805C14.4183 13.7186 14.7488 13.9363 15.0869 13.8668C16.0826 13.662 16.811 13.297 17.1463 12.5911C17.3953 12.0673 17.3953 11.4577 17.1463 10.9338C16.809 10.2262 16.073 9.85854 15.0829 9.66159ZM0.666992 13.0153C0.666992 10.8282 2.96499 10.047 6.99283 10.047L7.25931 10.0481C11.1297 10.0818 13.3195 10.8635 13.3195 12.9987C13.3195 15.0886 11.2207 15.8948 7.51961 15.9623L6.99283 15.967C2.95588 15.967 0.666992 15.1996 0.666992 13.0153ZM12.0695 12.9987C12.0695 11.8756 10.344 11.297 6.99283 11.297C3.64503 11.297 1.91699 11.8845 1.91699 13.0153C1.91699 14.139 3.64089 14.717 6.99283 14.717C10.3409 14.717 12.0695 14.1295 12.0695 12.9987Z" fill="white" fill-opacity="0.8"/>
</svg>