<svg width="20" height="20" fill="none"><path d="M8.542 12.5h4.791a.417.417 0 01.417.417v6.458H8.125v-6.458a.417.417 0 01.417-.417z" stroke="#1A202C" stroke-linecap="round" stroke-linejoin="round"></path><path d="M13.75 19.375h4.375v-10a.625.625 0 00-.625-.625h-5.625a.625.625 0 00-.625.625V12.5M8.125 19.375h-1.25M19.375 19.375h-1.25M11.25 15h2.5M16.25 12.5h1.875M16.25 15h1.875M16.25 8.75V6.875" stroke="#1A202C" stroke-linecap="round" stroke-linejoin="round"></path><path d="M19.375 1.25a.625.625 0 00-.625-.625H1.25a.625.625 0 00-.625.625v17.5a.625.625 0 00.625.625h2.5a.625.625 0 00.625-.625V4.375H18.75a.625.625 0 00.625-.625v-2.5zM3.125 9.375h1.25M3.125 14.375h1.25M9.375 4.375v-1.25M14.375 4.375v-1.25" stroke="#1A202C" stroke-linecap="round" stroke-linejoin="round"></path><path d="M.625 4.375h3.75V.625" stroke="#1A202C" stroke-linecap="round" stroke-linejoin="round"></path></svg>