<svg xmlns="http://www.w3.org/2000/svg" width="24" height="24" viewBox="0 0 24 24" fill="none">
<path d="M22.8 12H3.20002V3.20002C3.20002 1.87453 4.27454 0.800017 5.60003 0.800017H6.40004V2.44004C5.46873 2.63016 4.79987 3.44949 4.80006 4.40002C4.80006 4.62095 4.97912 4.80001 5.20004 4.80001H8.40006C8.62099 4.80001 8.80005 4.62095 8.80005 4.40002C8.80023 3.44949 8.13137 2.63011 7.20006 2.44004V0.399985C7.20006 0.179063 7.02095 0 6.80008 0H5.60007C3.8327 0 2.4 1.43269 2.4 3.20002V12H1.2C0.537282 12 0 12.5373 0 13.2C0 13.8627 0.537235 14.4 1.2 14.4C1.308 17.312 2.55601 20.4 4.42402 21.316C3.82004 21.9611 3.85337 22.9736 4.49837 23.5776C5.14342 24.1815 6.15592 24.1482 6.7599 23.5032C7.24436 22.9859 7.33065 22.2114 6.97201 21.6H17.024C16.8802 21.8423 16.803 22.1183 16.8 22.4001C16.7948 23.2837 17.5069 24.0043 18.3905 24.0095C19.2741 24.0148 19.9947 23.3027 20 22.419C20.0024 22.0097 19.8478 21.6149 19.568 21.3161C21.436 20.4001 22.684 17.312 22.8 14.4001C23.4627 14.4001 24 13.8628 24 13.2001C24 12.5373 23.4628 12 22.8 12ZM7.19823 3.26621C7.5414 3.38691 7.81131 3.65682 7.93201 3.99999H5.66804C5.88793 3.37482 6.57306 3.04627 7.19823 3.26621ZM13.2 12.8H18.8001V17.2001H13.2V12.8ZM0.800017 13.2C0.800017 12.9791 0.97908 12.8 1.2 12.8H12.4V13.6001H1.2C0.97908 13.6 0.800017 13.4209 0.800017 13.2ZM5.60003 23.2C5.15818 23.2 4.80001 22.8419 4.80001 22.4C4.80001 21.9582 5.15818 21.6 5.60003 21.6C6.04187 21.6 6.40004 21.9582 6.40004 22.4C6.40004 22.8419 6.04187 23.2 5.60003 23.2ZM18.4001 23.2C17.9582 23.2 17.6 22.8419 17.6 22.4C17.6 21.9582 17.9582 21.6 18.4001 21.6C18.8419 21.6 19.2001 21.9582 19.2001 22.4C19.2001 22.8419 18.8419 23.2 18.4001 23.2ZM18.4001 20.8H5.60003C3.82004 20.8 2.14004 17.744 2.00002 14.4H12.4001V18.4C12.4001 18.6209 12.5792 18.8 12.8 18.8C13.021 18.8 13.2 18.6209 13.2 18.4V18H14V18.4C14 18.6209 14.1791 18.8 14.4 18.8C14.621 18.8 14.8 18.6209 14.8 18.4V18H15.6V18.4C15.6 18.6209 15.7791 18.8 16 18.8C16.2209 18.8 16.4 18.6209 16.4 18.4V18H17.2V18.4C17.2 18.6209 17.3791 18.8 17.6 18.8C17.8209 18.8 18 18.6209 18 18.4V18H18.8V18.4C18.8 18.6209 18.9791 18.8 19.2 18.8C19.4209 18.8 19.6 18.6209 19.6 18.4V14.4H22C21.8601 17.744 20.1801 20.8 18.4001 20.8ZM22.8 13.6H19.6V12.8H22.8C23.021 12.8 23.2 12.9791 23.2 13.2C23.2 13.4209 23.021 13.6 22.8 13.6Z" fill="#00375A"/>
<path d="M7.20036 5.99959C7.20036 5.77867 7.02125 5.59961 6.80038 5.59961C6.5795 5.59961 6.40039 5.77867 6.40039 5.99959V6.39958C6.40039 6.6205 6.57945 6.79956 6.80038 6.79956C7.0213 6.79956 7.20036 6.6205 7.20036 6.39958V5.99959Z" fill="#00375A"/>
<path d="M7.20036 7.99984C7.20036 7.77892 7.02125 7.59985 6.80038 7.59985C6.5795 7.59985 6.40039 7.77892 6.40039 7.99984V8.39982C6.40039 8.62075 6.57945 8.79981 6.80038 8.79981C7.0213 8.79981 7.20036 8.62075 7.20036 8.39982V7.99984Z" fill="#00375A"/>
<path d="M6.80038 9.59961C6.57945 9.59961 6.40039 9.77872 6.40039 9.99959V10.3996C6.40039 10.6205 6.57945 10.7996 6.80038 10.7996C7.0213 10.7996 7.20036 10.6205 7.20036 10.3996V9.99959C7.20036 9.77872 7.0213 9.59961 6.80038 9.59961Z" fill="#00375A"/>
<path d="M8.79997 5.99959C8.79997 5.77867 8.62091 5.59961 8.39998 5.59961C8.17906 5.59961 8 5.77867 8 5.99959V6.39958C8 6.6205 8.17906 6.79956 8.39998 6.79956C8.62091 6.79956 8.79997 6.6205 8.79997 6.39958V5.99959Z" fill="#00375A"/>
<path d="M8.79997 7.99984C8.79997 7.77892 8.62091 7.59985 8.39998 7.59985C8.17906 7.59985 8 7.77892 8 7.99984V8.39982C8 8.62075 8.17906 8.79981 8.39998 8.79981C8.62091 8.79981 8.79997 8.62075 8.79997 8.39982V7.99984Z" fill="#00375A"/>
<path d="M8.39999 9.59961C8.17906 9.59961 8 9.77872 8 9.99959V10.3996C8 10.6205 8.17906 10.7996 8.39999 10.7996C8.62091 10.7996 8.79997 10.6205 8.79997 10.3996V9.99959C8.80002 9.77872 8.62091 9.59961 8.39999 9.59961Z" fill="#00375A"/>
<path d="M5.60075 5.99959C5.60075 5.77867 5.42169 5.59961 5.20077 5.59961C4.97984 5.59961 4.80078 5.77867 4.80078 5.99959V6.39958C4.80078 6.6205 4.97984 6.79956 5.20077 6.79956C5.42169 6.79956 5.60075 6.6205 5.60075 6.39958V5.99959Z" fill="#00375A"/>
<path d="M5.60075 7.99984C5.60075 7.77892 5.42169 7.59985 5.20077 7.59985C4.97984 7.59985 4.80078 7.77892 4.80078 7.99984V8.39982C4.80078 8.62075 4.97984 8.79981 5.20077 8.79981C5.42169 8.79981 5.60075 8.62075 5.60075 8.39982V7.99984Z" fill="#00375A"/>
<path d="M5.20077 9.59961C4.97984 9.59961 4.80078 9.77872 4.80078 9.99959V10.3996C4.80078 10.6205 4.97984 10.7996 5.20077 10.7996C5.42169 10.7996 5.60075 10.6205 5.60075 10.3996V9.99959C5.60075 9.77872 5.42164 9.59961 5.20077 9.59961Z" fill="#00375A"/>
</svg>