<svg xmlns="http://www.w3.org/2000/svg" width="36" height="36" viewBox="0 0 36 36" fill="none">
<path d="M17.9992 35.9997C13.252 36.0257 8.6839 34.1352 5.27435 30.7334C3.6069 29.0869 2.28007 27.11 1.37366 24.9217C0.467256 22.7335 0 20.379 0 18C0 15.6209 0.467256 13.2665 1.37366 11.0782C2.28007 8.88996 3.6069 6.9131 5.27435 5.26656C8.6839 1.86477 13.252 -0.0257858 17.9992 0.000265705C22.7478 -0.024346 27.3166 1.86852 30.7257 5.27285C32.3931 6.91939 33.7199 8.89625 34.6263 11.0845C35.5327 13.2728 36 15.6272 36 18.0063C36 20.3853 35.5327 22.7398 34.6263 24.928C33.7199 27.1163 32.3931 29.0931 30.7257 30.7397C27.3147 34.1394 22.7461 36.0277 17.9992 35.9997ZM7.92435 24.8839C8.85114 25.4942 9.85822 25.9643 10.9148 26.2798C12.0052 26.6106 13.1363 26.7779 14.2731 26.7766C16.0088 26.7911 17.7271 26.4194 19.3105 25.6872C20.7147 25.0117 21.9678 24.0439 22.9909 22.845C23.9613 21.6983 24.7248 20.3823 25.2455 18.9589C25.7422 17.5948 26.0006 16.1509 26.0088 14.694V14.1611C26.8188 13.5476 27.5192 12.7939 28.0787 11.9335C27.3187 12.2831 26.5126 12.5146 25.6867 12.6205C26.113 12.3551 26.4908 12.0146 26.8026 11.6144C27.1173 11.2099 27.3555 10.7481 27.5047 10.253C26.6963 10.7554 25.8088 11.1081 24.8822 11.2953C24.4978 10.8681 24.0315 10.5275 23.5129 10.2951C22.9943 10.0627 22.4345 9.94343 21.8689 9.94491C21.1441 9.94239 20.4323 10.1429 19.8097 10.525C19.1861 10.9 18.6671 11.4344 18.303 12.0766C17.9358 12.7229 17.7449 13.4594 17.7504 14.2083C17.7502 14.5345 17.7814 14.8599 17.8435 15.1798C16.1831 15.0913 14.56 14.6395 13.0824 13.8545C11.6359 13.0881 10.3586 12.0226 9.33025 10.7246C8.96735 11.3728 8.77724 12.1082 8.77919 12.8563C8.77515 13.5634 8.94532 14.2601 9.27377 14.8811C9.59515 15.4952 10.0567 16.0196 10.6186 16.4091C9.95495 16.3964 9.30546 16.2092 8.73187 15.8652V15.9375C8.74567 16.5925 8.89887 17.2365 9.18066 17.8239C9.4601 18.4085 9.86584 18.9193 10.3667 19.3173C10.8596 19.7101 11.4345 19.9793 12.0459 20.1034C11.6931 20.1986 11.3299 20.2467 10.9651 20.2464C10.7091 20.2472 10.4536 20.2235 10.2019 20.1757C10.455 21.0156 10.9627 21.7499 11.6505 22.2712C12.3404 22.8102 13.1769 23.1131 14.0426 23.1374C13.3179 23.7064 12.5107 24.1542 11.6505 24.4642C10.7705 24.779 9.84514 24.9385 8.91352 24.9358C8.57006 24.9389 8.24644 24.9232 7.92893 24.8917L7.92435 24.8839Z" fill="white" fill-opacity="0.8"/>
</svg>