<svg xmlns="http://www.w3.org/2000/svg" width="25" height="24" viewBox="0 0 25 24" fill="none">
<path d="M18.3538 4.95129L13.3538 2.09417C13.1341 1.96861 12.8649 1.96861 12.6451 2.09417L7.64518 4.95129C7.36407 5.11172 7.22596 5.44166 7.30931 5.75486C7.39232 6.06805 7.67552 6.28568 7.99953 6.28568H17.9995C18.3235 6.28568 18.6067 6.06805 18.6897 5.75486C18.773 5.44166 18.6349 5.11172 18.3538 4.95129Z" />
<path d="M22.8343 12.9711L19.2629 8.68639C19.1346 8.53227 18.9473 8.43952 18.7468 8.43045C18.5466 8.41441 18.3513 8.4967 18.2093 8.63897L16.2757 10.5721H9.72443L7.79085 8.63897C7.64925 8.4967 7.45289 8.41511 7.2534 8.43045C7.05285 8.43952 6.86556 8.53227 6.73722 8.68639L3.16581 12.9711C2.98829 13.1845 2.94992 13.4809 3.06746 13.7313C3.185 13.9823 3.43716 14.1427 3.71443 14.1427H22.2857C22.563 14.1427 22.8152 13.9823 22.9327 13.7313C23.0502 13.4809 23.0119 13.1845 22.8343 12.9711Z" />
<path d="M8.71492 7V8.55224L10.0207 9.85712H11.572V8.42856C11.572 8.03406 11.8918 7.71428 12.2863 7.71428H13.7149C14.1094 7.71428 14.4292 8.03406 14.4292 8.42856V9.85712H15.9805L17.2863 8.55224V7H8.71492Z" />
<path d="M22.2857 20.5712V14.8569H17.2857V20.5712H16.5714V14.8569H9.4286V20.5712H8.71432V14.8569H3.71436V20.5712C3.3199 20.5712 3.00008 20.8907 3.00008 21.2855C3.00008 21.6803 3.3199 21.9997 3.71436 21.9997H22.2857C22.6801 21.9997 22.9999 21.6803 22.9999 21.2855C22.9999 20.8907 22.6801 20.5712 22.2857 20.5712ZM18.7142 16.9998C18.7142 16.6053 19.034 16.2855 19.4285 16.2855H20.1428C20.5373 16.2855 20.8571 16.6053 20.8571 16.9998V17.7141C20.8571 18.1085 20.5373 18.4283 20.1428 18.4283H19.4285C19.034 18.4283 18.7142 18.1085 18.7142 17.7141V16.9998ZM5.14292 16.9998C5.14292 16.6053 5.4627 16.2855 5.8572 16.2855H6.57148C6.96598 16.2855 7.28576 16.6053 7.28576 16.9998V17.7141C7.28576 18.1085 6.96598 18.4283 6.57148 18.4283H5.8572C5.4627 18.4283 5.14292 18.1085 5.14292 17.7141V16.9998ZM11.5714 20.5712V16.9998C11.5714 16.6053 11.8912 16.2855 12.2857 16.2855H13.7143C14.1088 16.2855 14.4286 16.6053 14.4286 16.9998V20.5712H11.5714Z" />
</svg>