<svg xmlns="http://www.w3.org/2000/svg" width="32" height="32" viewBox="0 0 32 32" fill="none">
<g clip-path="url(#clip0_1_258)">
<path d="M0 17.6879C0 16.5626 0 15.4374 0 14.3121C0.109252 14.2247 0.109252 14.2247 0.120178 14.0717C0.22943 13.0775 0.437009 12.1052 0.753841 11.1547C2.70946 5.12393 7.81154 0.906794 14.1045 0.120178C14.181 0.109252 14.3121 0.163878 14.3121 0C15.4374 0 16.5626 0 17.6879 0C17.7753 0.109252 17.7754 0.109252 17.9283 0.120178C18.9225 0.22943 19.8948 0.437009 20.8453 0.753841C26.8761 2.70946 31.0932 7.82247 31.8798 14.1045C31.8907 14.181 31.8361 14.3121 32 14.3121C32 15.4374 32 16.5626 32 17.6879C31.8907 17.7753 31.8907 17.7754 31.8798 17.9283C31.7706 18.9225 31.563 19.8948 31.2462 20.8453C29.2905 26.8761 24.1775 31.0932 17.8955 31.8798C17.8191 31.8907 17.6879 31.8361 17.6879 32C16.5626 32 15.4374 32 14.3121 32C14.2247 31.8907 14.2247 31.8907 14.0717 31.8798C13.0775 31.7706 12.1052 31.563 11.1547 31.2462C5.12393 29.2905 0.906794 24.1775 0.120178 17.8955C0.109252 17.8191 0.163878 17.6879 0 17.6879ZM15.9508 8.49983C13.5254 8.56538 11.0345 8.54353 8.55446 8.80574C6.82827 8.99146 5.94333 9.82178 5.68112 11.548C5.51724 12.6405 5.44076 13.7439 5.40799 14.8474C5.34244 16.8576 5.39706 18.8679 5.7576 20.8563C5.98703 22.1127 6.82827 22.9211 8.06282 23.1178C8.62001 23.2052 9.17719 23.2707 9.73438 23.3035C13.0884 23.5111 16.4315 23.5329 19.7856 23.4237C21.1512 23.38 22.5169 23.3363 23.8607 23.1287C25.0734 22.943 25.9037 22.211 26.1987 21.0201C26.3407 20.4739 26.3954 19.9167 26.45 19.3595C26.6903 16.7156 26.6794 14.0826 26.297 11.4496C26.1222 10.2369 25.5323 9.352 24.3086 8.98054C23.8607 8.83851 23.3909 8.80574 22.9211 8.76203C20.6378 8.55445 18.3216 8.54353 15.9508 8.49983Z" fill="white"/>
<path d="M15.9506 8.49951C18.3214 8.54321 20.6375 8.55414 22.9427 8.75079C23.4125 8.79449 23.8823 8.82727 24.3302 8.9693C25.5429 9.34075 26.1438 10.2257 26.3186 11.4384C26.701 14.0714 26.7119 16.7044 26.4716 19.3483C26.417 19.9055 26.3514 20.4626 26.2203 21.0089C25.9253 22.1998 25.095 22.9427 23.8823 23.1175C22.5276 23.325 21.1619 23.3688 19.8072 23.4125C16.4532 23.5217 13.0991 23.4999 9.75599 23.2923C9.1988 23.2595 8.63069 23.1939 8.08443 23.1065C6.84988 22.9099 6.00863 22.0905 5.7792 20.845C5.40775 18.8566 5.36404 16.8464 5.4296 14.8361C5.46237 13.7327 5.53885 12.6292 5.70273 11.5367C5.96493 9.81054 6.84988 8.98022 8.57606 8.79449C11.0342 8.54321 13.5252 8.56506 15.9506 8.49951ZM13.842 12.8478C13.842 14.9782 13.842 17.043 13.842 19.1516C15.6993 18.0919 17.5129 17.0649 19.3811 15.9942C17.502 14.9345 15.6884 13.8966 13.842 12.8478Z" fill="#EB2C35"/>
<path d="M13.8428 12.8481C15.6891 13.897 17.5137 14.9349 19.3819 15.9946C17.5137 17.0544 15.7001 18.0923 13.8428 19.152C13.8428 17.0434 13.8428 14.9786 13.8428 12.8481Z" fill="white"/>
</g>
<defs>
<clipPath id="clip0_1_258">
<rect width="32" height="32" fill="white"/>
</clipPath>
</defs>
</svg>