<svg xmlns="http://www.w3.org/2000/svg" width="36" height="36" viewBox="0 0 36 36" fill="none">
<g clip-path="url(#clip0_1_173)">
<path d="M0 19.8989C0 18.633 0 17.367 0 16.1011C0.122909 16.0027 0.122909 16.0027 0.1352 15.8307C0.258109 14.7122 0.491635 13.6183 0.848071 12.549C3.04814 5.76442 8.78798 1.02014 15.8675 0.1352C15.9536 0.122909 16.1011 0.184363 16.1011 0C17.367 0 18.633 0 19.8989 0C19.9973 0.122909 19.9973 0.122909 20.1693 0.1352C21.2878 0.258109 22.3817 0.491635 23.451 0.848071C30.2356 3.04814 34.9799 8.80027 35.8648 15.8675C35.8771 15.9536 35.8156 16.1011 36 16.1011C36 17.367 36 18.633 36 19.8989C35.8771 19.9973 35.8771 19.9973 35.8648 20.1693C35.7419 21.2878 35.5084 22.3817 35.1519 23.451C32.9519 30.2356 27.1997 34.9799 20.1325 35.8648C20.0464 35.8771 19.8989 35.8156 19.8989 36C18.633 36 17.367 36 16.1011 36C16.0027 35.8771 16.0027 35.8771 15.8307 35.8648C14.7122 35.7419 13.6183 35.5084 12.549 35.1519C5.76442 32.9519 1.02014 27.1997 0.1352 20.1325C0.122909 20.0464 0.184363 19.8989 0 19.8989ZM17.9447 9.56231C15.2161 9.63605 12.4138 9.61147 9.62376 9.90645C7.6818 10.1154 6.68624 11.0495 6.39126 12.9915C6.2069 14.2206 6.12086 15.4619 6.08399 16.7033C6.01024 18.9648 6.0717 21.2264 6.4773 23.4633C6.7354 24.8767 7.6818 25.7863 9.07067 26.0075C9.69751 26.1058 10.3243 26.1796 10.9512 26.2165C14.7245 26.45 18.4855 26.4746 22.2588 26.3517C23.7952 26.3025 25.3315 26.2533 26.8433 26.0198C28.2076 25.8109 29.1417 24.9874 29.4735 23.6477C29.6333 23.0331 29.6948 22.4063 29.7562 21.7794C30.0266 18.8051 30.0143 15.843 29.5842 12.8808C29.3875 11.5166 28.7238 10.521 27.3472 10.1031C26.8433 9.94333 26.3148 9.90645 25.7863 9.85729C23.2175 9.62376 20.6118 9.61147 17.9447 9.56231Z" fill="white" fill-opacity="0.8"/>
<path d="M15.5723 14.4541C17.6494 15.634 19.702 16.8017 21.8037 17.9939C19.702 19.1861 17.6617 20.3537 15.5723 21.5459C15.5723 19.1738 15.5723 16.8508 15.5723 14.4541Z" fill="white" fill-opacity="0.8"/>
</g>
<defs>
<clipPath id="clip0_1_173">
<rect width="36" height="36" fill="white"/>
</clipPath>
</defs>
</svg>